<svg width="25" height="25" viewBox="0 0 25 25" fill="none" xmlns="http://www.w3.org/2000/svg">
<path d="M8.58359 19.3023C8.51563 19.7289 8.11953 20.0219 7.68828 19.95C5.40078 19.5828 1.5625 18.6351 1.5625 16.4062C1.5625 14.9414 3.36172 13.8773 5.91484 13.232C6.55234 13.6641 7.27344 14.0617 8.08281 14.3883C4.93984 14.8805 3.125 15.8172 3.125 16.4062C3.125 16.7914 4.33672 17.8297 7.93594 18.4078C8.3625 18.475 8.65234 18.8766 8.58359 19.3023Z" fill="white"/>
<path d="M14.0625 20.2719V22.3734C14.0625 22.4781 13.9359 22.5305 13.8625 22.4562L10.9375 19.5312L13.8625 16.6062C13.9359 16.532 14.0625 16.5844 14.0625 16.6891V18.7086C18.9422 18.4687 21.875 17.1555 21.875 16.4062C21.875 15.8172 20.0602 14.8805 16.9172 14.3883C17.7266 14.0609 18.4477 13.6641 19.0852 13.232C21.6383 13.8773 23.4375 14.9414 23.4375 16.4062C23.4375 18.7242 18.9406 20.0398 14.0625 20.2719Z" fill="white"/>
<path d="M12.5 3.125C6.00938 3.125 3.125 8.59375 3.125 8.59375C3.125 8.59375 6.00938 14.0625 12.5 14.0625C18.9906 14.0625 21.875 8.59375 21.875 8.59375C21.875 8.59375 18.9906 3.125 12.5 3.125ZM12.5 12.5C10.343 12.5 8.59375 10.7508 8.59375 8.59375C8.59375 6.43672 10.343 4.6875 12.5 4.6875C14.657 4.6875 16.4062 6.43672 16.4062 8.59375C16.4062 10.7508 14.657 12.5 12.5 12.5Z" fill="white"/>
<path d="M14.732 7.91484C14.7977 8.13047 14.8438 8.35547 14.8438 8.59375C14.8438 9.88828 13.7945 10.9375 12.5 10.9375C11.2055 10.9375 10.1562 9.88828 10.1562 8.59375C10.1562 7.29922 11.2055 6.25 12.5 6.25C12.7383 6.25 12.9633 6.29609 13.1789 6.36172C12.7789 6.54844 12.5 6.95156 12.5 7.42188C12.5 8.06875 13.025 8.59375 13.6719 8.59375C14.1422 8.59375 14.5453 8.31484 14.732 7.91484Z" fill="white"/>
</svg>
