<svg width="70" height="70" viewBox="0 0 70 70" fill="none" xmlns="http://www.w3.org/2000/svg">
<path d="M54.6224 48.5403C54.6224 54.1769 55.9059 59.8201 58.3342 64.86C58.9215 66.1118 60.6999 66.1149 61.2881 64.86C63.7164 59.8202 64.9999 54.1769 64.9999 48.5403V27.255H54.6224V48.5403Z" fill="#F28500"/>
<path d="M64.9999 11.7929C64.7334 4.70532 54.8603 4.766 54.6224 11.7931V22.8075H64.9999V11.7929Z" fill="#F28500"/>
<path d="M31.4669 39.756V33.185C28.5824 33.9701 26.455 36.6185 26.455 39.756C26.633 47.7194 37.6043 49.0961 39.7975 41.5381H33.2441C32.2627 41.5381 31.4669 40.7402 31.4669 39.756Z" fill="#F28500"/>
<path d="M31.7881 19.4024V6.49997H11.1665C8.14763 6.49997 5.69995 8.93892 5.69995 11.9589V60.3409C5.69995 63.3557 8.14229 65.8 11.1665 65.8H44.7084C47.7272 65.8 50.175 63.3611 50.175 60.3411V24.8613H37.2546C34.2404 24.8613 31.7881 22.4124 31.7881 19.4024ZM14.8935 13.9434H26.0741C28.3763 14.0271 28.3816 17.3322 26.0741 17.418H14.8935C13.9327 17.418 13.1537 16.6402 13.1537 15.6807C13.1537 14.7212 13.9326 13.9434 14.8935 13.9434ZM14.8935 21.3867H22.3473C24.6504 21.4709 24.6537 24.7759 22.3473 24.8613H14.8936C13.9328 24.8613 13.1539 24.0835 13.1539 23.124C13.1539 22.1646 13.9326 21.3867 14.8935 21.3867ZM14.8935 30.691H18.6203C20.9245 30.7757 20.9258 34.0805 18.6203 34.1656H14.8935C12.5891 34.0809 12.5879 30.7762 14.8935 30.691ZM14.8935 38.1343H18.6203C20.9245 38.219 20.9258 41.5238 18.6203 41.609H14.8935C12.5891 41.5243 12.5879 38.2196 14.8935 38.1343ZM14.8935 45.5778H18.6203C20.9245 45.6624 20.9258 48.9673 18.6203 49.0524H14.8935C12.5891 48.9676 12.5879 45.6629 14.8935 45.5778ZM40.9816 58.3566H14.8934C13.9326 58.3566 13.1536 57.5787 13.1536 56.6193C13.1536 55.6598 13.9326 54.882 14.8934 54.882H40.9816C43.2794 54.9637 43.2931 58.2693 40.9816 58.3566ZM43.653 39.8717C43.653 45.4469 39.1108 49.9828 33.5278 49.9828C20.1138 49.4744 20.1175 30.2669 33.5279 29.7605C39.1109 29.7605 43.653 34.2964 43.653 39.8717Z" fill="#F28500"/>
<path d="M35.35 33.185V37.6325H39.7975C39.2116 35.4741 37.5085 33.7709 35.35 33.185Z" fill="#F28500"/>
<path d="M37.2591 21.325H48.6925L35.35 7.98248V19.416C35.35 20.4686 36.2064 21.325 37.2591 21.325Z" fill="#F28500"/>
</svg>
