<svg width="14" height="9" viewBox="0 0 14 9" fill="none" xmlns="http://www.w3.org/2000/svg">
<path d="M12.7137 0.210268C12.5434 0.0792202 12.328 0.0210304 12.1148 0.0484417C11.9016 0.0758529 11.7079 0.186631 11.5762 0.356518L6.53061 6.85652L1.48499 0.356518C1.42274 0.264715 1.34235 0.186628 1.24878 0.12707C1.15521 0.0675113 1.05044 0.0277417 0.940913 0.0102116C0.831389 -0.00731847 0.719436 -0.00223778 0.61195 0.0251401C0.504465 0.052518 0.403722 0.101613 0.31593 0.169402C0.228139 0.237191 0.155156 0.322236 0.101479 0.419301C0.0478022 0.516365 0.014567 0.623392 0.00382172 0.733788C-0.00692355 0.844184 0.00504832 0.955611 0.039 1.0612C0.0729517 1.1668 0.128164 1.26432 0.201236 1.34777L5.88874 8.66027C5.96468 8.75813 6.062 8.83733 6.17325 8.89181C6.2845 8.94629 6.40674 8.97462 6.53061 8.97462C6.65449 8.97462 6.77672 8.94629 6.88797 8.89181C6.99922 8.83733 7.09654 8.75813 7.17249 8.66027L12.86 1.34777C12.991 1.17738 13.0492 0.962009 13.0218 0.74881C12.9944 0.535612 12.8836 0.341963 12.7137 0.210268Z" fill="#767676"/>
</svg>
