<svg width="20" height="20" viewBox="0 0 20 20" fill="none" xmlns="http://www.w3.org/2000/svg">
<path d="M8.15035 17.5C8.14097 17.5 8.13597 17.4888 8.14285 17.4819L15.6247 10L8.14285 2.51812C8.13597 2.51125 8.14097 2.5 8.15035 2.5H11.2497L18.6172 9.8675C18.6903 9.94063 18.6903 10.0594 18.6172 10.1325L11.2497 17.5H8.15035Z" fill="white"/>
<path d="M1.27535 17.5C1.26597 17.5 1.26097 17.4888 1.26785 17.4819L8.74972 10L1.26785 2.51812C1.26097 2.51125 1.26597 2.5 1.27535 2.5H4.37472L11.7422 9.8675C11.8153 9.94063 11.8153 10.0594 11.7422 10.1325L4.37472 17.5H1.27535Z" fill="white"/>
</svg>
