<svg width="20" height="20" viewBox="0 0 20 20" fill="none" xmlns="http://www.w3.org/2000/svg">
<path d="M11.8497 17.5C11.859 17.5 11.864 17.4888 11.8572 17.4819L4.37528 10L11.8572 2.51812C11.864 2.51125 11.859 2.5 11.8497 2.5H8.75028L1.38278 9.8675C1.30965 9.94063 1.30965 10.0594 1.38278 10.1325L8.75028 17.5H11.8497Z" fill="white"/>
<path d="M18.7247 17.5C18.734 17.5 18.739 17.4888 18.7322 17.4819L11.2503 10L18.7322 2.51812C18.739 2.51125 18.734 2.5 18.7247 2.5H15.6253L8.25778 9.8675C8.18465 9.94063 8.18465 10.0594 8.25778 10.1325L15.6253 17.5H18.7247Z" fill="white"/>
</svg>
