<svg width="30" height="30" viewBox="0 0 30 30" fill="none" xmlns="http://www.w3.org/2000/svg">
<rect width="30" height="30" rx="3" fill="#00A6F2"/>
<path d="M5 5V8.53625H14.6205L12.7802 5H5Z" fill="white"/>
<path d="M15.75 10.6172C12.3037 10.6172 9.5 13.4209 9.5 16.8672C9.5 20.3135 12.3037 23.1172 15.75 23.1172C19.1963 23.1172 22 20.3135 22 16.8672C22 13.4209 19.1963 10.6172 15.75 10.6172ZM19.1485 16.096C18.8511 16.4504 18.3225 16.496 17.9685 16.1999L16.5882 15.0425L16.5882 20.4869C16.5882 20.9494 16.2129 21.3247 15.7504 21.3247C15.288 21.3247 14.9126 20.9494 14.9126 20.4869L14.9126 15.0425L13.5323 16.1999C13.1775 16.4965 12.6493 16.4504 12.3523 16.096C12.0553 15.7412 12.1014 15.2129 12.4562 14.9155L15.2126 12.6049C15.2251 12.5944 15.2394 12.5869 15.2523 12.5772C15.2704 12.5638 15.2884 12.5508 15.3072 12.5391C15.3332 12.5228 15.36 12.5089 15.3877 12.4955C15.4069 12.4863 15.4254 12.4767 15.4455 12.4691C15.4765 12.457 15.5083 12.4478 15.5406 12.4398C15.5586 12.4352 15.5757 12.4294 15.5942 12.4256C15.6461 12.4159 15.6985 12.4097 15.7508 12.4097C15.8032 12.4097 15.8556 12.4155 15.9075 12.4256C15.9259 12.4289 15.9431 12.4348 15.9611 12.4398C15.9934 12.4482 16.0252 12.457 16.0562 12.4691C16.0763 12.4771 16.0948 12.4863 16.114 12.4955C16.1413 12.5089 16.1681 12.5228 16.1945 12.5391C16.2133 12.5513 16.2313 12.5638 16.2493 12.5772C16.2623 12.5869 16.2766 12.5944 16.2891 12.6049L19.0455 14.9155C19.4003 15.2129 19.446 15.7416 19.1485 16.096Z" fill="white"/>
<path d="M15.4233 9.53638H5V23.7341H26.5V9.53938H15.4462C15.4385 9.53938 15.431 9.53688 15.4233 9.53638ZM7.0625 18.1716C7.0625 18.4476 6.8385 18.6716 6.5625 18.6716C6.2865 18.6716 6.0625 18.4476 6.0625 18.1716V15.3449C6.0625 15.0689 6.2865 14.8449 6.5625 14.8449C6.8385 14.8449 7.0625 15.0689 7.0625 15.3449V18.1716ZM7.0625 13.5014C7.0625 13.7774 6.8385 14.0014 6.5625 14.0014C6.2865 14.0014 6.0625 13.7774 6.0625 13.5014V12.9689C6.0625 12.6929 6.2865 12.4689 6.5625 12.4689C6.8385 12.4689 7.0625 12.6929 7.0625 12.9689V13.5014ZM20.48 16.6369C20.48 19.2451 18.3582 21.3669 15.75 21.3669C13.1418 21.3669 11.02 19.2451 11.02 16.6369C11.02 14.0286 13.1418 11.9069 15.75 11.9069C18.3582 11.9069 20.48 14.0286 20.48 16.6369Z" fill="white"/>
</svg>
