<svg width="39" height="39" viewBox="0 0 39 39" fill="none" xmlns="http://www.w3.org/2000/svg">
<mask id="mask0_719_3449" style="mask-type:luminance" maskUnits="userSpaceOnUse" x="0" y="0" width="39" height="39">
<path d="M19.0721 38.1442C29.6053 38.1442 38.1442 29.6053 38.1442 19.0721C38.1442 8.53886 29.6053 0 19.0721 0C8.53886 0 0 8.53886 0 19.0721C0 29.6053 8.53886 38.1442 19.0721 38.1442Z" fill="white"/>
</mask>
<g mask="url(#mask0_719_3449)">
<path d="M18.8036 2.43996L18.9437 2.407C19.9572 2.75766 21.0211 3.38848 21.6876 4.25277C21.7041 4.27383 21.7105 4.30404 21.716 4.33517C21.7215 4.3663 21.7215 4.40201 21.7197 4.43588C21.8186 4.56498 21.9248 4.66752 22.0392 4.74351C22.9484 6.1196 23.2413 7.74839 23.4473 9.36618L23.5691 10.3275L23.5252 10.387C23.5389 10.5271 23.5297 10.6645 23.4986 10.799C23.5911 10.8824 23.4629 11.0929 23.4016 11.1918C23.3402 11.2907 23.2725 11.3649 23.1901 11.4418C23.1287 11.8272 23.1086 12.22 23.1287 12.6192C24.3995 13.3928 24.2567 15.2203 23.7138 16.4252L23.5856 16.4966C23.5554 16.5973 23.4986 16.6989 23.4135 16.7621C23.4748 16.8784 23.4116 16.9223 23.2972 16.9415C23.028 17.359 22.5473 17.6951 22.0328 17.6886C22.0511 18.9759 21.6592 20.385 20.9854 21.4937C20.8114 21.7803 20.6091 22.109 20.3436 22.3012C20.8957 22.6556 21.2115 23.3734 21.3818 23.9749C22.2846 24.3347 23.1754 24.7092 24.0553 25.0983L24.069 17.3426C24.0736 17.2501 24.0928 17.1613 24.1194 17.0725C24.1624 16.9287 24.2869 16.5515 24.4535 16.6211C24.427 16.5213 24.4737 16.4682 24.5945 16.4627C24.6009 16.3666 24.666 16.3263 24.7896 16.34C24.9086 16.2375 25.0395 16.1807 25.1814 16.1679L25.2437 16.2521L25.3307 16.2833C28.5461 16.3052 31.7597 16.3116 34.9724 16.3034L34.9029 16.2768C34.9514 16.1578 35.0731 16.112 35.1501 16.2137L35.9768 16.2283L36.0729 16.2906C36.2396 16.1871 36.4685 16.416 36.5921 16.5442C36.7157 16.6724 36.9482 16.9379 36.8603 17.1082L36.9052 17.1613C36.9189 20.4262 36.9336 23.6911 36.9501 26.956C36.8585 27.1281 36.7798 27.3121 36.7111 27.4952C36.484 27.8642 36.1727 28.0546 35.7305 28.0821L31.4191 28.0858L31.334 28.0345L30.5951 27.9988C30.5439 27.9887 30.5274 28.018 30.532 28.0858C29.5413 28.0913 28.5443 28.0931 27.5408 28.0922C27.9547 28.745 28.3117 29.4362 28.612 30.1659L28.5965 30.3866C28.8025 30.7244 28.9435 31.0961 29.0176 31.5026C29.3445 32.6773 29.6512 34.0891 29.7922 35.2894L29.7455 35.4744L28.8492 36.0063C28.7677 35.9907 28.743 35.9028 28.7732 35.7426C28.5369 34.0488 28.1872 32.1719 27.5903 30.5569C26.8834 28.6443 25.5522 27.0338 23.6771 26.1787C23.5654 26.0358 23.5499 26.0303 23.6286 26.1613C23.6854 27.6747 23.7302 29.1661 23.7632 30.6356L24.0077 30.9643L24.0534 31.1218C24.0644 32.5455 24.1441 34.0003 24.8472 35.2812C24.8582 34.5249 24.8948 33.7677 24.9562 33.0115C25.197 32.2818 25.8608 32.6553 25.7912 33.3246C25.8241 34.6595 25.8406 35.999 25.8415 37.3439L25.7958 37.4236C25.3087 37.5884 24.8317 37.7614 24.3299 37.8979C24.188 37.9189 24.1441 37.8795 24.2475 37.7669L24.947 37.5554C23.8017 35.8516 22.9932 33.9664 23.0591 31.9046C23.0582 31.7773 23.0399 31.6555 23.0042 31.5393L21.0476 31.5429L20.9726 32.8943C21.0339 33.5874 20.2374 33.9655 19.916 33.2596L19.9636 32.4759C16.7848 32.4365 13.5986 32.4301 10.4052 32.4567C10.4692 32.8906 10.4821 33.8794 9.78166 33.6469C9.63883 33.5993 9.51431 33.4519 9.47952 33.3063C9.39712 32.7826 9.35409 32.2525 9.35226 31.7169L9.26711 31.5356L7.34168 31.5448C7.26844 32.0904 7.20893 32.6444 7.16498 33.2074L6.937 34.1935C7.09906 34.2823 7.12378 34.3537 7.01116 34.4068C6.66966 34.2127 6.40506 33.9124 6.10842 33.6652L6.07546 33.5892C6.22012 32.789 6.29153 31.976 6.29062 31.1511L6.37668 30.9057C6.50486 30.7702 6.56071 30.6951 6.55613 30.491L6.75114 26.1494C5.04911 26.9395 3.80395 28.3659 3.05868 30.0616L2.96255 30.1009L2.36011 29.1414L2.3418 29.0544C2.70161 28.3321 3.31595 27.3744 3.91199 26.8241C3.93854 26.8003 3.97974 26.793 4.02552 26.7902C4.33498 26.4588 4.68564 26.1576 5.09672 25.9589C5.08848 25.8463 5.12511 25.817 5.23406 25.8454C5.39245 25.7016 5.56549 25.5936 5.75318 25.5204C5.72022 25.3995 5.78614 25.3757 5.88045 25.4389C5.9894 25.3473 6.10567 25.2878 6.22836 25.2613C6.19357 25.1404 6.30069 25.0681 6.40232 25.1377L6.75023 24.9564L6.77495 24.8566C6.98004 24.7238 7.19702 24.624 7.42408 24.5563C7.54036 24.4345 7.62001 24.4226 7.66304 24.5215C7.8077 24.4308 7.95236 24.3732 8.09794 24.3475C8.07779 24.2761 8.08603 24.2651 8.14188 24.3127C8.28563 24.2111 8.43029 24.1498 8.57586 24.1296L8.59967 24.0307L8.95673 23.9181C9.09407 23.3038 9.42001 22.7371 9.88145 22.3086L9.88603 22.2546C9.68918 22.0247 9.50424 21.7867 9.32937 21.5404L9.33944 21.4241L9.13527 21.2236C8.56854 20.1396 8.21604 18.9182 8.249 17.6932C7.82052 17.7683 6.83721 17.0642 6.72368 16.687C6.70994 16.6403 6.72002 16.5927 6.73741 16.5479C6.69438 16.546 6.64677 16.5414 6.61473 16.5112C6.35471 16.2659 6.16793 15.1663 6.15969 14.7918C6.13772 13.8616 6.45725 12.8874 7.36366 12.4883L7.42042 11.8382C7.41584 11.5644 7.29682 11.3127 7.06427 11.0829L7.09997 10.984C7.05969 10.9712 7.04779 10.9464 7.04596 10.9089C7.0249 10.4841 7.03588 10.0529 7.09357 9.62254C7.06976 9.58958 7.05145 9.55662 7.0542 9.52641C7.21442 7.47372 7.77566 5.33222 9.29 3.86274C10.5416 2.64779 12.2802 2.09479 13.9832 1.90161C14.5325 1.04098 15.9315 1.03457 16.4698 1.90985C17.0137 1.97394 17.5649 2.06549 18.1243 2.1836L18.1948 2.25318C18.4218 2.29988 18.6251 2.36396 18.8045 2.44637L18.8036 2.43996Z" fill="#0D4976"/>
<path d="M24.3302 37.8951C21.6943 38.6102 18.911 38.7686 16.1854 38.3758C14.5529 38.1405 13.0138 37.7029 11.5041 37.0492C9.89636 36.3543 8.32983 35.5174 7.01234 34.4023C7.04987 34.3052 6.88324 34.3071 6.83838 34.2219C7.1103 33.2752 7.10847 33.0326 7.18538 32.0932C7.20369 31.8717 7.16798 31.6519 7.29158 31.4523L9.3635 31.4423C9.33878 31.5466 9.43308 31.6199 9.44041 31.7059C9.48069 32.2003 9.45322 32.6874 9.53837 33.169C9.58232 33.4171 9.71965 33.5874 9.95312 33.5783C10.3917 33.5609 10.3267 33.1315 10.3432 32.595C10.345 32.5492 10.2928 32.4265 10.345 32.3871C10.3743 32.3651 10.4228 32.3542 10.5052 32.3542H20.06L20.0023 33.2972C20.2733 33.5142 20.3118 33.6561 20.5892 33.4849L20.8053 33.3512C20.9417 33.115 20.9124 31.5302 20.9783 31.4734C20.9994 31.4551 21.0708 31.4423 21.1129 31.4423L23.1033 31.4459C23.2627 32.7277 23.0686 33.039 23.4595 34.3098C23.5465 34.5918 23.6243 34.861 23.7378 35.1237C24.0043 35.7399 24.2963 36.3222 24.6534 36.899C24.8035 37.1416 24.9345 37.4493 25.124 37.5994L24.3091 37.8301C24.2139 37.8494 24.267 37.886 24.332 37.8906L24.3302 37.8951Z" fill="#0C5C98"/>
<path d="M18.0644 -0.408352C18.6348 -0.433072 19.2418 -0.439481 19.8048 -0.399196C20.085 -0.386378 20.367 -0.366236 20.649 -0.3406L20.6838 -0.285666C20.3588 -0.0384645 20.0722 0.249937 19.8241 0.578624C19.6071 0.733354 19.4322 0.920129 19.2976 1.13986C19.1969 1.13712 19.1301 1.19205 19.0962 1.30375C18.9286 1.37333 18.7968 1.49785 18.6998 1.6773L18.3326 2.00965L18.3399 2.15705L18.9076 2.33284C18.99 2.46834 18.9378 2.48574 18.8032 2.43905C18.6824 2.3832 18.4947 2.37954 18.3464 2.33193C17.8318 2.16712 17.2999 2.09754 16.7606 2.03345C16.6297 2.01789 16.4987 2.06 16.4017 1.95655C16.214 1.6361 15.9091 1.44566 15.5511 1.3715C14.9542 1.24698 14.3701 1.45207 14.0194 1.96753C12.8045 2.12409 11.6334 2.41433 10.5513 3.0186C9.52857 3.58899 8.72196 4.46702 8.16438 5.49519C7.44292 6.82642 7.18656 8.89285 7.05106 10.3989C7.03275 10.6077 7.05289 10.8027 7.09867 10.9776C7.04923 11.1351 6.97324 11.0582 6.92471 10.9373L6.94119 10.0703C6.92563 10.1792 6.84689 10.2076 6.74801 10.1691C6.78646 10.3577 6.68575 10.4887 6.44771 10.5628C5.83428 11.1982 5.2236 11.8272 4.61567 12.4507C4.22197 12.7419 3.88963 13.0989 3.61862 13.5219C3.36501 13.6821 3.14527 13.8936 2.95941 14.1564C2.38902 14.6536 1.86165 15.191 1.37641 15.7696C1.10998 16.0791 0.821576 16.3547 0.512116 16.5973L0.357386 16.8573C0.248434 16.8802 0.186176 16.9461 0.16878 17.0551C0.0433481 17.0514 -0.054617 17.121 -0.1242 17.2629C-0.108635 17.3938 -0.169978 17.4259 -0.302734 17.4039C-0.235898 16.7758 -0.160822 16.1533 -0.0775061 15.5371C-0.0710971 15.5124 -0.0637726 15.4785 -0.0390525 15.4648C0.0296147 15.2633 0.0598283 15.072 0.0525038 14.8889C0.495636 12.9021 1.23816 11.0115 2.26359 9.23343C3.00702 7.94432 3.79074 6.82734 4.80793 5.75979C5.12289 5.42927 5.40671 5.12622 5.74547 4.81676C7.03275 3.63935 8.41525 2.63681 9.97262 1.82287C11.7378 0.899987 13.6129 0.219724 15.5768 -0.130021C16.4273 -0.282004 17.2367 -0.41293 18.0625 -0.408352H18.0644Z" fill="#2EADF7"/>
<path d="M9.34059 21.4177C9.21607 21.4104 9.12818 21.4598 9.07599 21.567C8.65941 21.8956 8.2941 22.2829 7.95077 22.683C7.72096 22.8396 7.52411 23.0273 7.36023 23.2461C7.20641 23.3303 7.12859 23.4164 7.05077 23.5711C6.77335 23.8266 6.49411 24.0784 6.21394 24.3246C6.10774 24.5837 5.94385 24.7559 5.7232 24.841C5.68475 25.004 5.62798 25.2017 5.43938 25.1715C5.33775 25.3391 5.19492 25.4801 5.01181 25.5936C4.77193 25.8747 4.52199 26.1402 4.23358 26.37L4.87905 25.936C4.9761 25.871 5.04935 25.8774 5.09787 25.9553C3.95251 26.706 3.10012 27.7827 2.46746 29.0196C2.43542 29.0819 2.40795 29.1213 2.36126 29.1387C1.26716 27.3936 0.506329 25.4023 0.0659436 23.3889C0.0512946 23.2708 0.0604503 23.2104 0.170318 23.1591C0.270114 22.9577 0.414773 22.7883 0.602463 22.6482C0.812127 22.3489 1.06116 22.1081 1.34956 21.9259C1.45943 21.7821 1.58852 21.6585 1.73868 21.556C1.84946 21.3738 1.96116 21.2181 2.15892 21.1229L2.37224 20.8666C3.07631 20.1607 3.7758 19.4438 4.47254 18.7159C4.60255 18.6308 4.70418 18.5355 4.7756 18.4293C4.78109 18.248 4.84243 18.1757 4.95962 18.2123C5.16837 17.977 5.42656 17.7655 5.70398 17.6191C5.94111 17.2418 6.22951 16.9241 6.5701 16.6641C6.60123 16.546 6.65799 16.5057 6.74039 16.5442C7.09197 17.1082 7.60835 17.5495 8.31058 17.6456C8.3646 19.1389 8.65392 20.1497 9.34242 21.4214L9.34059 21.4177Z" fill="#2FADF7"/>
<path d="M7.10038 10.9776L7.419 11.4216C7.62042 11.7018 7.41808 12.1541 7.4547 12.5386C5.95593 13.1365 6.01819 15.3851 6.73873 16.5406C6.66823 16.5744 6.68288 16.7054 6.60231 16.7392C6.48878 16.7868 6.4366 16.9104 6.34687 16.9599C6.20679 17.0368 6.17383 17.1247 6.0896 17.2419C5.57597 17.9496 5.87719 17.5376 5.4954 17.848C5.3718 17.9487 4.9836 18.2096 4.94789 18.4229C4.88655 18.346 4.96437 18.2801 4.89021 18.2408C4.87282 18.3744 4.87282 18.5255 4.75471 18.5987C4.51758 18.7461 4.36468 18.9622 4.17699 19.1627C4.03142 19.3193 3.83915 19.4383 3.70273 19.6233C3.53884 19.8448 3.32918 20.0096 3.136 20.1991C3.04627 20.287 3.02155 20.4116 2.88422 20.472C2.72399 20.5434 2.66814 20.7549 2.5244 20.8474C2.35777 20.9554 2.29185 21.1706 2.12796 21.2438C1.97323 21.3125 1.91555 21.4516 1.82491 21.5835C1.75533 21.686 1.58687 21.7364 1.52552 21.8462C1.4239 22.0293 1.25177 22.0705 1.10345 22.1822C1.03295 22.2354 0.98351 22.3388 0.91118 22.4212L0.691445 22.6748C0.621863 22.7545 0.545871 22.8241 0.465302 22.8799C0.336207 22.9705 0.317896 23.1033 0.233664 23.2123C0.184224 23.2754 0.054214 23.2773 0.0652008 23.3844C-0.19665 22.1887 -0.356873 20.9856 -0.410892 19.7441C-0.427372 19.3605 -0.442021 19.0034 -0.413638 18.6161C-0.365113 17.9652 -0.377016 17.3279 -0.257993 16.6724C-0.187494 16.2805 -0.171014 15.8987 -0.0748803 15.5353C-0.0382578 15.5334 -0.0208621 15.6232 -0.0309333 15.6744C-0.134392 16.243 -0.230526 16.7887 -0.259824 17.3737C-0.171014 17.3481 -0.222286 17.2648 -0.211299 17.186C-0.0959382 17.1521 -0.0547379 17.0661 -0.079458 16.9416L0.125628 17.0148C0.132037 16.9461 0.118303 16.8903 0.141192 16.8418C0.163166 16.796 0.271202 16.8418 0.296838 16.8006L0.459808 16.5341C0.636512 16.46 0.719828 16.3217 0.838851 16.199L1.31128 15.7156L1.4651 15.4931C1.29663 15.7358 2.04556 14.9127 2.01901 14.9447L2.27628 14.6435L2.81921 14.1702C3.15889 13.8735 3.19642 13.6254 3.56631 13.4569C4.03599 12.8444 3.93894 12.86 4.5597 12.3876C4.5011 12.4324 5.14108 11.8346 5.15206 11.8163C5.29672 11.5718 5.49815 11.4125 5.68309 11.2184C5.86803 11.0243 6.05023 10.8302 6.25532 10.6443C6.37251 10.5381 6.41829 10.4118 6.62795 10.3971C6.72775 10.3898 6.56295 9.93111 6.8074 10.0959C6.87241 10.1408 6.91361 10.0822 6.81472 10.0373C6.93009 9.92745 6.97403 9.77821 6.98777 9.60334C7.03904 9.57404 7.05277 9.58686 7.05643 9.60151C7.07108 9.65919 7.02897 9.69306 7.02805 9.7306L7.01066 10.9254C7.01066 10.9529 7.03721 10.9803 7.04911 10.9913C7.06101 11.0023 7.07932 10.995 7.09946 10.9794L7.10038 10.9776Z" fill="#20A2F2"/>
<path d="M26.0742 0.831357C26.7792 1.11335 27.4805 1.39168 28.1635 1.77164C29.0873 2.28527 29.9663 2.83186 30.7738 3.4755C30.6941 3.65404 30.5751 3.80785 30.4158 3.93786C30.3526 4.1228 30.2464 4.18048 30.0844 4.26288C29.8427 4.5577 29.5607 4.82321 29.2393 5.06125C29.3409 5.28099 29.1532 5.31212 28.9738 5.26268C28.9811 5.4348 28.9417 5.55291 28.7431 5.51812C28.6515 5.71039 28.5297 5.83674 28.3759 5.89808C28.1727 6.0583 28.0134 6.2405 27.8971 6.44558C27.7332 6.53714 27.5959 6.66074 27.4842 6.81639C27.3899 6.8466 27.3065 6.92168 27.2342 7.04162C27.1262 7.1643 27.0044 7.26867 26.8707 7.35382C26.8341 7.47559 26.7645 7.53968 26.6629 7.54609L25.9103 8.34263C25.8481 8.31699 25.8352 8.33714 25.8673 8.40031C25.653 8.54588 25.4873 8.71709 25.3683 8.91211C25.1705 9.01282 25.046 9.16755 24.9279 9.34975C24.7888 9.36257 24.7155 9.43032 24.7082 9.553C24.4189 9.84507 24.1204 10.1298 23.8118 10.4063C23.8009 10.5052 23.7661 10.6572 23.6416 10.6215C23.6443 10.7661 23.5967 10.8256 23.4996 10.8018C23.5106 10.6205 23.496 10.4347 23.4694 10.2305C23.3431 9.22889 23.2277 8.27213 23.0007 7.28607C22.7736 6.30001 22.3442 5.28007 21.7207 4.43867C21.7921 4.36085 21.8699 4.38282 21.956 4.50368C22.0054 4.36451 22.054 4.31965 22.1986 4.29584C22.3314 4.12189 22.476 3.958 22.6326 3.80327C22.693 3.60826 22.7791 3.546 22.8917 3.6165C23.0345 3.44712 23.1728 3.27316 23.3074 3.09463C23.4905 2.97286 23.6406 2.81538 23.7587 2.6222C23.9217 2.61853 24.016 2.49951 24.0252 2.3402C24.2083 2.18639 24.3969 2.04265 24.5919 1.90897C24.6432 1.75699 24.7356 1.67642 24.8684 1.66635C25.0662 1.37429 25.3106 1.13807 25.6018 0.957704C25.599 0.683951 25.8059 0.739801 25.9845 0.844175L26.076 0.833188L26.0742 0.831357Z" fill="#2EADF7"/>
<path d="M34.1624 6.69916C34.2466 6.85755 34.253 7.02144 34.0397 7.00221L33.8172 7.25948C33.873 7.4078 33.7842 7.45908 33.6414 7.46457C33.6057 7.6019 33.4601 7.64036 33.3365 7.61472L33.18 7.61655C30.4891 6.03629 26.9798 8.28033 27.6362 11.4619L27.5859 11.6221L27.6005 11.8574C27.6948 12.0497 27.801 12.2658 27.8752 12.4672C27.8788 12.4764 27.8679 12.491 27.8523 12.5066C27.8431 12.5917 27.7836 12.6677 27.6719 12.7355C27.5209 12.9396 27.3817 13.1282 27.1272 13.1923C27.0704 13.3287 26.9953 13.4102 26.9029 13.4377L26.4167 13.8067C26.4423 13.8323 26.4735 13.8781 26.457 13.8964C26.0642 14.3176 25.5954 14.8184 25.1203 15.0985C25.0333 15.2514 24.9426 15.3787 24.7568 15.4071C24.8282 15.6039 24.8456 15.657 24.679 15.8127C24.6753 16.0095 24.5517 16.1414 24.3082 16.21C24.3164 16.3812 24.1278 16.514 23.9731 16.5607C23.8733 16.7804 23.6993 17.0313 23.4347 17.0432C23.2626 17.3517 22.9962 17.1778 23.2983 16.9434C23.3111 16.8646 23.3688 16.817 23.4146 16.7639C23.4951 16.6916 23.5528 16.6037 23.5867 16.4984C24.0115 15.5865 24.2377 14.3816 23.757 13.424C23.5913 13.0934 23.3834 12.8234 23.041 12.6732L23.0511 11.6679C23.052 11.5526 23.0822 11.4106 23.1692 11.3392C23.356 11.1882 23.3917 10.9831 23.4988 10.8018C23.5785 10.6672 23.5501 10.5262 23.5647 10.3468C23.6673 10.4273 23.6297 10.5225 23.6773 10.5876L23.7405 10.3605L24.1305 9.99152L24.4253 9.71594C24.5197 9.62804 24.6359 9.58226 24.6561 9.43028C24.6735 9.29661 24.8099 9.31492 24.8767 9.28562C24.9582 9.1373 25.101 8.94778 25.2841 8.87179C25.3418 8.84798 25.3318 8.75185 25.3748 8.71431L25.8463 8.30414C25.6595 8.46711 26.4973 7.57901 26.4597 7.61838C26.5165 7.55887 26.6236 7.55338 26.5971 7.38949C26.6566 7.46823 26.6666 7.48288 26.7115 7.45175C26.8498 7.35562 26.6694 7.12398 26.8607 7.2842L27.1729 6.98207C27.2636 6.89509 27.3158 6.80536 27.3497 6.71106C27.3927 6.78705 27.4412 6.73853 27.4696 6.73029C27.5364 6.71198 27.4824 6.63049 27.5053 6.59936C27.5328 6.56182 27.6143 6.58288 27.649 6.54626C27.6664 6.52703 27.6326 6.45745 27.6664 6.4428C27.7305 6.41442 27.8001 6.43914 27.8303 6.39519C27.8669 6.34117 27.8633 6.27251 27.9054 6.23405L28.0858 6.06925C28.2057 5.95938 28.2698 5.79733 28.463 5.79275C28.5307 5.66091 28.6186 5.55104 28.7019 5.4311C28.7688 5.4311 28.8219 5.45583 28.8805 5.42927C28.8896 5.35328 28.8594 5.20862 28.9372 5.18573C29.0151 5.16285 29.1121 5.2306 29.2055 5.18573C29.1945 5.11981 29.1414 5.11615 29.1057 5.09143C29.3502 4.75084 29.796 4.58513 29.9325 4.32053C29.9773 4.23355 30.0533 4.15756 30.1925 4.1127C30.2877 4.08157 30.295 3.92317 30.3683 3.86732C30.7629 3.57251 30.436 3.59357 30.7729 3.47913C31.6171 4.15206 33.0023 5.29285 33.6908 6.13059L34.1605 6.70282L34.1624 6.69916Z" fill="#21A2F2"/>
<path d="M28.8503 36.0054C27.889 36.5758 26.8553 37.0629 25.7969 37.4208C25.764 37.4117 25.7567 37.3714 25.7557 37.322L25.7393 34.7785L25.7072 33.3622C25.7026 33.179 25.6779 32.9849 25.6056 32.8211C25.5525 32.703 25.3739 32.6929 25.2595 32.7249C25.1542 32.7551 25.0544 32.876 25.0453 33.0179L24.9555 34.3894L24.9299 35.6245C24.1471 34.2438 23.9667 32.9456 23.9878 31.3534C23.9914 31.0787 23.9164 30.8535 23.6792 30.696L23.6628 29.4967C23.6078 29.157 23.6554 28.8228 23.6316 28.4758C23.5767 27.6582 23.519 26.8846 23.5584 26.0166C24.473 26.4707 25.3575 27.0045 26.0267 27.7727C26.6191 28.452 27.0897 29.1863 27.466 29.9947C28.0089 31.1593 28.9053 35.0981 28.8613 35.8323L28.8513 36.0036L28.8503 36.0054Z" fill="#0A8ED4"/>
<path d="M36.7122 27.4953C36.5758 27.8578 36.3982 28.1975 36.2013 28.5619C34.9827 30.8261 33.2651 32.8138 31.2637 34.4105C30.7611 34.8115 30.274 35.1603 29.7466 35.4735C29.6294 35.0029 29.5873 34.5286 29.4894 34.025C29.2486 32.7845 28.9885 31.5677 28.5976 30.3857C28.5692 30.2337 28.6718 30.241 28.7523 30.3591C28.8979 30.4132 28.9895 30.3848 29.027 30.2731C29.3767 29.9691 29.7192 29.6551 30.0543 29.3282L30.838 28.4896C30.9616 28.4255 31.0367 28.344 31.0632 28.2451L31.1996 28.159L30.5697 28.0986C30.5111 28.0254 30.5056 27.9933 30.5954 27.9988L35.5952 28.0006C35.9715 28.0006 36.3149 27.8816 36.5575 27.6051C36.606 27.5502 36.6417 27.4861 36.7113 27.4962L36.7122 27.4953Z" fill="#2EADF6"/>
<path d="M37.8629 13.7627C37.8629 13.9092 37.8757 14.0594 37.9013 14.215C37.8125 14.3478 37.6807 14.3349 37.5608 14.2461L37.4866 14.399C37.0627 14.8431 36.6241 15.2688 36.17 15.6762C36.1123 15.8008 36.0263 15.8914 35.9118 15.9463L35.9274 16.0882C36.072 16.0837 36.1837 16.1743 36.0748 16.2906C35.6857 16.2485 35.281 16.1899 34.9038 16.2769C34.0111 16.3034 33.0718 16.3162 32.1635 16.3052C32.1186 16.3052 32.0427 16.2997 32.0033 16.2851C31.9941 16.2814 31.9905 16.2631 31.9886 16.2402C31.5354 16.2576 31.0822 16.2595 30.6299 16.2457L30.6281 16.2027C30.3177 16.1615 30.2097 16.0654 30.3049 15.9134C30.6043 15.8978 30.6528 15.8804 30.4514 15.8603C30.2665 15.7797 30.174 15.6643 30.1758 15.5142C30.3241 15.202 30.2976 15.1159 30.0934 15.256C29.9433 15.1617 29.8581 14.9978 29.8398 14.7634C29.8984 14.7021 29.8883 14.6517 29.8087 14.6124C29.6192 14.7195 29.4553 14.6325 29.3161 14.3514C29.2117 14.4695 29.0817 14.4549 28.9261 14.3075C28.7787 14.2471 28.7521 14.2855 28.8455 14.4228C28.7347 14.5767 28.569 14.6874 28.3493 14.7552C28.2101 14.638 28.1295 14.681 28.1085 14.8852L28.0517 14.9145C28.0764 15.1196 27.8283 15.1205 27.7999 14.9511C27.6809 14.9191 27.5738 14.8724 27.4804 14.811C27.4529 14.6572 27.463 14.5171 27.5088 14.3908C27.366 14.3029 27.3367 14.1372 27.5244 14.1766C27.5381 14.1125 27.5912 14.1335 27.6846 14.2388C27.7011 14.4109 27.7322 14.3734 27.7771 14.1271C27.7478 13.9339 27.7999 13.8561 27.9336 13.8946C28.1717 14.1408 28.4042 13.8854 28.1927 13.6437C28.2916 13.5686 28.3017 13.5192 28.2229 13.4954C28.1955 13.3159 28.0966 13.1887 27.9254 13.1127C27.5857 13.1923 27.6626 12.8407 27.8686 12.6814C27.8064 12.6238 27.7844 12.5798 27.8494 12.5075C27.7999 12.383 27.7752 12.2292 27.5894 12.2191C27.9107 11.949 27.3898 12.0854 27.583 11.6231L27.7047 11.7338C28.3713 14.0996 31.2498 15.1525 33.2787 13.7472C35.4037 12.274 35.3845 9.34879 33.4014 7.77586L33.3345 7.61564C33.3418 7.51675 33.4682 7.54788 33.5259 7.50119C33.5698 7.4664 33.5451 7.36202 33.6193 7.36294C33.6531 7.36294 33.7163 7.37576 33.7474 7.37484C33.7868 7.32449 33.7099 7.28786 33.6751 7.22469C34.0175 7.14137 33.9891 6.62317 34.0981 6.96375C34.1466 6.88135 34.143 6.7898 34.1604 6.70007C35.6958 8.56965 37.3355 11.4573 37.8611 13.7636L37.8629 13.7627Z" fill="#2EADF7"/>
<path d="M20.1535 -0.398251C20.5435 -0.398251 20.9152 -0.366206 21.3318 -0.323175C22.9752 -0.153796 24.5601 0.226162 26.0744 0.831349C25.9462 1.01355 25.8904 0.691268 25.7018 0.856985C25.6706 0.884452 25.6972 0.96319 25.6844 1.01904C25.4436 1.09961 25.2257 1.34864 25.1048 1.52626C25.0691 1.57845 24.9748 1.59767 24.9418 1.70205C24.9226 1.76156 24.7972 1.76156 24.7294 1.79177C24.7175 1.9932 24.55 2.02341 24.4484 2.10856C24.3394 2.1992 24.2149 2.30815 24.0922 2.37773C24.1243 2.58557 23.8386 2.70917 23.8734 2.71741C23.8578 2.71375 23.8386 2.67529 23.8239 2.68078C23.7013 2.72931 23.6765 2.93989 23.5923 2.99208C23.4083 3.10561 23.2545 3.20357 23.2297 3.43795C23.1812 3.3464 23.1483 3.32626 23.1583 3.42514C23.064 3.51852 23.0063 3.64487 22.902 3.71171C22.8718 3.72269 22.8095 3.65769 22.783 3.65677C22.7436 3.65494 22.7683 3.74467 22.7527 3.77122C22.6438 3.96532 22.4579 4.07793 22.327 4.25555C22.2739 4.32697 22.2483 4.42218 22.1027 4.38922L21.9544 4.70143C21.8903 4.57325 21.8335 4.45789 21.7172 4.43592C21.2649 3.82615 20.635 3.34457 19.9841 2.95454C19.5904 2.71924 19.1875 2.61853 18.8021 2.43999C18.8213 2.42626 18.8561 2.45098 18.89 2.40612L18.1475 2.19462C18.1969 2.15617 18.2537 2.14976 18.2701 2.10673C18.2802 2.08109 18.2244 2.03623 18.2271 2.0051C18.3672 1.80185 18.5924 1.70754 18.6968 1.54091C18.7929 1.38801 18.9065 1.25068 19.0804 1.2342C18.977 1.13348 19.1857 1.1225 19.1839 1.02728C19.2214 1.04193 19.2306 1.07123 19.2709 1.08221C19.3011 0.943963 19.3569 0.856985 19.4613 0.791064C19.3862 0.748948 19.3258 0.823109 19.2754 0.731553C19.5446 0.826771 19.8623 0.432164 19.9694 0.235318C20.0454 0.0943215 20.2551 0.0210766 20.354 -0.102524C20.4318 -0.199574 20.4886 -0.265494 20.6341 -0.284721C20.4492 -0.423887 19.811 -0.292961 19.8028 -0.400082C19.8934 -0.43762 20.05 -0.433958 20.1507 -0.400082L20.1535 -0.398251Z" fill="#20A2F2"/>
<path d="M6.1087 33.6606C4.89375 32.6489 3.80148 31.4349 2.96191 30.0963C2.98023 29.9746 3.03516 29.8647 3.10016 29.742C4.067 27.9265 4.93495 26.9541 6.8265 26.0056C6.85763 26.2455 6.8265 26.4945 6.81277 26.7664L6.66536 29.7841C6.64797 30.133 6.67543 30.4607 6.59486 30.7958C6.43098 30.9112 6.37421 31.0742 6.36689 31.2683L6.31379 32.6196C6.31013 32.713 6.2085 33.7137 6.10962 33.6615L6.1087 33.6606Z" fill="#0A8ED4"/>
<path d="M38.5588 17.9011C38.5487 18.6546 38.5341 19.4072 38.5148 20.1598C38.5148 20.8702 38.4379 21.4635 38.3354 22.163C38.22 22.2115 38.1816 22.1163 38.22 21.8764L38.2869 21.4123C38.1724 21.2969 38.0827 21.3381 38.0186 21.5359C37.7641 21.8417 37.4922 22.1191 37.2047 22.3681C37.2688 22.5823 37.071 22.8241 36.9483 22.5997C36.9327 20.8007 36.9199 18.9924 36.9089 17.1741L36.8613 17.1091C36.692 16.7466 36.4493 16.4417 36.0749 16.2915C36.0575 16.2567 36.0392 16.2137 36.019 16.1862C35.9906 16.1478 35.2911 16.2393 35.1172 16.1807C35.4074 16.0864 35.4761 16.2576 35.846 16.0379C35.8341 15.9885 35.7892 15.8676 35.8643 15.8585C36.0337 15.8383 36.0327 15.6726 36.1271 15.5994C36.2497 15.5041 36.3358 15.4474 36.4429 15.3293L36.6434 15.1077C37.0747 14.6325 37.4894 14.4567 37.4967 14.1006C37.613 14.1482 37.6808 14.2635 37.7732 14.2205C37.9609 14.1326 37.7247 13.7481 37.863 13.7627L37.9545 14.1647C38.2374 15.4062 38.5515 16.6468 38.5588 17.9011Z" fill="#22A3F2"/>
<path d="M38.3365 22.163C38.2403 23.2122 37.4566 26.0047 36.9988 26.8672C36.9512 26.9276 36.9274 26.8992 36.9274 26.8232C36.9155 25.4096 36.9228 24.0014 36.9494 22.5988C36.9942 22.597 37.051 22.608 37.0959 22.5832C37.192 22.532 37.0171 22.2253 37.235 22.2719C37.2488 22.1401 37.3788 22.1328 37.4474 22.0513L37.767 21.6723C37.8695 21.5505 38.0215 21.4672 38.0279 21.2941C38.1131 21.2868 38.1579 21.22 38.2119 21.241C38.2348 21.2676 38.2605 21.3253 38.2934 21.3243C38.3154 21.3243 38.3291 21.2731 38.3886 21.2932C38.3804 21.4882 38.2321 22.1099 38.3365 22.1639V22.163Z" fill="#2DACF7"/>
<path d="M36.9492 22.5988V26.8186C36.9492 26.8561 36.9813 26.8745 36.9987 26.8671L36.9511 26.9559C36.9318 26.9559 36.9181 26.944 36.9053 26.9001V17.3389C36.886 17.2372 36.8622 17.1805 36.8613 17.1082C36.8943 17.1082 36.93 17.1191 36.9419 17.1411C36.9565 17.1686 36.9483 17.196 36.9483 17.2427L36.9529 22.2051L36.9483 22.5988H36.9492Z" fill="#56A3DF"/>
<path d="M-0.036287 15.4647C-0.0692472 15.267 0.0122378 15.083 0.0552692 14.8889C0.0827361 14.8989 0.108372 14.9145 0.119359 14.9337C0.140417 14.9722 0.12943 15.0253 0.101047 15.0692C0.0177312 15.1992 0.0937229 15.3878 -0.036287 15.4647Z" fill="#20A2F2"/>
<path d="M28.682 17.2849V20.1112C28.8111 20.3557 29.039 20.5873 29.3329 20.5873H31.6401C31.7647 20.5864 31.9267 20.5086 32.0274 20.4536C32.1153 20.4051 32.1959 20.2431 32.2435 20.1515L32.2499 17.3719C32.2755 17.294 32.2984 17.262 32.3863 17.2647C33.5042 17.2528 34.6194 17.2593 35.7309 17.2849C35.7785 17.2089 35.7995 17.2583 35.8142 17.3371C35.8563 17.3655 35.8728 17.4204 35.8993 17.4598C35.9387 17.4671 35.9396 17.4817 35.9048 17.5037C35.946 20.5763 35.946 23.6508 35.9048 26.7253C35.903 26.8168 35.8764 26.8809 35.8233 26.9175C35.8288 26.9285 35.8206 26.9441 35.8215 26.9569C35.8069 26.9944 35.7904 26.9935 35.7739 26.9551C34.1442 26.9651 32.5191 26.9651 30.9004 26.9551C29.4822 26.9926 27.9376 26.9935 26.5038 26.9551L25.613 26.1951C25.4592 26.0633 25.2651 26.0074 25.1104 25.8536L25.1195 17.4158C25.1497 17.3243 25.1818 17.3069 25.2138 17.3664C25.2733 17.316 25.3383 17.2666 25.4198 17.2647C26.513 17.2528 27.5998 17.2593 28.681 17.2858L28.682 17.2849Z" fill="#D88B30"/>
<path d="M21.0573 14.497C21.0957 14.8202 21.1168 15.1791 21.0573 15.4986C20.9401 16.6165 20.6691 17.945 19.5942 18.5932C19.1749 17.2739 18.1156 16.6477 16.7596 16.7154C16.7679 16.5204 16.7505 16.3355 16.6214 16.2036C16.5362 16.1166 16.4273 16.0819 16.311 16.113C16.1022 16.1679 16.0858 16.417 16.0894 16.6156C15.6033 16.9608 15.0741 17.1174 14.5101 16.8409C14.185 16.6816 14.0395 16.3446 14.2134 15.9976C14.3956 15.6332 15.302 14.0429 14.5943 13.901C14.4625 13.8744 14.3096 13.9578 14.2555 14.1262C14.0752 14.6884 13.8564 15.2221 13.5496 15.7303C13.3675 16.0315 13.3675 16.3739 13.5112 16.7081C12.1598 16.7173 11.084 17.2492 10.6565 18.6143C9.56878 17.989 9.29228 16.7493 9.20805 15.6094C9.17692 15.1846 9.15495 14.7543 9.20714 14.3286L9.46716 12.2109C9.73999 12.1706 9.94966 12.1138 10.1795 12.0003C11.2406 11.4766 12.3329 11.0408 13.4956 10.7981C14.1091 10.67 15.161 10.5995 15.758 10.6553C17.9151 10.8558 18.4149 11.1625 20.2671 11.9765L20.7945 12.2081L21.0325 14.2324C21.0435 14.3286 20.9813 14.4448 21.0591 14.4961L21.0573 14.497Z" fill="#F1C298"/>
<path d="M17.2456 7.59457C16.9609 7.55245 16.7594 7.52865 16.4939 7.51675L15.6241 7.47829C12.9379 7.35927 10.3395 8.19792 8.01855 9.60606C8.16504 8.48266 8.40675 7.14045 8.95426 6.07931C10.0136 3.90485 12.0186 3.06894 14.3286 2.84738C14.8789 2.79428 15.4209 2.81442 15.9775 2.84097C17.1888 2.89957 18.4679 3.22093 19.5198 3.80689C20.5718 4.39285 21.3354 5.44025 21.7273 6.52153C21.9507 7.13862 22.1365 7.74564 22.24 8.3966L22.4176 9.52C22.1896 9.41471 21.9974 9.29751 21.7749 9.1675C20.3814 8.35082 18.8616 7.83536 17.2456 7.59457Z" fill="#0B89E5"/>
<path d="M18.1501 22.9C17.7885 23.1591 17.1155 23.4411 16.666 23.5427C16.5149 23.5766 16.3776 23.5601 16.232 23.6315C16.1075 23.692 15.9335 23.6068 15.8017 23.6407C15.4336 23.735 15.0811 23.6627 14.7177 23.6553C14.1372 23.6425 13.6052 23.5656 13.0971 23.312C12.9872 23.2571 12.8417 23.2964 12.7181 23.2049C12.4809 23.0282 12.1532 22.9705 11.9362 22.7544C11.8556 22.6739 11.7897 22.6418 11.6862 22.5759L11.3942 22.3873L10.9016 21.9387C10.8293 21.8727 10.7542 21.8636 10.7212 21.7556C10.6883 21.6475 10.5482 21.6045 10.4878 21.5138L10.1417 20.9929C9.70862 20.341 9.42845 19.8063 9.29661 19.0153L9.20872 18.4888C9.18949 18.3753 9.20139 18.2517 9.2078 18.151L9.72052 18.7562C9.98054 19.0629 10.8192 19.5765 11.0948 19.4346C11.2248 19.3678 11.2559 19.2378 11.3054 19.083L11.4866 18.5264C11.5388 18.3671 11.9554 17.9221 12.1806 17.7628L12.4571 17.5669C12.6183 17.5604 12.7831 17.4982 12.9314 17.4817L13.7133 17.3956C13.8882 17.3764 14.0997 17.5431 14.2489 17.6081C14.4549 17.6978 14.6426 17.695 14.8367 17.7445C15.0509 17.7985 15.202 17.8077 15.4245 17.7518C15.5929 17.7088 15.7541 17.7115 15.9253 17.6337C16.0846 17.5614 16.2402 17.4835 16.3803 17.4103C16.5753 17.3087 17.3133 17.4744 17.5486 17.5238C17.7582 17.5678 17.9166 17.5943 18.0778 17.7545C18.1501 17.826 18.2691 17.8717 18.3442 17.9633C18.661 18.3515 18.8368 18.8111 18.9906 19.2726C19.0593 19.4776 19.2891 19.4996 19.4429 19.409C19.6882 19.2643 19.9757 19.2414 20.2046 19.0647C20.5947 18.7635 20.3767 18.8184 20.6395 18.6408C20.7329 18.5776 20.819 18.4339 20.9041 18.3542C20.9783 18.2847 20.916 18.108 21.09 18.0704C21.1779 17.9285 20.9572 19.1627 21.0094 18.9832C20.8959 19.3806 20.7833 19.7724 20.613 20.1423L20.4738 20.4436C20.3905 20.6239 20.265 20.7896 20.1726 20.9618C20.0627 21.165 19.9235 21.3115 19.7716 21.4781C19.6937 21.5633 19.6516 21.6649 19.5656 21.7482C19.2039 22.098 18.8853 22.5017 18.422 22.7352C18.3186 22.7874 18.2453 22.8341 18.1519 22.9009L18.1501 22.9Z" fill="#694E41"/>
<path d="M31.989 16.2393L31.7354 16.2879C29.6012 16.319 27.4662 16.3172 25.3311 16.2824C25.2999 16.2815 25.2679 16.2723 25.2441 16.2512L25.2542 16.1551C25.0939 16.0132 25.0591 15.8841 25.148 15.7678C25.0884 15.6635 24.9987 15.6726 24.8806 15.7962C25.1653 15.9784 25.0097 16.3172 24.692 16.3785C24.5959 16.2723 24.5519 16.2549 24.5592 16.3263C24.508 16.3721 24.4494 16.4051 24.3835 16.4243C24.5281 16.4728 24.5409 16.4911 24.454 16.6202C24.3056 16.7814 24.1564 17.1338 24.1564 17.3701L24.1427 25.2576C23.1813 24.7998 22.2694 24.4153 21.331 24.0363L21.1854 23.6481C20.9977 23.1189 20.7038 22.6712 20.2744 22.3004C21.3813 21.1074 21.949 19.2167 21.9764 17.642C22.4535 17.5806 22.8508 17.3636 23.1667 17.0304C23.2106 16.9837 23.239 16.9333 23.2985 16.9397C23.2857 17.0176 23.1951 17.0459 23.206 17.1567C23.2518 17.1073 23.3003 17.0872 23.3452 17.0469C23.3672 17.0267 23.3379 16.9809 23.3434 16.9608C23.3571 16.9104 23.4423 16.9608 23.4734 16.9544C23.6913 16.9095 23.8222 16.6623 23.922 16.492C23.9797 16.4682 24.0877 16.4627 24.0978 16.3666L24.1939 16.3336C24.2415 16.3172 24.2013 16.2329 24.215 16.1954C24.2415 16.1194 24.3432 16.0755 24.4292 16.0791C24.4659 16.0434 24.421 16.0013 24.4201 15.9317C24.4659 15.9482 24.4805 15.9702 24.5025 15.983C24.5409 16.0059 24.5922 16.0224 24.5876 15.9628C24.3358 15.7825 24.6041 16.0315 24.7387 15.5984C24.7369 15.5664 24.6627 15.5252 24.6783 15.4758C24.6874 15.4455 24.7103 15.4098 24.7552 15.4034C24.9035 15.3577 25.0216 15.2579 25.1104 15.105L25.1635 15.0784C25.3448 15.1535 25.4592 15.2615 25.5069 15.4034C25.6744 15.3183 25.8181 15.3165 25.9363 15.397C26.1596 15.1333 26.3995 15.3906 26.0873 15.5875C26.199 15.5948 26.3052 15.6314 26.4059 15.6955C26.4133 15.4675 26.5808 15.1837 26.8207 15.2725C26.8802 15.506 27.1723 15.4986 27.3068 15.3595C27.3096 15.3567 27.283 15.3311 27.2647 15.3384C27.121 15.3934 26.9626 15.4135 27.0148 15.2121C27.0267 15.1663 27.0661 15.1333 27.1063 15.1105C26.8866 15.0345 26.9067 14.6774 27.1521 14.7186L27.1384 14.649C26.9324 14.6609 26.8811 14.4989 27.0523 14.3945C27.0358 14.3038 27.0386 14.2269 27.1201 14.1656C27.0377 13.9385 27.2418 13.9651 27.3993 14.0255C27.4671 13.9816 27.4451 13.9349 27.3343 13.8863C27.3444 13.728 27.1869 13.6446 27.056 13.6996C26.9498 13.6474 26.8591 13.6547 26.7841 13.7215C26.6797 13.8323 26.503 13.9861 26.4151 13.8021C26.4783 13.6465 26.6403 13.5586 26.7896 13.4597C26.9479 13.3553 27.0413 13.1438 27.2089 13.0669C27.5302 12.9177 27.4845 12.6641 27.8507 12.5029C27.8791 12.5734 27.9587 12.6192 27.9899 12.7144C27.8608 12.8005 27.7353 12.8966 27.7948 13.0568C27.8626 13.0532 27.8956 13.0102 27.945 12.9946C28.0063 13.0687 28.0823 13.1548 28.1858 13.1676C28.2133 13.1713 28.248 13.0971 28.2691 13.1026C28.3021 13.1118 28.3021 13.1713 28.3149 13.1887C28.3433 13.2262 28.2975 13.2564 28.2343 13.2793C28.194 13.294 28.2508 13.3929 28.2728 13.4359C28.2883 13.4679 28.3369 13.4423 28.3826 13.4423C28.3753 13.5082 28.3945 13.5512 28.3726 13.5824C28.3451 13.6208 28.292 13.6291 28.2508 13.641C28.3533 13.7188 28.3295 13.8314 28.3286 13.9156C28.3277 13.9999 28.173 14.1216 28.0924 14.0859C28.0036 14.0466 27.9148 13.9147 27.8159 13.9861C27.8699 14.1729 27.7655 14.2608 27.8498 14.3395C27.956 14.4384 28.2032 14.2672 28.2197 14.1409C28.2654 14.2324 28.3195 14.2745 28.3323 14.3469C28.1867 14.3478 28.0402 14.3771 27.956 14.486C27.9157 14.4293 27.8754 14.4192 27.8315 14.3991C27.7555 14.3643 27.7774 14.4265 27.7491 14.4961C27.7344 14.5318 27.7555 14.5648 27.8141 14.6069C27.7701 14.6142 27.695 14.6399 27.6905 14.6179L27.6053 14.2663C27.598 14.2343 27.5467 14.1931 27.5266 14.1921C27.5064 14.1912 27.4716 14.2388 27.4616 14.2626C27.533 14.2855 27.5742 14.302 27.5934 14.3496C27.6172 14.4055 27.5476 14.4631 27.5476 14.5272C27.5476 14.5913 27.587 14.682 27.5458 14.7754C27.6877 14.8248 27.7976 14.8944 27.9606 15.0015C28.0695 14.9905 27.7536 14.7195 27.8974 14.7039C27.923 14.7012 27.9514 14.6893 27.9661 14.7305C27.978 14.7635 27.9963 14.7891 28.0045 14.8065C28.0192 14.8385 28.1217 14.7836 28.1409 14.7607C28.1602 14.7378 28.0732 14.7223 28.0768 14.6655C28.0823 14.5767 28.1418 14.6014 28.1812 14.5904C28.2462 14.5721 28.2865 14.638 28.3414 14.6774C28.4183 14.5968 28.5154 14.5886 28.6015 14.5336L28.78 14.421L28.5941 14.2214C28.5328 14.1555 28.6298 14.0457 28.6655 13.9642C28.639 13.8653 28.5877 13.8644 28.5731 13.9861C28.531 14.0356 28.3478 13.9385 28.3643 13.8689C28.3835 13.7875 28.3973 13.7206 28.3735 13.5906C28.487 13.6199 28.5227 13.6996 28.6207 13.7087C28.6188 13.6474 28.6307 13.543 28.6774 13.5842C28.7608 13.6575 28.6408 13.7472 28.693 13.8415C28.7608 13.8003 28.7067 13.7399 28.737 13.6565C28.8029 13.6913 28.8532 13.7252 28.9265 13.7252C28.9448 13.7389 28.9384 13.7911 28.9274 13.8076C28.9127 13.8287 28.8166 13.8149 28.8056 13.8433C28.7635 13.9477 28.7717 14.0759 28.7406 14.2059C29.084 14.1454 29.0785 14.4348 29.224 14.3203C29.2918 14.2672 29.2259 14.1931 29.3 14.096C29.3989 14.3203 29.5793 14.66 29.7129 14.562L29.7917 14.5053C29.8338 14.4751 30.0032 14.7186 30.0911 14.6215C30.1277 14.5803 30.1506 14.5602 30.0865 14.5034C30.1524 14.4943 30.2284 14.4915 30.2458 14.5172C30.2595 14.5373 30.2513 14.5794 30.2302 14.628C30.3218 14.6463 30.3822 14.6087 30.4875 14.5108C30.4454 14.6151 30.6239 14.7369 30.6871 14.7763C30.7118 14.7918 30.6715 14.8761 30.6258 14.8477C30.5113 14.7781 30.4024 14.6646 30.2623 14.7653C30.287 14.823 30.363 14.8001 30.3795 14.8953C30.2257 14.8733 30.1249 14.9044 29.9775 14.9273C30.0151 14.8477 30.1268 14.7909 30.0609 14.7213L29.897 14.7607C30.0105 14.9237 29.9931 15.1599 30.0947 15.1663C30.2156 15.1745 30.1066 15.0207 30.2257 14.9988C30.3694 14.9722 30.2128 15.2157 30.3776 15.1242C30.4802 15.0674 30.3282 14.9823 30.3548 14.9173C30.3676 14.8852 30.4335 14.8541 30.482 14.8477C30.4719 14.8486 30.7283 15.18 30.8208 15.1672C31.0368 15.1068 30.5974 15.4245 30.4472 15.2908C30.4234 15.2698 30.3895 15.2194 30.3804 15.2551C30.3712 15.2936 30.3163 15.2835 30.3053 15.3073C30.2971 15.3247 30.3383 15.3586 30.3639 15.3924C30.2833 15.4419 30.254 15.4867 30.2586 15.5417C30.2742 15.744 30.385 15.6506 30.4784 15.7788C30.5507 15.7632 30.7411 15.7742 30.7054 15.8713C30.6761 15.9491 30.5397 15.9427 30.5278 16.0672C30.4994 16.0233 30.4921 16.0013 30.4701 15.9866C30.4335 15.9628 30.3026 15.961 30.3227 16.0123C30.5937 16.2073 30.5543 16.0947 30.6065 16.0947C30.6285 16.0947 30.6459 16.211 30.6789 16.2146C31.0936 16.2595 31.5651 16.2201 31.9872 16.2329L31.989 16.2393Z" fill="#2EADF7"/>
<path d="M16.9316 9.8066C15.9666 9.6537 14.5951 9.6592 13.6292 9.80752C12.5781 9.96957 11.5939 10.3184 10.6316 10.7588C9.70416 11.1836 8.8124 11.6551 8.12939 10.5912C8.90762 10.1417 9.63092 9.73152 10.4348 9.38361C13.0313 8.2593 16.1314 8.1238 18.8461 8.92125C19.8962 9.2298 20.8548 9.6949 21.7969 10.2415C22.0185 10.3706 22.24 10.4429 22.4323 10.615C22.0093 11.2797 21.2467 11.3933 20.5636 11.0399C19.4137 10.4438 18.218 10.008 16.9325 9.80569L16.9316 9.8066Z" fill="#0988E4"/>
<path d="M20.3347 30.6539C20.2861 30.8352 20.0453 30.7226 20.0545 31.5686L15.495 31.5704L15.4932 28.9226C15.5737 28.7596 15.7102 28.6699 15.8392 28.5555L17.4964 27.2865C18.1977 27.3506 18.7956 27.6308 19.3687 28.0043C19.7176 28.2314 20.0087 28.4969 20.4143 28.6608C20.4079 28.9803 20.3887 30.4534 20.3356 30.6539H20.3347Z" fill="#0A8ED4"/>
<path d="M10.3523 31.5713C10.2296 31.1465 10.3889 31.0229 9.98334 30.686L9.96777 28.6608C10.9255 28.1407 11.5288 27.4751 12.6247 27.3085C12.7227 27.2938 12.8655 27.2719 12.9415 27.3323L14.0136 28.1755L14.7552 28.7963L14.758 31.5704H10.3523V31.5713Z" fill="#0A8ED4"/>
<path d="M13.4526 24.3484C13.7355 24.3841 14.0111 24.44 14.2794 24.516H14.3233C14.641 24.5361 14.9624 24.5453 15.2874 24.5434C15.3322 24.5856 15.346 24.5892 15.3194 24.5434C15.5566 24.5489 15.79 24.5398 16.0207 24.5151C17.0031 24.4967 18.284 23.919 19.0586 23.3944C18.8718 24.4766 18.3728 25.3793 17.5937 26.0889C17.1982 26.4487 16.7962 26.76 16.3952 27.1143L15.1574 28.2066C15.0448 28.0665 14.9495 27.9777 14.8351 27.877L12.7723 26.0715C11.9996 25.3949 11.5107 24.397 11.2754 23.3953C11.9611 23.8201 12.6835 24.1809 13.4535 24.3493L13.4526 24.3484Z" fill="#F1C298"/>
<path d="M7.36414 30.5587C7.4209 30.3234 7.41632 30.0836 7.40808 29.829C7.40167 29.6294 7.43097 29.4399 7.43372 29.2431L7.46485 27.2554C7.46759 27.1098 7.49048 26.9954 7.50605 26.8489C7.54084 26.5238 7.53168 26.1952 7.51795 25.8674C7.51154 25.7145 7.50055 25.5772 7.67085 25.5112C7.70198 25.4993 7.70289 25.4133 7.73219 25.4059C7.7679 25.3977 7.82741 25.4426 7.86861 25.4233C8.04715 25.3437 8.7503 25.0196 8.84185 25.0727L8.84735 25.9882C8.85009 26.4186 8.91693 26.8342 8.97644 27.2609L9.10828 28.2012C9.15681 28.5482 9.1916 28.9016 9.19892 29.2623L9.22181 30.3591C9.22273 30.4049 9.27949 30.4553 9.25477 30.4983C9.23921 30.5258 9.18977 30.5606 9.13483 30.5596L7.82741 30.5496C7.68458 30.5487 7.56007 30.5981 7.3623 30.5569L7.36414 30.5587Z" fill="#0C5C99"/>
<path d="M22.9314 30.556L21.6349 30.5688L21.1762 30.5413C21.146 30.1321 21.1781 29.7988 21.1881 29.4326L21.2101 28.6196C21.2174 28.3348 21.309 28.0712 21.33 27.791L21.3447 27.5969L21.4564 26.1704C21.4729 25.9544 21.4601 25.7548 21.4839 25.5497C21.4985 25.4169 21.4363 25.2915 21.4802 25.1771C22.2346 25.21 21.5919 25.3327 22.1403 25.405C22.371 25.4353 22.5688 25.5973 22.8078 25.6449C22.7959 25.6953 22.751 25.6879 22.7483 25.7108C22.7437 25.7493 22.8178 25.7786 22.8206 25.8189C22.8416 26.1814 22.881 26.533 22.8645 26.891C22.8526 27.1474 22.8206 27.3881 22.859 27.6527C22.903 27.9595 22.8874 28.2579 22.8984 28.5692C22.9231 29.2385 22.9579 29.8876 22.9314 30.556Z" fill="#0D5C98"/>
<path d="M9.34078 21.4177C9.59622 21.6713 9.72989 22.0211 10.0476 22.2729C9.52114 22.716 9.19795 23.2891 9.02765 23.9566C8.88757 24.0582 8.72094 24.0738 8.5772 24.1241C8.52959 24.1534 8.51768 24.1498 8.54332 24.1122C8.40416 24.1635 8.27048 24.2285 8.14322 24.3072C8.13681 24.3191 8.11301 24.3365 8.09927 24.342C7.95095 24.3704 7.80538 24.4281 7.66438 24.516C7.57649 24.4977 7.51789 24.6222 7.43732 24.6368C6.94658 24.7293 7.26062 24.7879 6.75065 24.9509L6.40274 25.1322C6.36611 25.1734 6.27639 25.2246 6.22878 25.2558C6.10884 25.2805 5.99256 25.3391 5.88087 25.4334C5.85523 25.4755 5.79206 25.4902 5.7536 25.5149C5.60162 25.5643 5.42858 25.6723 5.23448 25.8399C5.21708 25.8893 5.14842 25.9443 5.09714 25.9534C4.80233 26.0056 4.57527 26.2711 4.28138 26.4414C4.27589 26.4442 3.98565 26.8772 3.8941 26.7902C3.85106 26.749 3.81261 26.7198 3.87304 26.6511C3.971 26.5403 4.04883 26.4149 4.15503 26.3224L4.53407 25.99C4.71444 25.8317 4.83346 25.6128 5.04038 25.4544C5.16673 25.3574 5.30132 25.3006 5.36724 25.1175C5.38738 25.0608 5.50365 25.0992 5.57141 25.0772C5.57324 25.0379 5.53021 25.0507 5.49999 24.9994C5.66205 25.0104 5.60711 24.7971 5.67395 24.7623C5.78015 24.7064 5.87354 24.7312 5.93305 24.6048C5.96968 24.527 6.05482 24.4675 6.08595 24.375C6.15096 24.1864 6.39724 24.1177 6.50986 23.9712C6.64719 23.7918 6.78086 23.6508 6.96581 23.5336C7.04271 23.4851 7.04729 23.3175 7.20294 23.2534C7.36682 23.1857 7.46204 22.9238 7.62227 22.8295C7.97109 22.6235 8.10385 22.3424 8.21555 22.2463C8.4655 22.0302 8.57628 21.8618 8.84363 21.6457C8.97821 21.5368 9.10548 21.4791 9.12928 21.2639C9.22999 21.3436 9.29958 21.3765 9.34169 21.4196L9.34078 21.4177Z" fill="#21A3F3"/>
<path d="M10.6451 27.3423L9.94563 27.7598C9.91267 27.7791 9.84584 27.7882 9.82661 27.7717C9.75977 27.7159 9.68378 26.6072 9.66272 26.3847C9.58215 25.5369 9.62976 24.6927 9.90809 23.8943C10.007 23.6114 10.1406 23.3578 10.3778 23.1775C10.4336 23.1353 10.5288 23.2324 10.538 23.2919C10.6112 23.7579 10.7504 24.1754 10.9161 24.6158C11.1771 25.3089 11.5799 25.9095 12.0963 26.4369C12.1558 26.4982 12.1842 26.576 12.2373 26.652C11.6458 26.7765 11.1578 27.0356 10.6451 27.3414V27.3423Z" fill="#0A8ED4"/>
<path d="M19.6902 27.3066C19.1784 26.9935 18.6859 26.7427 18.0825 26.6593C19.064 25.6852 19.5401 24.7477 19.8184 23.4292C19.7855 23.3569 19.8496 23.1738 19.9265 23.2031C20.1288 23.28 20.2469 23.5171 20.343 23.7149C20.8732 24.8017 20.6525 26.5678 20.5097 27.7965C20.1755 27.6875 19.9713 27.4779 19.6902 27.3066Z" fill="#0A8ED4"/>
<path d="M30.5963 27.9988C30.2905 27.996 31.4486 28.1205 31.3562 28.0537C31.4752 28.2533 31.2811 28.1581 31.0971 28.3266C31.1071 28.3714 31.1456 28.3778 31.1676 28.4309C31.0083 28.4392 30.9213 28.5243 30.8279 28.625L30.1403 29.3657C29.9718 29.547 29.7356 29.6688 29.6074 29.8793C29.5434 29.9837 29.4527 30.0167 29.3831 30.0872C29.2962 30.1732 29.2211 30.2886 29.1066 30.3225C29.0535 30.338 29.0398 30.4589 28.9913 30.4763C28.9354 30.4964 28.8851 30.4525 28.8173 30.4497C28.7413 30.447 28.788 30.5605 28.8118 30.631C28.7093 30.7729 28.6992 30.198 28.5985 30.3856C28.3138 29.5241 27.8404 28.7376 27.3506 28.0043H29.4143C29.5104 28.0034 29.5983 28.0629 29.6908 27.9915L30.5963 27.9988Z" fill="#20A3F2"/>
<path d="M31.37 17.4689C31.3801 18.2032 31.3828 18.8999 31.3306 19.6324L29.624 19.6388L29.646 17.1906C29.7522 17.3206 29.8877 17.2299 30.0012 17.2418C30.4709 17.2894 31.0633 17.2272 31.2491 17.2601C31.3123 17.2711 31.3224 17.3691 31.37 17.4689Z" fill="#674E43"/>
<path d="M21.937 16.7246C21.9462 15.9079 21.9315 15.0931 21.8931 14.2801C21.9196 13.9422 22.1687 13.5467 22.5678 13.5787C23.184 13.6291 23.3909 15.5188 22.4964 16.4078C22.3335 16.5699 22.1531 16.7136 21.9361 16.7246H21.937Z" fill="#F0C298"/>
<path d="M8.29774 15.0939C8.22175 15.6488 8.36366 16.0553 8.31789 16.7291C7.27231 16.4004 7.01413 15.0051 7.27415 14.0694C7.35838 13.7682 7.64037 13.4853 7.95441 13.6144C8.40029 13.7975 8.35085 14.7094 8.29774 15.0939Z" fill="#F0C298"/>
<path d="M25.2439 16.2521C24.9839 16.253 24.6351 16.4233 24.4538 16.6211C24.43 16.5561 24.4172 16.4856 24.3833 16.4252C24.4364 16.395 24.495 16.362 24.5591 16.3272C24.5408 16.3052 24.4895 16.2421 24.5151 16.2256C24.6149 16.1862 24.6378 16.0864 24.7266 16.0773C24.7065 16.1734 24.6049 16.3007 24.7248 16.3162C24.82 16.3281 24.9574 16.1725 24.929 16.0956C24.9152 16.0571 24.8264 16.058 24.8228 16.0379C24.81 15.9747 24.9693 15.9711 24.9345 15.9216C24.8512 15.8072 24.8502 15.9903 24.7532 15.9289C24.5701 15.8127 24.9207 15.7165 25.048 15.549L25.287 15.7824C25.2394 15.8182 25.1579 15.8475 25.167 15.8859C25.222 16.0022 25.3126 16.0754 25.3886 16.189L28.8577 16.1844C28.7194 16.1212 28.5711 16.1752 28.4749 16.0846C28.0172 16.2027 28.3504 15.918 27.9302 16.1578C27.7727 16.0425 27.574 16.069 27.4083 16.0919C27.2865 16.1093 27.1684 16.0068 27.0348 16.1166C26.8462 16.2714 26.6878 15.9848 25.9141 16.0809C25.8555 16.0882 25.8189 16.1706 25.753 16.1478C25.7173 16.1349 25.677 16.0892 25.6202 16.08C25.5534 16.1807 25.5085 16.1798 25.4948 16.0205L25.7859 15.9216C25.9462 15.9903 26.1375 15.9701 26.2483 15.8081C26.3426 15.8539 26.4296 15.9546 26.5266 15.9747L27.1813 15.9784C27.1877 15.6872 27.1813 16.0443 27.6024 15.9683C27.6775 15.9546 27.6949 15.8337 27.7636 15.7614L27.8981 15.7284C28.0236 15.6973 27.8341 15.5682 27.9705 15.4675C28.0135 15.4355 28.0987 15.5005 28.0648 15.5179C27.9741 15.5664 27.9851 15.6039 27.976 15.6515C27.9577 15.7486 28.0135 15.7522 28.0987 15.7385L28.1307 15.9646C28.388 16.0397 28.7441 15.9115 28.735 15.9097C28.7624 15.9161 28.7853 15.9756 28.8137 15.9802C28.8622 15.9875 28.9108 15.9033 28.8961 15.8658C28.8512 15.7513 28.6837 15.8493 28.4786 15.7733C28.4154 15.7504 28.0172 14.9511 28.1728 14.7479C28.3733 14.8962 28.1206 15.484 28.4017 15.2981C28.54 15.3201 28.5839 15.2377 28.691 15.115C28.7505 15.2761 28.843 15.2826 28.9959 15.288C28.9181 15.3686 28.8247 15.3109 28.7313 15.3192C28.7093 15.4016 28.7551 15.4712 28.7194 15.5352C28.6983 15.5719 28.6452 15.549 28.648 15.5197C28.6498 15.5041 28.6324 15.4647 28.6123 15.4602C28.5308 15.5133 28.5381 15.6808 28.6489 15.7101C28.8137 15.7541 28.9721 15.6708 29.1369 15.7422C29.0792 15.8374 28.973 15.7504 28.9282 15.8484C29.0801 15.8923 29.1946 15.9335 29.2486 16.048C29.1955 16.0626 29.1671 16.0709 29.1213 16.0864C29.0966 16.0947 29.1186 16.1505 29.1406 16.1652C29.255 16.2448 30.4864 16.145 30.6412 16.2274L25.2448 16.2521H25.2439Z" fill="#2EADF7"/>
<path d="M21.9561 12.8728C21.8463 12.9168 21.8087 13.1786 21.6522 13.1209C21.4956 13.0633 21.5459 12.2786 21.5597 12.1312C22.261 12.2622 22.1127 11.7558 22.4102 12.0964C22.2171 12.3189 22.4295 12.5551 22.2757 12.7144C22.207 12.7859 22.1026 12.8152 21.9552 12.8728H21.9561Z" fill="#654E45"/>
<path d="M34.9042 16.276C35.2072 16.3053 35.5295 16.2265 35.8207 16.3327C32.293 16.2906 28.8047 16.3886 25.3311 16.2833C27.5522 16.254 29.7825 16.341 31.989 16.2393C32.0449 16.2366 32.1282 16.3071 32.1914 16.276C32.3296 16.2082 32.4322 16.2613 32.5658 16.2695C32.9211 16.2915 33.28 16.2952 33.638 16.2695C33.7835 16.2595 33.8897 16.2375 34.039 16.2677C34.3301 16.3263 34.6286 16.2485 34.9042 16.275V16.276Z" fill="#002660"/>
<path d="M8.7354 12.1678C8.75554 12.4846 8.80956 12.7511 8.59806 13.0642C8.48362 12.8499 8.28311 12.7675 8.16592 12.611C8.1238 12.4517 8.12014 12.1862 8.16867 12.0177C8.2062 11.8868 8.43967 12.0095 8.48728 12.0973C8.53123 12.1779 8.66307 12.1303 8.73631 12.1678H8.7354Z" fill="#674E44"/>
<path d="M35.9049 26.9111C35.8637 26.8827 35.8637 26.8196 35.9049 26.7225C35.9461 23.6435 35.9461 20.5699 35.9049 17.5037L35.8994 17.4598C35.9196 17.4744 35.9745 17.4589 35.9855 17.49C35.9965 17.5211 35.9928 17.5385 35.9928 17.5962V26.8132C35.9928 26.8827 35.9315 26.902 35.9049 26.9111Z" fill="#362E32"/>
<path d="M35.9049 26.9111C35.8784 26.9148 35.8509 26.9166 35.8234 26.9166C35.7905 26.8498 35.9031 26.8068 35.9031 26.7243V17.5028C36.0404 18.6042 35.9232 25.3263 35.904 26.9111H35.9049Z" fill="#978F92"/>
<path d="M26.502 26.9981C27.9211 26.9606 29.4665 26.9596 30.9012 26.9981C32.5236 26.9578 34.1506 26.9203 35.7748 26.9542L35.8224 26.956C35.8242 26.9761 35.8288 26.9999 35.8004 27.0411H26.5596C26.5093 27.0411 26.5047 27.0118 26.502 26.9972V26.9981Z" fill="#7E620B"/>
<path d="M30.9011 26.9542C30.9386 26.967 30.9386 26.9807 30.9011 26.9981H26.5018C26.4991 26.9825 26.489 26.9679 26.5046 26.9542H30.9011Z" fill="#C9B259"/>
<path d="M28.6817 17.2419C27.5702 17.2556 26.4513 17.2712 25.3243 17.2886L25.2144 17.3664C25.1888 17.3582 25.1476 17.4149 25.1201 17.4158C25.1201 17.3398 25.1274 17.2913 25.1851 17.2437C25.2428 17.1961 25.2904 17.1961 25.3756 17.1961L28.634 17.1979C28.6679 17.1979 28.6871 17.2245 28.6826 17.241L28.6817 17.2419Z" fill="#322F33"/>
<path d="M28.6821 17.2419V17.2858L25.4237 17.2895C25.3422 17.2895 25.2854 17.3884 25.2158 17.3664C25.2378 17.2767 25.3101 17.2401 25.42 17.2401L28.6831 17.2419H28.6821Z" fill="#8B8689"/>
<path d="M35.8142 17.3371C35.7913 17.3215 35.7584 17.2886 35.7309 17.2849C34.6286 17.2593 33.5198 17.252 32.4056 17.2648C32.3076 17.3087 32.2554 17.3014 32.2499 17.2419C32.2444 17.2254 32.2646 17.1989 32.2984 17.1989H35.8069C35.8307 17.2593 35.8151 17.2996 35.8142 17.338V17.3371Z" fill="#313035"/>
<path d="M35.731 17.2849L32.391 17.2877C32.3351 17.2877 32.2958 17.3875 32.25 17.3719V17.241H35.6824C35.7163 17.241 35.7365 17.2684 35.731 17.2849Z" fill="#858489"/>
<path d="M21.937 16.7246L21.8931 14.28C21.9269 14.2773 21.9379 14.3194 21.937 14.3652L21.9334 15.1068C21.9974 15.2817 21.9974 15.4574 21.9334 15.6323L21.9361 16.7255L21.937 16.7246Z" fill="#262530"/>
<path d="M16.0198 24.5151C16.2249 24.5701 15.204 24.5664 15.3331 24.5774C14.9687 24.5463 14.6336 24.6021 14.3232 24.516C14.3763 24.4336 14.4413 24.5087 14.5045 24.5087L16.0198 24.5151Z" fill="#1C2940"/>
<path d="M21.0572 15.4996C21.092 15.1681 21.0572 14.8303 21.0572 14.4979C21.0572 14.4137 21.0453 14.3112 21.1021 14.2306L21.1094 15.6323C21.0398 15.603 21.0728 15.5408 21.0563 15.4996H21.0572Z" fill="#191E20"/>
<path d="M14.2789 24.516C14.0006 24.516 13.7406 24.4116 13.4521 24.3484C13.6307 24.3008 13.7909 24.3695 13.9768 24.4244C14.0848 24.4565 14.2523 24.3759 14.2789 24.516Z" fill="#1C2940"/>
<path d="M5.7535 25.514C5.58046 25.622 5.42847 25.7704 5.23438 25.839C5.29022 25.6834 5.81026 25.3922 5.7535 25.514Z" fill="#2FADF7"/>
<path d="M8.57771 24.1233C8.42847 24.1755 8.30579 24.3018 8.14373 24.3064C8.13275 24.2304 8.63356 23.9859 8.57771 24.1233Z" fill="#2FADF7"/>
<path d="M8.09989 24.3412C8.00924 24.3769 7.81515 24.5243 7.66499 24.5151C7.6476 24.4446 8.14933 24.2221 8.09989 24.3412Z" fill="#2FADF7"/>
<path d="M6.2286 25.2557C6.12423 25.3244 5.99971 25.4031 5.88069 25.4334C5.85322 25.4004 6.27164 25.1065 6.2286 25.2557Z" fill="#2FADF7"/>
<path d="M6.75123 24.9509C6.65693 25.0461 6.53974 25.1267 6.40332 25.1322C6.45093 25.0187 6.65052 24.9839 6.75123 24.9509Z" fill="#2FADF7"/>
<path d="M23.4136 16.7621C23.4822 16.6815 23.4804 16.5414 23.5857 16.4966C23.6434 16.5945 23.5115 16.7374 23.4136 16.7621Z" fill="#2EADF7"/>
<path d="M33.3365 7.61474C35.1823 8.96977 35.5723 11.5571 33.9627 13.2665C33.559 13.6959 33.0893 14.0356 32.5106 14.2388C31.5585 14.573 30.4836 14.5236 29.5699 14.0823C28.56 13.5943 27.8587 12.6677 27.5849 11.6222C27.2196 10.2278 27.7149 8.82145 28.7935 7.90314C29.3245 7.45085 29.9214 7.14688 30.6374 7.0773C31.7095 6.97293 32.4466 7.01687 33.3365 7.61382V7.61474Z" fill="#0D4A76"/>
<path d="M24.7567 15.4062C24.7567 15.3787 24.7567 15.3229 24.7824 15.3018C24.8025 15.2853 24.8638 15.3155 24.8968 15.2844C24.9298 15.2533 24.8968 15.1947 24.9096 15.17C24.9279 15.1333 24.9746 15.1581 25.0305 15.18C25.0305 15.0125 25.1641 15.0216 25.2566 14.9365L25.6613 14.5684C25.7693 14.4705 26.4002 13.847 26.4166 13.8058C26.5494 13.8305 26.6245 13.7673 26.7151 13.6721C26.7737 13.6108 26.8927 13.6016 26.9284 13.4789C26.9385 13.4441 26.9953 13.4981 27.0044 13.5183C27.0127 13.5357 26.9788 13.5632 26.9751 13.6007C26.9715 13.6364 27.0502 13.6217 27.0722 13.6053C27.0887 13.5924 27.0905 13.5732 27.0795 13.5201C27.1372 13.4368 27.1033 13.304 27.1582 13.2335C27.2022 13.1777 27.3359 13.2702 27.3578 13.3233C27.3871 13.25 27.3853 13.153 27.4421 13.1548C27.4842 13.1988 27.4952 13.2528 27.5336 13.2647C27.5757 13.2775 27.6078 13.2253 27.6545 13.2125C27.7012 13.1997 28.1159 13.207 28.1498 13.3938C28.1654 13.4798 28.2359 13.5961 28.0683 13.6465C28.1223 13.6941 28.1791 13.6666 28.1882 13.7106C28.2038 13.7884 28.2926 13.8287 28.2056 13.8982C28.1159 13.7307 27.8577 13.6126 27.7057 13.5952C27.6499 13.5888 27.7414 13.5055 27.7231 13.4707C27.5702 13.1823 27.725 13.6996 27.5913 13.7499C27.5144 13.7792 27.4933 13.652 27.4988 13.6062C27.5061 13.5512 27.5336 13.5009 27.5922 13.4707C27.5153 13.4487 27.4897 13.3938 27.4356 13.4066C27.4128 13.4643 27.399 13.4954 27.3743 13.5183C27.3267 13.5622 27.2315 13.478 27.193 13.5174C27.183 13.5274 27.1582 13.5421 27.1582 13.5613C27.1573 13.6254 27.3166 13.6373 27.3999 13.7069C27.4283 13.7307 27.3697 13.8268 27.4064 13.8534C27.5043 13.9001 27.6545 13.8259 27.7277 13.9129C27.7396 13.9871 27.7424 14.1088 27.6957 14.1912C27.6215 14.1427 27.6536 14.0539 27.6078 14.0301C27.5757 14.0136 27.4961 13.9825 27.4649 14.0337C27.4649 14.0704 27.573 14.074 27.5437 14.1564C27.5895 14.194 26.9715 13.9642 27.1985 14.1226L27.2782 14.1784C27.2315 14.2022 27.1903 14.2297 27.1518 14.2571C27.0914 14.3011 27.1674 14.3807 27.1372 14.4393C27.118 14.4769 26.9724 14.5236 27.0392 14.573C27.0685 14.584 27.1289 14.5364 27.1729 14.5492C27.2315 14.5657 27.247 14.7836 27.247 14.823C27.247 14.8898 27.1161 14.8358 27.0557 14.7863C27.0236 14.8614 27.063 14.9484 27.0603 15.029C27.1546 15.0409 27.2205 14.9557 27.3066 14.9768C27.345 14.9859 27.3761 15.0509 27.4027 15.0638C27.4686 15.094 27.4787 14.9804 27.5235 14.963C27.595 14.9347 27.67 14.9722 27.7817 14.9896C27.6838 15.0308 27.6874 15.126 27.6023 15.18C27.4585 15.0793 26.9779 15.1745 27.1106 15.3064C27.1372 15.332 27.1811 15.3604 27.1747 15.2762C27.1701 15.213 27.2855 15.2698 27.3304 15.267C27.4045 15.2624 27.3716 15.3989 27.4402 15.4437C27.269 15.462 27.1216 15.495 27.0392 15.6625C27.0355 15.5096 26.9467 15.5133 26.9303 15.6177C26.9394 15.6863 26.9275 15.7751 26.8735 15.7623C26.7545 15.6305 26.9898 15.4813 26.8277 15.5005C26.771 15.5069 26.8295 15.6717 26.7719 15.7083C26.7343 15.7321 26.6318 15.7367 26.6336 15.6891C26.6354 15.6497 26.673 15.6177 26.6583 15.6049C26.6272 15.5774 26.5704 15.6424 26.5375 15.5728C26.6144 15.4968 26.7279 15.5279 26.8076 15.4867C26.8222 15.4043 26.7746 15.3393 26.7325 15.3293C26.7014 15.3219 26.6867 15.3668 26.6336 15.3934C26.4999 15.4602 26.5064 15.647 26.4743 15.8145L26.2344 15.744C26.2088 15.7056 26.2125 15.6808 26.1923 15.679C26.142 15.6735 26.0779 15.6635 26.066 15.7037C26.1145 15.7349 26.142 15.7559 26.1548 15.7852C26.1713 15.8237 26.1191 15.8557 26.066 15.8374C25.9708 15.8044 25.9973 15.6937 25.9936 15.6351C25.9863 15.5179 26.0715 15.4867 26.1841 15.4153C26 15.235 25.9588 15.6854 25.8563 15.6781C25.8453 15.5884 25.8856 15.4922 25.8343 15.4272C25.7812 15.4117 25.6622 15.4401 25.6119 15.4785C25.5945 15.4922 25.6091 15.5307 25.6173 15.5408C25.6366 15.5637 25.589 15.6076 25.545 15.5783C25.5121 15.5563 25.5157 15.495 25.4828 15.484C25.4544 15.4748 25.4196 15.5142 25.3738 15.5115C25.3656 15.4538 25.4324 15.3293 25.361 15.2881C25.2942 15.2496 25.2017 15.2597 25.1632 15.1416C25.0863 15.2432 25.0708 15.3155 24.9893 15.3503C25.014 15.3778 25.0534 15.3723 25.0653 15.3934C25.0836 15.4282 24.797 15.4886 24.7549 15.408L24.7567 15.4062Z" fill="#2EADF7"/>
<path d="M34.4802 25.6303L31.6832 25.6504C31.4286 25.6523 31.2446 25.4417 31.2098 25.2302C31.1686 24.9802 31.3078 24.7761 31.5531 24.6836L34.461 24.7019C34.6844 24.7037 34.829 24.9692 34.8199 25.1469C34.8116 25.3135 34.7219 25.6275 34.4802 25.6294V25.6303Z" fill="#0E4976"/>
<path d="M32.4236 22.9476C33.1094 22.9238 33.7979 22.9183 34.4909 22.933C34.6054 22.9504 34.6997 23.0126 34.7729 23.1216C34.9762 23.6874 34.7665 23.594 34.6576 23.7771C34.5807 23.8531 34.5175 23.8668 34.4681 23.8183C33.8189 23.8577 33.146 23.8531 32.5042 23.8238C32.409 23.8238 32.3394 23.8009 32.2579 23.7121C32.0519 23.4869 32.0821 23.1087 32.3357 22.9476C32.354 22.8918 32.4099 22.8826 32.4227 22.9476H32.4236Z" fill="#0D4A74"/>
<path d="M35.7749 26.9541C34.1681 26.8964 32.5283 26.9981 30.9014 26.9981V26.9541H35.7749Z" fill="#CDAF59"/>
<path d="M34.599 22.9476C33.8812 22.9238 33.1359 22.9083 32.4236 22.9476H32.3366C32.3348 22.9147 32.3458 22.879 32.3678 22.8689C32.3943 22.8561 32.4263 22.8597 32.4639 22.8597H34.4717C34.523 22.8597 34.5651 22.8579 34.5852 22.8899C34.5935 22.9046 34.5971 22.9275 34.599 22.9476Z" fill="#7B7E90"/>
<path d="M34.6584 23.7772C34.6062 23.866 34.5742 23.9117 34.4249 23.9108L32.5966 23.9053C32.549 23.9053 32.5178 23.8898 32.5068 23.8632C33.1587 23.8495 33.8133 23.8348 34.4689 23.8184C34.5321 23.8083 34.5934 23.7799 34.6584 23.7772Z" fill="#BDB178"/>
<path d="M34.4689 23.8184C33.828 23.9218 33.1614 23.8303 32.5068 23.8632C32.4968 23.8504 32.4968 23.8376 32.505 23.8239L34.4689 23.8184Z" fill="#53480D"/>
<path d="M34.5991 22.9476C34.7181 22.9458 34.7419 23.0346 34.7731 23.1216C34.6806 23.1481 34.6311 22.9614 34.5423 22.9605L32.4237 22.9467C32.4182 22.9302 32.4393 22.9037 32.4704 22.9037H34.4682C34.5259 22.9037 34.568 22.9302 34.5991 22.9467V22.9476Z" fill="#2A2B38"/>
<path d="M19.335 12.8636C18.8479 13.456 18.6373 12.5368 17.3702 12.7986C17.1541 12.8435 16.9243 12.7492 16.8327 12.5826C16.7265 12.3885 16.7357 12.1532 16.917 11.9993C17.3656 11.6185 18.7554 11.7283 19.2553 12.209C19.4412 12.3875 19.4787 12.6888 19.335 12.8636Z" fill="#0D4976"/>
<path d="M12.0601 11.7531C12.2643 11.7915 12.5105 11.7897 12.7129 11.7531C12.8548 11.7915 12.9793 11.819 13.1066 11.8739C13.3529 11.9801 13.47 12.2273 13.3831 12.4809C13.3107 12.6915 13.048 12.8307 12.7962 12.7611C11.8001 12.4846 11.4567 13.228 11.053 12.9607C10.8992 12.8591 10.7499 12.6704 10.8076 12.4571C10.9495 11.9307 11.8779 11.7531 12.061 11.7531H12.0601Z" fill="#0D4A74"/>
<path d="M12.8067 13.6684C13.1115 14.1042 13.0136 14.9438 12.5228 15.0784C12.3443 15.1269 12.1209 15.104 11.9946 14.953C11.6778 14.573 11.6668 14.0072 11.9588 13.619C12.0632 13.4798 12.2262 13.4075 12.3837 13.4121C12.5411 13.4166 12.6995 13.5137 12.8067 13.6675V13.6684Z" fill="#0D4A75"/>
<path d="M18.3068 14.8541C18.2134 15.0244 17.9919 15.1352 17.8426 15.1288C17.6504 15.1205 17.4636 15.0226 17.3739 14.8459C17.1999 14.5053 17.1953 14.0997 17.3592 13.7582C17.4553 13.5577 17.6357 13.4441 17.8234 13.4414C18.0358 13.4377 18.2363 13.5284 18.3361 13.7444C18.4973 14.0914 18.5046 14.4934 18.3068 14.8541Z" fill="#0D4975"/>
<path d="M12.7124 11.7531C12.7152 11.7869 12.6731 11.797 12.6273 11.797H12.1439C12.0981 11.797 12.056 11.7869 12.0587 11.7531H12.7115H12.7124Z" fill="#222410"/>
<path d="M17.8729 19.3944C17.5945 20.1808 16.8923 20.754 16.1296 20.9746C15.5345 21.1467 15.106 21.1788 14.4889 21.0469L14.1685 20.9783C14.0312 20.949 13.9076 20.8492 13.7803 20.8153C13.5908 20.7659 13.4992 20.678 13.3573 20.5626C13.1678 20.4097 12.9883 20.2788 12.8354 20.0829C12.5141 19.6718 12.2293 19.2598 12.2266 18.7223C12.2257 18.5099 12.2504 18.3479 12.4207 18.2224C12.6322 18.0677 13.057 18.2499 13.3124 18.3799C13.7867 18.6207 13.903 18.4001 14.2848 18.5969C14.8799 18.5731 15.4567 18.6225 16.0481 18.5612C16.2541 18.5401 16.6643 18.3579 16.9481 18.4294C17.1761 18.1913 17.5588 18.0714 17.86 18.1849C17.9159 18.2151 18.0148 18.3378 18.0523 18.3936C18.0596 18.5822 18.1054 18.8981 18.0386 19.0803C17.9598 19.1746 17.9223 19.2552 17.8729 19.3953V19.3944Z" fill="#0D4975"/>
<path d="M30.2447 16.0681C29.58 16.2558 29.8766 15.8941 29.3419 16.1716C29.2522 16.112 29.3291 15.972 29.3868 15.9207C29.536 15.9472 29.71 15.9472 29.8592 15.8685C29.818 15.7989 29.7814 15.7559 29.753 15.7705L29.6175 15.8401C29.5461 15.8767 29.5452 15.7586 29.5571 15.7C29.5672 15.6506 29.6111 15.6112 29.6596 15.5554C29.7173 15.4885 29.6294 15.419 29.5928 15.386C29.5315 15.3311 29.4472 15.4327 29.3667 15.4327C29.2421 15.4327 29.2604 15.1947 29.33 15.1406C29.3612 15.1535 29.3987 15.1882 29.4124 15.1928C29.4262 15.1974 29.4573 15.1983 29.4646 15.1718C29.4756 15.1315 29.4307 15.115 29.4042 15.0775C29.385 15.05 29.4573 15.0299 29.4765 15.0152C29.5177 14.9832 29.547 15.0427 29.6038 15.0674C29.6798 15.1003 29.6798 15.0042 29.6953 14.9401C29.7201 14.9557 29.7283 14.9832 29.7484 14.9914C29.7686 14.9996 29.8025 14.9502 29.8336 14.9374L29.9087 15.0994C29.8134 15.1333 29.7603 15.0518 29.742 15.1022C29.7164 15.1745 29.6322 15.2349 29.7008 15.2624C29.7988 15.1937 29.9105 15.288 29.9902 15.3219C29.8849 15.2771 30.0854 15.4043 30.0021 15.4409C29.9325 15.4721 29.9316 15.386 29.8363 15.3521C29.8125 15.3439 29.7539 15.3897 29.7668 15.4144L29.8199 15.5169C29.7722 15.5774 29.6532 15.668 29.732 15.7541C29.7805 15.7193 29.8849 15.7101 29.9645 15.6881C30.013 15.6744 30.0259 15.527 30.0936 15.5709C30.1888 15.6323 30.1751 15.7385 30.1998 15.8191C30.2135 15.8639 30.2978 15.874 30.2877 15.9161C30.2776 15.9582 30.3115 16.048 30.2438 16.0672L30.2447 16.0681Z" fill="#2EADF7"/>
<path d="M28.7023 15.0757C28.5924 15.0573 28.5457 15.0207 28.4807 14.9997C28.5128 14.8935 28.456 14.8294 28.4624 14.7021C28.5906 14.7442 28.705 14.7488 28.7701 14.6133C28.8113 14.5263 28.7655 14.3752 28.8946 14.3167C29.1244 14.7067 29.3075 14.4457 29.2068 15.0976C29.1326 14.9017 28.7728 14.7882 28.7133 14.866C28.6712 14.9218 28.6556 14.9649 28.7023 15.0757Z" fill="#2EADF7"/>
<path d="M28.0656 15.3558C28.051 15.3879 28.029 15.3265 28.0089 15.3137C27.9924 15.3027 27.9603 15.333 27.9301 15.3284C27.8496 15.2634 27.7882 15.1746 27.7607 15.0647C27.9201 15.1187 28.159 15.1489 28.0656 15.3549V15.3558Z" fill="#2EADF7"/>
<path d="M27.736 15.408C27.7955 15.4244 27.8211 15.3622 27.8367 15.3723C27.8559 15.386 27.8824 15.4208 27.877 15.4409C27.8467 15.5371 27.7039 15.4995 27.5922 15.473C27.5538 15.4638 27.519 15.3814 27.5647 15.3311C27.6206 15.2715 27.6829 15.3924 27.7369 15.4071L27.736 15.408Z" fill="#2EADF7"/>
<path d="M27.3901 15.7724C27.4304 15.7339 27.5119 15.6863 27.6044 15.6817C27.673 15.678 27.6492 15.8227 27.5961 15.8602C27.5339 15.9042 27.4863 15.8721 27.3901 15.7724Z" fill="#2EADF7"/>
<path d="M29.4457 14.8605C29.3715 14.9869 29.4127 14.8898 29.3779 14.7754C29.4466 14.7717 29.5537 14.7397 29.6489 14.7278C29.6791 14.7241 29.6984 14.8166 29.7295 14.8395C29.627 14.8459 29.551 14.7809 29.4457 14.8614V14.8605Z" fill="#2EADF7"/>
<path d="M24.5589 16.3281C24.5809 16.3556 24.6166 16.4517 24.5718 16.4444C24.4912 16.4307 24.4344 16.4545 24.3822 16.4261C24.3575 16.3821 24.3822 16.3528 24.4097 16.3428C24.4665 16.3226 24.5132 16.3245 24.558 16.329L24.5589 16.3281Z" fill="#21A2F2"/>
<path d="M28.6938 11.6294C28.659 11.5342 28.6709 11.4509 28.7771 11.5132C28.897 11.6954 28.9996 11.8858 29.0847 12.0845C29.0975 12.0909 29.2193 12.1156 29.2266 12.1147C29.2596 12.111 29.6276 11.6047 29.6194 11.5718C29.5169 11.4885 29.5516 11.3887 29.6405 11.3136C29.5782 11.2339 29.5553 11.1753 29.6688 11.1378L29.8703 11.2284L30.6009 11.9517C30.8353 12.1678 31.033 12.1266 31.2619 11.9371L32.7854 10.3834C33.3521 9.67838 32.4503 9.19405 32.0319 9.85509L31.9312 9.83861C31.8918 9.86607 31.8351 9.86699 31.8277 9.82945C31.7911 9.63993 32.2608 9.27828 32.4531 9.27371C32.508 9.07045 32.6197 8.93953 32.79 8.88184C32.8257 8.76648 32.8797 8.69232 32.952 8.65845C33.6195 9.22243 33.9738 10.0153 33.9289 10.886C33.8877 11.6926 33.4858 12.4672 32.8083 12.9689C32.2901 13.3525 31.6849 13.4944 31.022 13.4496C29.9508 13.3773 29.0142 12.6311 28.6938 11.6267V11.6294Z" fill="#2EADF6"/>
<path d="M32.9517 8.66119C32.9298 8.82508 32.8932 9.01368 32.6817 8.99904C32.6286 9.13271 32.5626 9.22335 32.4967 9.34329C32.3264 9.32864 31.7762 9.79832 31.9309 9.84044L31.908 9.99883C31.6178 10.3513 31.3001 10.6727 30.9531 10.9629C30.748 10.8714 30.5722 10.7203 30.4248 10.5097C29.9963 10.127 29.4973 10.5628 29.7244 11.0591L29.6676 11.1387C29.6374 11.1991 29.7235 11.2486 29.7235 11.3154C29.7235 11.3822 29.6154 11.4097 29.6411 11.5123C29.7509 11.4802 29.8306 11.406 29.9084 11.5058C29.9551 11.5644 29.9753 11.6798 29.913 11.7439C29.8947 11.5837 29.8013 11.6102 29.7033 11.6185C29.6402 11.624 29.6576 11.7118 29.6109 11.7704L29.197 12.2887C29.1586 12.2282 29.1622 12.2026 29.1577 12.1678C29.1448 12.0808 29.1256 12.2063 29.0432 12.2346C28.9489 11.9252 28.8491 11.8309 28.699 11.5351C28.6651 11.5763 28.7072 11.6056 28.6926 11.6285C28.2879 10.6251 28.5662 9.56028 29.317 8.81959C29.7555 8.38652 30.2582 8.16954 30.8624 8.09721C31.6471 8.00382 32.3694 8.16862 32.9508 8.66028L32.9517 8.66119Z" fill="#22A2F2"/>
<path d="M14.1923 19.3321C14.7957 19.3321 15.4054 19.3184 16.0198 19.2882C16.4217 19.2882 16.8236 19.1966 17.2137 18.9897C16.9298 19.6699 16.3164 20.1195 15.692 20.2706C14.6382 20.5251 13.5999 20.0453 13.0625 19.0144C13.4415 19.1893 13.8096 19.3175 14.1923 19.3321Z" fill="#F0C396"/>
<path d="M16.0197 19.2881C15.6389 19.387 15.1106 19.3651 14.6913 19.3504L14.1923 19.3321C14.1868 19.3165 14.2078 19.2881 14.239 19.2881H16.0197Z" fill="#162634"/>
<path d="M29.6698 11.1397C29.5755 10.9749 29.5425 10.7185 29.645 10.5409C29.7403 10.3761 29.9115 10.2946 30.0625 10.2763C30.4819 10.2268 30.6412 10.7396 30.9406 10.8897C31.3297 10.5198 31.6053 10.2168 31.9321 9.84048L32.1042 9.6418C32.2352 9.49165 32.4439 9.41749 32.638 9.46601C32.8111 9.50904 33.0088 9.63722 33.0537 9.85329C33.1004 10.0813 32.9923 10.3001 32.8312 10.4658L31.3242 12.0012C31.0999 12.2301 30.7868 12.253 30.5423 12.0168C30.2438 11.7284 29.9408 11.4418 29.6698 11.1387V11.1397Z" fill="#0D4976"/>
</g>
</svg>
