<svg width="40" height="40" viewBox="0 0 40 40" fill="none" xmlns="http://www.w3.org/2000/svg">
<g clip-path="url(#clip0_685_3601)">
<path d="M20.0005 39.776C31.0464 39.776 40.0009 30.8719 40.0009 19.888C40.0009 8.90417 31.0464 0 20.0005 0C8.95451 0 0 8.90417 0 19.888C0 30.8719 8.95451 39.776 20.0005 39.776Z" fill="white"/>
<mask id="mask0_685_3601" style="mask-type:luminance" maskUnits="userSpaceOnUse" x="0" y="0" width="40" height="39">
<path d="M20.0003 38.8529C30.5335 38.8529 39.0724 30.362 39.0724 19.888C39.0724 9.41401 30.5335 0.923157 20.0003 0.923157C9.46708 0.923157 0.928223 9.41401 0.928223 19.888C0.928223 30.362 9.46708 38.8529 20.0003 38.8529Z" fill="white"/>
</mask>
<g mask="url(#mask0_685_3601)">
<path d="M22.0099 2.24325C22.0713 2.20865 22.1345 2.17861 22.2004 2.15949C22.5611 2.0557 23.6982 2.56281 24.1029 2.75763C24.7511 3.06809 25.6694 3.51146 25.9441 4.15057C26.0082 4.11142 26.0787 4.08593 26.1538 4.09686C26.2728 4.11415 26.7049 5.01091 26.7571 5.19664C27.6315 5.41241 28.2696 6.07246 28.6322 6.87271C28.8034 7.25053 29.0415 7.79496 28.7952 8.15093C29.0012 8.33302 29.0836 8.58884 29.0433 8.9175C29.0323 10.0036 28.9911 11.0797 28.9188 12.1458C29.2932 12.3452 29.5917 12.6174 29.8142 12.9634L29.6924 13.14C29.8618 13.1646 29.9021 13.2447 29.9552 13.3758C30.5704 14.8944 29.383 18.862 27.1316 18.475C26.9256 19.5848 26.7663 20.7119 26.6537 21.8581C26.9439 22.0848 27.0785 22.3252 27.0556 22.5801L27.2671 22.5491C27.5207 23.0162 27.8595 23.394 28.2834 23.6817C28.7219 24.4974 29.3665 24.7341 30.2006 25.0155L30.2436 25.2376C30.5054 25.2731 30.7728 25.3141 31.0145 25.4251C31.9456 25.8512 32.885 26.2982 33.8033 26.7507C34.0413 26.8682 34.2428 27.0457 34.4369 27.225C34.6923 26.9965 35.3204 27.4918 35.5621 27.7057C35.9851 28.079 36.8366 29.1788 36.9409 29.7114C36.9638 29.8288 36.9547 29.8971 36.9043 30.0237C36.9647 30.2076 36.7276 30.5854 36.55 30.6673L36.3202 30.6209C36.1737 30.2649 35.0942 28.2019 34.7134 28.4068C34.2812 28.6389 33.4819 30.1529 33.308 30.6728C32.8191 32.1276 32.5288 33.6935 32.3512 35.1912L32.256 35.3723C32.4464 35.5854 31.7268 36.1189 31.5061 35.9423L31.3212 35.8166C31.5666 33.1236 31.9758 30.0428 33.8106 27.9388C32.2276 27.1477 30.6226 26.3747 28.9966 25.62C29.2447 26.534 29.4205 27.4517 29.5221 28.3731L29.3115 28.5816L28.0728 29.0404L28.84 29.5867C29.0625 29.8452 29.0378 30.162 28.7659 30.5371L25.9441 35.1311C27.2341 35.0346 28.5388 34.9827 29.8563 34.9754C30.4523 35.0537 30.3425 35.7074 29.8636 35.8767C28.3392 35.9978 26.7992 36.0661 25.2446 36.0816C24.4545 37.1877 23.6891 38.3184 22.9493 39.4719L22.5977 39.6458C22.6609 39.9199 21.912 39.9881 21.8314 39.7278C21.8277 39.4519 21.9001 39.1961 22.0694 38.9767C24.1633 36.0734 26.065 33.1209 27.7752 30.1192C27.1746 29.8115 26.7754 29.4037 26.5777 28.8957C26.6317 28.3257 27.9675 27.9661 28.4711 27.876C28.222 26.8126 27.9831 25.7429 27.7551 24.6677C27.6022 24.4046 27.3815 24.1897 27.0931 24.0213C26.1721 26.6278 25.7116 27.9315 25.7116 27.9315L20.6311 39.7269L20.3976 39.807C20.3491 40.0555 19.9444 40.0719 19.8932 39.8161L19.7421 39.6868L20.3546 37.7021L19.8529 30.5608C19.4702 30.5098 19.103 30.4616 18.7496 30.4142C18.0932 32.7831 17.5466 35.1775 17.1098 37.5956C17.1922 38.2229 17.3415 38.8401 17.5566 39.4474L17.4083 39.6385C17.4184 39.918 16.7409 39.8443 16.7152 39.5757L16.4983 39.4592C15.1762 34.8042 14.495 29.8935 14.582 24.9454C14.4501 24.8388 12.6959 27.5865 12.7161 27.754C13.2425 27.9597 13.6206 28.2547 13.8514 28.6389L13.7937 28.8902C13.356 29.3454 12.8278 29.6959 12.2088 29.9426L12.5018 31.0652C13.4137 33.791 14.4291 36.4312 15.5488 38.9858C16.0414 39.126 16.0148 39.3937 15.5278 39.3927C15.4875 39.4146 15.449 39.4301 15.4179 39.421C15.2174 39.3645 14.7385 39.2289 14.5801 39.1615C14.549 39.1487 14.5335 39.0996 14.5225 39.0404C13.1583 36.0706 11.979 33.0053 11.0461 29.8825L11.0735 29.5603C11.4114 29.1988 11.8408 28.912 12.3636 28.6999C11.5963 28.3977 11.3143 27.9962 11.5176 27.4945L12.2354 26.3911C11.1898 26.8982 10.1241 27.3425 9.04008 27.7239C8.37355 28.0426 8.25361 28.3312 8.1117 29.0295C7.83612 30.9951 7.70428 32.9688 7.71709 34.9508C7.6878 35.1821 7.62371 35.3487 7.38566 35.2139C7.25382 35.274 7.09726 35.0573 7.03683 34.9217C6.95168 34.9545 6.92147 34.9281 6.94528 34.8407C6.87661 34.7678 6.81343 34.6877 6.76949 34.5976C6.70174 34.5002 6.68251 34.4301 6.68434 34.3199C6.70998 32.5328 6.84365 30.7138 7.15128 28.9494C6.30987 30.1684 5.8759 31.6706 5.58566 33.1063L5.38607 33.3066L4.84589 32.6666L4.73145 32.3407C4.95026 31.3629 5.26613 30.416 5.68088 29.5002L5.96105 29.2917C6.01873 28.8083 6.40692 28.2256 6.79146 27.8514C7.0524 27.5974 7.70885 27.1012 8.03388 27.3106L8.00916 27.1886C9.86043 26.2755 11.7428 25.4106 13.6573 24.5939L14.2707 23.9521C13.91 23.5251 13.606 23.0544 13.3982 22.5337C13.1436 22.5064 12.8891 22.5491 12.6355 22.663L12.4341 22.5728C12.1887 22.6739 11.9543 22.7922 11.7327 22.9297C11.1569 23.13 9.11974 23.6462 8.55209 23.6517C7.20346 23.6644 6.39411 22.4645 6.85738 21.2154C6.57722 20.7247 7.32706 20.1802 7.75921 19.9636C7.96613 19.8598 8.55117 19.6413 8.67294 19.8753C8.72238 19.7451 8.90824 19.6731 9.04283 19.6294L12.3215 19.0823L12.0834 16.616C12.1292 16.3064 12.1805 15.9932 12.2381 15.6746C12.0834 15.62 11.9955 15.4597 11.9745 15.1939C11.6055 14.5147 11.4801 13.7718 11.4352 13.0089C10.3493 12.358 10.7275 11.453 11.9204 11.2882C11.7886 10.9614 11.8014 10.7247 11.9598 10.5781L11.7758 10.4024C11.5799 8.51965 11.4718 6.29824 13.2233 5.06736C14.0674 1.38928 18.9062 1.52857 21.8744 2.02748L22.0081 2.2387L22.0099 2.24325Z" fill="#2D4A5D"/>
<path d="M16.3502 0.669172C16.6633 0.630024 16.8657 0.660068 16.5562 0.931372L15.5143 1.13622C14.4779 2.13312 13.4268 3.11637 12.3611 4.08505C8.65218 7.81957 4.91943 11.5696 1.1638 15.3341C1.15647 15.7229 0.738975 15.7074 0.897368 15.3105C0.868985 15.224 0.844265 15.1366 0.832363 15.0483C0.82046 14.96 0.810389 14.8762 0.829616 14.8006C1.70764 11.4494 3.38312 8.79281 5.63998 6.20905C5.85056 5.96779 6.19206 5.62365 6.48687 5.6892L6.93184 5.23581C9.41484 2.70486 12.8317 1.31101 16.3502 0.669172Z" fill="#4BABF0"/>
<path d="M12.4359 22.5756C12.6163 22.8041 12.2555 23.0408 12.0541 22.9725C12.0102 23.1865 11.8911 23.384 11.697 23.5652C10.5233 24.6613 9.36511 25.7866 8.2234 26.9428L8.03571 27.3125C6.7228 27.9015 6.84548 28.0818 5.96288 29.2935L5.83653 29.2407C5.73857 29.3891 4.62433 30.661 4.53369 30.63C4.47418 30.61 4.4165 30.5827 4.35973 30.5526C4.4165 30.5781 4.47326 30.6054 4.52545 30.6382C4.5813 30.6728 3.8461 31.5532 3.54854 30.8585C2.77581 29.8643 2.29789 28.6954 1.71559 27.5774C1.41895 27.5683 1.36127 27.205 1.54896 27.0157C1.42993 26.6133 1.50592 26.555 1.86116 26.372C3.48445 24.8662 5.06838 23.2292 6.55342 21.5859C6.57814 21.3501 6.68068 21.2272 6.86105 21.2172C6.83816 21.5459 6.84274 21.8882 6.92697 22.2296C7.16227 23.1764 8.03114 23.6426 8.96409 23.4168L12.4377 22.5756H12.4359Z" fill="#5DB5F2"/>
<path d="M6.76971 34.5994C6.21121 34.2981 5.79097 33.7864 5.38721 33.3085C5.42383 32.5728 5.69209 31.8664 5.92556 31.1253C6.27164 30.0273 6.7221 28.9967 7.57265 28.2092C6.97845 30.0364 6.95099 32.2943 6.88598 34.2171C6.82922 34.3564 6.92993 34.5858 6.76971 34.5994Z" fill="#286595"/>
<path d="M5.96219 29.2944C5.52638 30.3997 5.03106 31.4922 4.84703 32.6693C4.36545 32.0994 3.99648 31.4366 3.54785 30.8594C3.60919 30.9022 3.66413 30.9723 3.72639 31.0006C3.96626 31.108 4.4744 30.4325 4.35538 30.5517L5.63991 29.2726C5.76168 29.1515 5.78365 28.9421 5.99423 28.9585C5.97775 29.085 5.99515 29.2098 5.96219 29.2953V29.2944Z" fill="#4AAAEF"/>
<path d="M38.5616 13.4978C38.7566 13.5088 38.7896 13.6016 38.6605 13.7755L38.6742 13.8638L38.8711 13.8957L39.3618 15.7848C39.3343 15.9341 39.2739 16.0943 39.1805 16.2655L39.1686 16.4913C38.2311 17.3771 37.3384 18.3021 36.4888 19.2671C35.6272 20.01 34.7703 20.7548 33.917 21.4995C33.9298 21.565 33.8776 21.6916 33.8373 21.7316C32.6974 22.8651 31.5383 24.0313 30.4616 25.2568L30.2446 25.2358C29.7447 24.98 29.0727 24.8808 28.6378 24.4565C28.397 24.2216 28.3 23.8502 27.9667 23.6626C27.5163 23.4095 27.3624 22.9197 27.0566 22.5783L26.9761 22.3043C30.3975 18.7264 33.8986 15.1994 37.4776 11.7253L37.7321 11.6888L38.5625 13.4969L38.5616 13.4978Z" fill="#4AABF0"/>
<path d="M35.3417 7.89971L36.0989 8.73274C36.2042 8.93849 36.2582 9.15972 36.4615 9.31358C36.7728 9.25805 36.8213 9.52298 36.727 9.77881C37.0932 10.4015 37.4301 11.0388 37.7295 11.6907C37.4292 12.124 37.0135 12.45 36.6134 12.846L33.3193 16.1053C33.0318 16.3893 32.7763 16.6397 32.4952 16.9201L29.3832 20.0173L27.2271 22.2287C27.1264 22.3325 27.1246 22.4991 27.0541 22.5802L26.4773 21.9365C26.4663 20.5599 26.9002 19.6504 26.9067 18.2557C28.4759 18.598 29.429 17.124 29.7037 15.7912C29.8859 14.9044 29.993 13.9704 29.6918 13.1401C29.765 12.9653 29.9189 12.8041 30.1532 12.6566C31.7005 10.9897 33.3312 9.40007 35.0442 7.88696L35.3408 7.90153L35.3417 7.89971Z" fill="#5DB5F2"/>
<path d="M39.4817 17.3908C39.7454 17.439 39.7591 17.8287 39.5394 17.917L39.5568 18.039C39.7563 18.0763 39.7161 18.2001 39.5687 18.313C39.6685 18.3622 39.8049 18.4996 39.7573 18.5798C39.6126 18.8228 39.5998 18.9193 39.6273 19.2216C39.6895 20.1684 39.6089 21.1098 39.521 22.0484L39.359 22.4463C37.798 24.0878 36.2021 25.6874 34.5715 27.246L34.4369 27.2241C33.0169 26.6196 31.617 25.9414 30.2437 25.2367C30.6978 24.6604 31.7498 23.5188 32.3339 23.0399C32.6031 22.8186 32.755 22.47 33.0407 22.2624C33.3602 22.0302 33.6706 21.7999 33.7814 21.3902C34.2126 21.1672 34.4415 20.7711 34.7931 20.4734L36.2754 19.2189C36.5244 19.0086 36.6169 18.7409 36.8503 18.5233L37.6908 17.7404C38.3977 17.0821 38.5084 16.6916 39.1795 16.2664H39.2418C39.5668 16.2482 39.5604 17.1413 39.4817 17.3908Z" fill="#5CB4F2"/>
<path d="M39.5224 22.0485C39.4491 22.8314 39.3072 23.73 39.1918 24.4929L39.1085 24.7579C39.2468 24.929 39.2495 25.163 39.1158 25.4589C38.9629 25.793 38.8064 26.1089 38.6471 26.4084L37.8212 28.3067C38.0684 28.4168 37.9064 28.8593 37.6436 28.8247C37.5392 29.0086 37.3689 29.1743 37.3039 29.391C37.3195 29.6004 37.0961 30.0018 36.9057 30.0228C36.4799 29.2762 36.1796 28.4168 35.4499 27.8469C35.1588 27.6202 34.7578 27.3607 34.4382 27.2242C34.5563 27.2305 34.5216 27.1878 34.3833 27.1086C34.9555 26.5805 35.5662 26.0634 36.1531 25.468L37.5173 24.0832C38.1994 23.3904 38.9025 22.754 39.5224 22.0494V22.0485Z" fill="#4BABF0"/>
<path d="M23.5685 0.667343C23.3561 1.14986 22.9917 1.5905 22.4762 1.98744L22.3114 2.01658C22.261 2.19411 22.1603 2.26967 22.0093 2.24327C19.2974 1.70431 14.0484 1.54954 13.3718 5.1657C12.7822 5.57448 12.394 6.1271 12.1569 6.7826C11.5883 8.35398 11.971 9.25529 11.961 10.5827L11.9033 10.7984C11.3237 11.3174 10.8147 11.89 10.3752 12.5164C10.1509 12.4399 10.0987 12.47 10.2196 12.6056C9.39189 13.3676 8.59169 14.157 7.81804 14.9727C7.63768 15.1593 7.45914 15.214 7.28061 15.1366C6.81825 15.2185 6.77522 14.4246 6.78712 14.0623C6.98671 13.0827 7.31265 12.1286 7.76494 11.2008C7.81163 11.0352 7.76128 10.7966 7.5919 10.9723C6.36138 12.2496 4.88275 14.4456 6.10869 16.1508L6.0803 16.4084L6.07481 16.7098C4.35905 18.4887 2.63047 20.2449 0.889066 21.9774C0.717856 22.0712 0.566788 22.1832 0.434032 22.3143C0.079709 22.3052 0.556717 21.9401 0.280217 21.403C0.0906958 21.382 0.103514 21.2254 0.274724 21.1617L0.256413 19.411C0.255497 19.3172 0.128234 19.2425 0.135558 19.1788C0.144714 19.1005 0.253666 19.0395 0.275639 18.9439C0.351631 18.6253 0.317755 18.3276 0.35804 18.0463C0.224368 17.9935 0.217959 17.7941 0.377267 17.7686C0.500868 17.2933 0.541152 16.7981 0.624469 16.3146C0.550308 16.0015 0.611651 15.6664 0.808497 15.3077C0.837795 15.295 0.866177 15.2986 0.89456 15.3105C0.901884 15.3423 0.890897 15.3988 0.908293 15.4397C0.99344 15.6355 1.00992 15.2476 1.01175 15.2458C1.5208 14.7606 1.97859 14.2744 2.43454 13.7491C2.7504 13.3849 3.17706 13.1573 3.46454 12.7822C3.9855 12.1022 4.65386 11.6142 5.23158 10.9987C5.78641 10.4079 6.29821 9.8243 6.88508 9.28169C7.39871 8.80554 7.90044 8.35671 8.38844 7.85962L10.5107 5.69739C10.8074 5.39513 11.0408 5.09378 11.3604 4.81064C11.8181 4.4046 12.4059 3.71996 12.7758 3.49327C13.1457 3.26658 13.3755 2.87146 13.695 2.57739L15.4309 0.979615L16.6138 0.734714C16.5131 0.609987 16.4069 0.711043 16.3465 0.670985C18.7325 0.235806 21.1798 0.151138 23.5648 0.669164L23.5685 0.667343Z" fill="#5DB5F2"/>
<path d="M31.508 35.9404C31.0429 36.2937 30.5705 36.7553 30.0459 37.0384L28.5187 37.8642C26.6995 38.8474 24.6633 39.4246 22.5996 39.644C22.8514 39.3427 23.0162 38.9739 23.2561 38.6289L24.6065 36.6888C24.7713 36.4521 24.937 35.9951 25.2099 35.9059C25.7739 35.9113 26.2957 35.9131 26.8524 35.8785L29.8866 35.6919C30.0413 35.6828 30.1484 35.1975 30.012 35.163C28.938 35.0956 27.8668 35.2276 26.8084 35.2522C26.4001 35.2622 26.0275 35.4015 25.6045 35.2312C26.0403 34.6686 26.3964 34.0941 26.7618 33.4851L28.2981 30.9259C28.5187 30.559 28.8025 30.2449 28.8364 29.8052L27.6755 28.9785L29.0461 28.4741C29.1798 28.425 29.3125 28.4222 29.3565 28.3075C29.4608 28.0399 28.7714 25.9295 28.7861 25.3132L32.7944 27.2205C33.2348 27.4299 33.6944 27.5737 34.1101 27.8441L33.2311 29.0022C32.3458 30.1675 31.4513 34.4537 31.5071 35.9395L31.508 35.9404Z" fill="#286493"/>
<path d="M11.9618 10.5827C11.9599 10.8449 12.1641 11.1489 12.0872 11.4567C11.634 11.5368 11.0242 11.5832 10.973 12.1832C10.9281 12.7048 11.6157 12.5774 11.6413 13.1136C11.7274 14.9226 12.2291 14.776 12.2401 15.6783C12.2172 15.9341 12.1705 16.1917 12.1 16.4512C11.0563 17.5328 10.0235 18.6052 9.00176 19.6695L8.67491 19.878L8.04958 20.0573C7.41326 20.2394 7.05985 20.6637 6.86026 21.2181C6.67074 21.7434 6.85202 21.5996 6.22944 22.2378L5.13992 23.3549C4.67481 23.8319 4.26464 24.3336 3.78947 24.787L2.13596 26.3638C1.96658 26.5258 1.83199 26.6824 1.56282 26.6879C1.64888 26.819 1.56648 26.9374 1.55 27.0175C1.51338 26.9965 1.49049 26.941 1.4502 26.9264C1.23322 26.5841 1.13617 26.2627 1.15905 25.9614L0.637184 24.0422C0.552953 23.8301 0.294764 22.937 0.334133 22.8132C0.350613 22.7604 0.385405 22.713 0.424774 22.6666C0.4028 22.551 0.417449 22.429 0.436676 22.3152C0.438507 22.2014 0.424774 22.0675 0.50809 21.9547C0.550206 21.8982 0.704936 21.91 0.781843 21.8345L1.43189 21.1981C1.88326 20.7556 2.25224 20.2777 2.73748 19.8816C3.26027 19.4547 3.65396 18.9011 4.13005 18.4077C4.84236 17.6684 5.47044 17.2132 6.08203 16.4102L6.26972 16.3301C7.3684 16.9929 7.41784 17.9479 7.00675 19.0614C6.91977 19.5011 6.88407 19.7951 7.29882 19.3418C8.37185 18.1691 8.60624 16.8372 7.33819 15.6691C7.13859 15.4452 7.11937 15.2686 7.28142 15.1384C7.37664 14.9954 7.58905 14.9563 7.72364 14.8134C7.69709 14.8416 10.5124 11.921 10.1929 12.4718L10.43 12.063C10.3028 12.2824 11.9178 10.3587 11.9627 10.5836L11.9618 10.5827Z" fill="#4AABF0"/>
<path d="M19.4962 11.7443C19.3625 12.0703 18.4881 11.5905 17.8628 11.8354C17.2375 12.0803 17.5799 11.2463 16.8181 11.016C16.0738 10.7911 15.3111 10.6464 14.5274 10.5954C13.6686 10.5399 13.6576 11.2482 13.0698 11.3246L13.3353 9.59212C13.5056 8.4805 13.8957 7.46357 14.3919 6.43753C16.4336 6.76528 17.4874 6.96375 19.5483 6.39474C21.9691 5.72559 22.7363 6.69336 24.9593 6.56226C24.6279 7.84867 24.844 9.00672 25.4089 10.1402C25.6689 10.6619 25.9921 11.1517 26.0269 11.7844C25.5801 11.5868 25.2267 11.3556 24.7497 11.4111C24.1152 11.4849 24.1344 10.4315 22.8306 10.549C21.8839 10.6345 20.9601 10.8184 20.0666 11.0961C19.7232 11.2026 19.6207 11.4394 19.4952 11.7443H19.4962Z" fill="#E0B88B"/>
<path d="M14.5225 39.0413C14.5069 39.096 14.4895 39.1397 14.4648 39.1451C14.3275 39.1734 13.3826 38.781 13.2196 38.6663C13.162 38.6499 13.1116 38.6071 13.0558 38.5852C12.6364 38.5388 12.2089 38.4095 11.7703 38.1965C10.3494 37.4499 8.99249 36.6078 7.70063 35.671L7.38477 35.2167C7.534 35.1375 7.54041 34.9299 7.54682 34.7387C7.59077 33.4359 7.55689 28.6826 8.36625 27.9461C8.9577 27.4081 9.82932 27.3106 10.5251 26.9802C11.2576 26.6333 11.915 26.2819 12.7078 26.0342L11.6751 27.5874C11.5927 27.7112 11.5725 27.8341 11.6192 27.9634C11.6742 28.1127 12.5806 28.6298 12.782 28.7154C12.2574 28.9239 11.8555 29.1988 11.3766 29.4492C11.2246 29.5284 11.188 29.7733 11.2448 29.9463L12.4826 33.6863C12.6831 34.2935 14.2341 37.998 14.549 38.6535C14.625 38.811 14.6488 38.9512 14.5207 39.0413H14.5225Z" fill="#286494"/>
<path d="M21.8332 39.726C21.3544 39.777 20.8856 39.8598 20.4004 39.8061L22.2672 35.4689L25.4479 28.09C26.0769 26.6306 26.5429 25.2304 26.9934 23.6909C27.2845 23.9904 27.8219 24.2134 27.9446 24.6513C28.2468 25.7265 28.3685 26.8227 28.6166 27.9316C27.9996 28.2065 27.4026 28.3358 26.8496 28.6836C26.6345 28.8192 26.8542 29.2143 27.0098 29.3281L28.0563 30.0956L25.8013 33.7946C24.5213 35.8941 23.029 37.6575 21.8342 39.7251L21.8332 39.726Z" fill="#286494"/>
<path d="M16.451 22.1076C16.2725 21.8727 16.7458 21.6042 16.9775 21.5932L17.1826 21.4212C17.7941 21.4985 18.4048 21.5122 19.0155 21.463L19.2426 21.6069C19.4742 21.5969 19.6765 22.0193 19.6326 22.2287C19.5978 22.3006 19.5703 22.3826 19.5786 22.4445C19.6262 22.8114 20.3843 22.7859 20.8942 22.4426C21.6267 21.9492 21.9719 21.0397 21.8016 20.1102C21.6349 19.2016 20.5949 18.6307 19.7132 18.8128C19.1757 18.6316 18.6749 18.557 18.1512 18.7627C17.2897 18.5333 16.4245 18.6617 15.605 18.9995C15.475 19.0532 15.3185 19.0714 15.2013 18.974C15.4604 18.4714 15.9887 18.089 16.614 18.0117C17.9397 17.8487 19.2902 17.9425 20.5811 18.2675C22.4626 18.7418 21.884 20.6327 22.404 20.8831C22.7107 21.0315 23.9092 20.3578 24.1784 20.0965C25.4144 18.8948 25.1708 19.299 26.0763 17.7094C26.2027 17.4873 26.1047 17.2178 26.2832 17.033C26.1807 17.6821 26.2851 18.9448 26.2036 19.3254C25.863 20.9241 24.9218 22.3935 23.5759 23.3094C23.0614 23.659 22.5908 24.0022 22.0222 24.2325C20.6113 24.8024 19.0833 24.9381 17.5808 24.8143C16.1315 24.6941 14.5979 23.5433 14.1035 22.1167C14.3754 21.9783 14.6648 21.9192 14.9669 21.8163C15.2654 22.1877 15.7396 22.7404 16.2194 22.5064C16.3631 22.4363 16.3512 22.2214 16.4501 22.1085L16.451 22.1076Z" fill="#5D473C"/>
<path d="M23.8047 5.80209C21.286 4.99182 20.6378 5.40333 18.141 5.89859C17.2694 6.07157 16.4115 5.94776 15.5262 5.84761C15.0803 5.79663 14.5227 5.89859 14.1867 5.56811C13.9029 5.28862 14.0393 4.72234 14.2755 4.40642C14.9265 3.53425 15.908 2.98891 17.014 2.78224C18.4395 2.5164 19.9154 2.52278 21.3318 2.81411C22.3069 3.0144 23.248 3.20741 24.0876 3.69357C24.7715 4.08869 25.4298 4.45832 25.8611 5.11291C25.9453 5.24127 25.9966 5.39058 25.9609 5.49437C25.8098 5.93956 24.5115 6.02969 23.8047 5.80209Z" fill="#5B463C"/>
<path d="M35.3417 7.89971C34.8647 8.22837 34.406 8.58161 34.0096 9.05593C33.7056 9.4201 33.2424 9.64042 32.9714 10.0273C32.6839 10.4379 32.3268 10.7047 31.9771 11.0443C31.7253 11.2883 31.5174 11.5414 31.2409 11.7717C30.8189 12.1231 30.0782 13.2001 29.6936 13.1391C29.5536 12.7531 29.0967 12.4536 28.7305 12.2661L28.8486 10.0501C28.8834 9.39006 28.8797 8.76096 28.7964 8.15098L28.8596 7.83962C29.907 6.82997 30.9608 5.82851 32.0228 4.83707C32.0009 4.6477 32.0741 4.57032 32.2096 4.6996C33.3559 5.63277 34.3465 6.8063 35.3427 7.90062L35.3417 7.89971Z" fill="#4BAAF0"/>
<path d="M18.761 16.8081C18.4112 16.86 16.7623 17.032 16.9528 16.3702C17.2778 15.2422 17.5268 14.0577 17.7887 12.9279C18.0679 12.7212 18.6639 12.7176 18.9304 12.9243C19.2389 14.2343 19.6601 15.7101 21.1653 16.1007C22.0872 16.3401 23.1062 16.3319 23.966 15.8895C24.5464 15.5909 24.8119 14.9891 25.0271 14.3973C25.2194 13.8693 25.1434 13.2648 25.3732 12.7522C25.592 12.6202 26.0562 12.7249 26.2613 12.8878C26.2695 16.2691 25.9427 18.5442 22.6311 20.2932C22.5011 17.8705 20.6342 17.5947 18.7592 17.4272C18.9789 17.3088 19.3735 17.2232 19.336 16.9437C19.3122 16.7689 18.9166 16.7853 18.7619 16.8081H18.761Z" fill="#E0B88B"/>
<path d="M16.7165 39.5757C16.3146 39.5393 15.9154 39.339 15.5282 39.4838C15.4485 39.4583 15.4494 39.4273 15.5282 39.3927C15.5913 39.3026 15.7122 39.3236 15.8037 39.2507C15.6957 39.1633 15.5474 39.248 15.4421 39.207L13.8353 35.3387C13.09 33.5442 12.4619 31.7644 11.9858 29.8662C12.2175 29.6731 14.0422 28.9912 13.6055 28.5069C13.3216 28.1928 12.8355 28.1446 12.5031 27.8132C12.7558 27.1167 13.2218 26.5031 13.6439 25.8913C13.9845 25.3978 14.2372 24.8734 14.814 24.563C14.7389 28.0763 14.9596 32.5064 15.7918 35.8576L16.7156 39.5748L16.7165 39.5757Z" fill="#286594"/>
<path d="M19.8953 39.8152C19.064 39.8453 18.2308 39.7133 17.4096 39.6386C17.2997 38.9831 16.9216 38.2875 16.9298 37.5811C17.2933 35.0929 17.9745 32.7358 18.6364 30.3078C19.1537 30.2722 19.5346 30.3014 20.0253 30.3797L20.5353 37.7258L19.8944 39.8152H19.8953Z" fill="#BF482E"/>
<path d="M28.594 2.33612C29.9307 2.90331 31.1063 3.80189 32.2095 4.69865C31.9861 4.60306 32.2855 4.83339 32.3459 4.92626C32.1262 4.95994 31.9706 5.06646 31.803 5.23489L30.6714 6.37291L28.7954 8.15004C28.6224 6.88547 28.0126 5.72742 26.6539 5.33503C26.4314 4.96904 26.2739 4.41733 25.9443 4.15058L26.1101 3.77731C26.7235 3.19738 27.3415 2.63383 27.9641 2.08667C28.1692 2.1941 28.3797 2.27695 28.594 2.33521V2.33612Z" fill="#5CB5F2"/>
<path d="M36.551 30.6665C36.4438 30.986 36.2287 31.3311 35.976 31.5723C35.8451 31.6106 35.7544 31.8272 35.7086 31.9392C35.3369 32.5182 34.8892 33.0517 34.3509 33.4878C34.0707 33.8192 33.7631 34.1279 33.4298 34.4155C32.9986 34.6677 32.6562 35.0692 32.2579 35.3724C32.235 35.3269 32.1315 35.2313 32.1489 35.122C32.3723 33.7191 32.5957 32.3525 33.0077 30.9997C33.3025 30.0328 33.7429 29.2007 34.4232 28.4733C34.5367 28.3522 34.5953 28.2047 34.7656 28.2184C35.4349 28.2712 36.2735 30.1475 36.551 30.6683V30.6665Z" fill="#276392"/>
<path d="M22.3609 15.6191C20.5288 15.5499 20.0381 14.7688 19.6911 12.9935C19.6169 12.6138 19.8266 12.328 20.2038 12.2406C21.0974 12.0339 23.8633 11.6816 24.5243 12.3544C24.69 12.8387 24.495 13.354 24.463 13.8183C24.3806 15.0137 23.5364 15.6637 22.3599 15.6191H22.3609Z" fill="#285D88"/>
<path d="M14.5742 15.6045C13.3812 15.6719 12.4876 14.9854 12.3429 13.8429C12.2825 13.3631 12.1507 12.8514 12.3237 12.3735C12.3924 12.1832 12.6771 12.1213 12.8657 12.1085L14.6364 11.9929C15.4449 11.9401 16.224 12.1058 16.9821 12.4199C16.9821 13.2966 16.8374 14.1652 16.3723 14.8716C15.9805 15.4671 15.2801 15.5636 14.5742 15.6036V15.6045Z" fill="#285E88"/>
<path d="M23.3132 29.665C22.4819 28.7864 21.7448 27.9306 20.8394 27.1213C23.066 26.1799 24.8459 24.6522 26.3895 22.8624C26.417 23.3139 26.3263 23.699 26.2091 24.1096C25.7962 25.5545 25.2679 26.9137 24.6554 28.2921L23.3132 29.6659V29.665Z" fill="#F7F3ED"/>
<path d="M28.0923 12.1222C27.716 12.1923 27.2051 12.1268 26.8544 11.9483C26.1998 9.67866 25.0187 8.97127 25.6184 6.46217C25.8492 6.31104 26.0194 6.10164 26.263 6.00423C26.6759 5.83944 27.0989 6.12622 27.3781 6.44396C28.6224 7.86329 28.2223 10.2977 28.0932 12.1213L28.0923 12.1222Z" fill="#5C473C"/>
<path d="M23.9465 29.98L21.1412 36.4276L20.6367 30.1539L21.5358 28.6453L23.0575 30.2586C23.3202 30.5372 23.5738 30.1348 23.9456 29.98H23.9465Z" fill="#F7F3EE"/>
<path d="M8.03487 27.3133C7.99092 27.2487 7.88014 27.1631 7.92592 27.1103C7.99184 27.0338 8.01747 26.8754 8.09346 26.8172C8.72062 26.3319 9.14911 25.7037 9.71492 25.1775L11.1899 23.8064C11.4984 23.5196 11.7878 23.2584 11.9599 22.8377C12.2245 22.8541 12.3389 22.6566 12.436 22.5765C12.6401 22.4089 13.1922 22.3361 13.4971 22.2897C13.7553 22.9534 14.04 23.4341 14.529 23.9512L13.7608 24.7442L8.03487 27.3124V27.3133Z" fill="#4BABF0"/>
<path d="M23.5685 0.667332C25.2925 1.04151 27.0321 1.47578 28.594 2.33612C28.4026 2.45903 28.2369 2.19046 28.0126 2.18135C27.3653 2.88784 26.6548 3.57975 25.9434 4.15058C24.7898 3.21741 23.4797 2.5355 22.0093 2.24326C22.1045 2.0894 22.0999 1.79443 22.3975 1.83904C22.5879 1.52585 22.9166 1.33011 23.194 1.04789C23.3286 0.911324 23.3506 0.656407 23.5676 0.667332H23.5685Z" fill="#49AAF0"/>
<path d="M16.5003 35.9778C15.9445 33.8629 15.6186 31.7298 15.5078 29.5922C15.7294 29.7078 15.7651 29.8735 15.8548 29.9418C16.0004 30.0528 16.2137 30.0811 16.3529 29.9363L17.6145 28.6153L18.0668 30.133L16.5003 35.9787V35.9778Z" fill="#F7F4EF"/>
<path d="M11.6659 22.0594C10.9756 22.2551 10.3448 22.399 9.67915 22.5364C9.90072 21.7517 9.74599 21.0716 9.33398 20.4206L12.869 19.8434C13.0832 19.8088 13.4577 19.6978 13.6261 19.8471C14.0739 20.2449 14.1041 20.9478 13.8477 21.4403L11.6659 22.0585V22.0594Z" fill="#7B5035"/>
<path d="M19.6322 22.2278C19.4363 22.1313 19.2651 21.8154 19.2422 21.606C19.2138 21.4967 19.2166 21.3847 19.2486 21.2709C18.507 21.2982 17.7691 21.2891 17.0339 21.2445C17.1144 21.3966 17.0952 21.5122 16.9762 21.5923C16.913 21.8527 16.6127 21.9201 16.4497 22.1067C16.0634 22.0867 15.6651 21.8873 15.5781 21.4803C16.2593 21.0233 16.9158 20.6382 17.542 20.1284C17.9632 20.2431 20.5597 20.2276 20.3693 19.7269C20.3491 19.6731 20.2402 19.6112 20.1495 19.6112L18.1179 19.6249L16.7079 19.2689C17.5576 19.0805 18.3431 19.1433 19.1809 19.227C19.797 19.289 21.1914 19.319 21.2894 20.2349C21.3956 21.2281 20.6201 22.2496 19.6322 22.2278Z" fill="#E0B689"/>
<path d="M14.6179 18.9385C14.183 19.0596 13.7865 19.0414 13.3672 19.0851C12.925 18.2848 12.9268 16.9729 12.8911 15.8749C13.9834 16.4367 15.245 16.3638 16.3767 15.7757C16.4536 16.1326 16.1221 16.4631 16.4472 16.9774C16.5872 17.1987 16.85 17.2415 17.1082 17.3999C16.0233 17.5191 15.0821 17.937 14.6179 18.9376V18.9385Z" fill="#DFB78A"/>
<path d="M15.4585 27.8532C15.3706 26.8873 15.366 25.7739 15.4429 24.7724C15.7139 24.8962 16.0481 24.9982 16.2688 25.2048C16.9554 25.8494 17.6091 26.4612 18.4359 26.9592L16.0838 29.3427C15.7158 28.8775 15.5391 28.3776 15.4594 27.8532H15.4585Z" fill="#F6F3ED"/>
<path d="M21.4818 26.1954C19.6827 27.1886 18.7754 26.7671 17.4414 25.4971C21.0496 25.8348 23.6764 24.756 25.7922 21.9984C25.784 22.1968 25.936 22.5546 25.7904 22.7349C25.4178 23.1955 24.9563 23.5752 24.5251 23.9958C23.616 24.8835 22.6244 25.5654 21.4809 26.1963L21.4818 26.1954Z" fill="#DFB68A"/>
<path d="M8.67479 19.878C8.30673 20.0191 9.89798 18.5215 9.9813 18.4232C10.2367 18.1237 10.4711 17.8442 10.7449 17.5546C11.2063 17.0676 11.7099 16.6442 12.1402 16.1271C12.2299 16.0197 12.045 15.7001 12.24 15.6783C12.2546 16.8454 12.3425 17.9998 12.5183 19.2371L8.67479 19.878Z" fill="#5EB5F3"/>
<path d="M29.139 13.6972C29.4924 14.8653 28.6986 18.3331 26.9096 17.4982C26.9132 16.4958 26.872 15.4935 27.0277 14.4765C27.0973 14.0195 27.7739 12.9835 28.4926 12.9816C28.846 12.9807 29.0502 13.4022 29.139 13.6972Z" fill="#DFB689"/>
<path d="M20.1837 29.7679C19.6893 29.7415 19.0401 29.8753 18.6181 29.6495C18.2582 29.3072 18.2454 28.6107 18.0522 28.1382L18.7591 27.4108C19.2361 27.3653 19.692 27.3981 20.1828 27.4099C20.5096 27.6293 20.8337 27.8141 21.0782 28.1237L20.1846 29.7688L20.1837 29.7679Z" fill="#BD482E"/>
<path d="M8.96323 22.439C8.8204 22.7049 8.62172 22.8169 8.43678 22.8287C8.22254 22.8423 8.01104 22.7759 7.83434 22.5874C7.44065 22.1677 7.35916 21.4685 7.70799 20.966C7.89019 20.7038 8.42854 20.5599 8.69497 20.7548C9.20402 21.1271 9.25346 21.8992 8.96323 22.4381V22.439Z" fill="#A73A1F"/>
<path d="M14.668 21.1972C14.6204 20.6391 14.6571 20.142 14.3027 19.6568C15.1075 19.4538 15.8564 19.6495 16.6154 19.949C16.0203 20.4962 15.4106 20.8503 14.669 21.1963L14.668 21.1972Z" fill="#795137"/>
<path d="M12.6456 9.75146C12.3059 8.79553 12.4579 6.88275 13.3002 6.02787C13.4623 5.86399 13.6756 5.93683 13.7626 6.02969C13.9311 6.21086 13.8377 6.39658 13.6271 6.51858C13.0512 7.48453 12.7958 8.53515 12.6465 9.75146H12.6456Z" fill="#61483B"/>
<path d="M15.4582 27.8533C15.4069 27.9744 15.5177 28.1401 15.3611 28.3058L15.3438 24.8635C15.3438 24.7961 15.3987 24.7378 15.4426 24.7724L15.4582 27.8533Z" fill="#0F2B3F"/>
<path d="M7.28079 15.1366C7.36777 15.4434 7.54539 15.6582 7.74956 15.8749C8.27875 16.4348 8.55525 17.2069 8.31355 17.9625C8.09473 18.6444 7.30276 19.8944 6.90633 19.7333C6.60968 19.6122 6.92464 18.6125 7.01345 18.303C7.36136 17.0967 6.19951 16.5486 6.0814 16.4075C5.01203 15.1411 5.49178 13.7273 6.19493 12.4709C6.53095 11.87 7.00338 11.3574 7.45292 10.8558C7.56004 10.7356 7.80632 10.7657 7.90795 10.8403C8.40144 11.2027 6.16747 13.8611 7.28171 15.1357L7.28079 15.1366Z" fill="#89C8E8"/>
<path d="M19.2422 21.6069C18.4759 21.7717 17.7206 21.6205 16.9771 21.5932C16.4617 20.6346 17.6144 21.2864 19.2816 21.0761C19.397 21.0615 19.4574 21.2873 19.4345 21.3638C19.4116 21.4403 19.3429 21.585 19.2413 21.6069H19.2422Z" fill="#2E4A5D"/>
<path d="M28.378 16.1753C28.2443 16.382 28.0722 16.7407 27.7627 16.6743C27.3425 16.5841 27.8213 16.0415 27.8863 15.64C27.911 15.4889 27.6867 15.4306 27.6364 15.2713C27.3672 14.4237 28.5098 13.1892 28.7707 13.719C29.0024 14.1897 28.1985 14.1524 28.2004 14.8735C28.5474 15.2631 28.7048 15.6692 28.3771 16.1744L28.378 16.1753Z" fill="#2F4B5F"/>
</g>
</g>
<defs>
<clipPath id="clip0_685_3601">
<rect width="40" height="40" fill="white"/>
</clipPath>
</defs>
</svg>
