<svg width="40" height="40" viewBox="0 0 40 40" fill="none" xmlns="http://www.w3.org/2000/svg">
<g clip-path="url(#clip0_685_3655)">
<path d="M20.0005 40.0009C31.0464 40.0009 40.0009 31.0464 40.0009 20.0005C40.0009 8.95451 31.0464 0 20.0005 0C8.95451 0 0 8.95451 0 20.0005C0 31.0464 8.95451 40.0009 20.0005 40.0009Z" fill="white"/>
<mask id="mask0_685_3655" style="mask-type:luminance" maskUnits="userSpaceOnUse" x="0" y="0" width="40" height="40">
<path d="M20.0003 39.0726C30.5335 39.0726 39.0724 30.5337 39.0724 20.0005C39.0724 9.46727 30.5335 0.928406 20.0003 0.928406C9.46708 0.928406 0.928223 9.46727 0.928223 20.0005C0.928223 30.5337 9.46708 39.0726 20.0003 39.0726Z" fill="white"/>
</mask>
<g mask="url(#mask0_685_3655)">
<path d="M19.6465 3.47279C19.673 3.42885 19.7032 3.37849 19.7527 3.35835C20.0035 3.25855 20.6005 3.25031 20.8788 3.28144C21.7019 3.37574 22.4847 3.64309 23.1787 4.09538C23.349 4.14024 23.436 4.21715 23.4396 4.32701C23.6163 4.4085 23.7729 4.51928 23.9102 4.66028C23.9496 4.66302 23.9853 4.67035 24.0109 4.69049C25.4044 5.78459 26.1955 7.49669 26.7421 9.12731C26.7466 9.23992 26.754 9.34979 26.764 9.45691L26.8913 9.61896C26.9966 9.95681 27.3985 11.4098 27.3289 11.6341C27.318 11.6689 27.3015 11.7019 27.2832 11.7348C27.4342 12.5588 27.545 13.4039 27.6173 14.2682L27.6714 14.2883C27.7547 15.6214 28.1612 16.8473 28.8973 17.9304C29.1637 17.4113 29.6032 17.2392 30.1489 17.1669L36.4278 17.1586C36.5221 17.1586 36.6173 17.1843 36.7116 17.2337C36.9076 17.1815 37.0385 17.2108 37.1044 17.3225C37.1401 17.2978 37.1813 17.2703 37.2234 17.2767C37.3086 17.2895 37.5018 17.4388 37.5787 17.5038C37.7142 17.6173 37.9605 17.8334 37.8909 18.0055C38.0099 18.1758 38.0447 18.3882 37.9971 18.6437C38.0209 19.6462 38.0227 20.6515 38.0026 21.6577L38.041 22.0935C37.9934 22.2757 37.9989 22.4469 38.0566 22.6053L38.0529 26.4809C37.9733 27.1804 37.6254 27.5722 36.9359 27.7498C35.7448 27.8304 34.5124 27.8112 33.2984 27.792C33.2764 27.792 33.2554 27.7636 33.2343 27.7288L30.2148 27.7205C30.0482 27.7086 29.8733 27.6922 29.7094 27.6583C29.6975 27.6555 29.6902 27.6354 29.6829 27.6098C29.4219 27.6693 29.1216 27.2884 28.9925 27.0696C28.89 26.8956 28.7169 26.4314 28.7591 26.2437C28.7636 26.2218 28.7884 26.2044 28.8186 26.1888C28.8433 25.7603 28.8405 25.3355 28.8103 24.9125L28.7783 24.8979C28.7554 24.0647 28.7462 23.2178 28.7508 22.359C28.1053 23.0979 27.1467 23.5566 26.1579 23.4632C25.442 24.4511 24.2316 24.961 23.0221 24.8713C24.1986 25.46 25.4136 26.0158 26.667 26.5395L26.7988 26.7098C26.8419 26.7079 26.884 26.7088 26.9261 26.7153C26.9682 26.7217 27.0067 26.7281 27.0387 26.7473C28.467 27.596 29.2672 28.4081 29.9658 29.884C30.0189 29.9975 30.0967 30.1688 30.0692 30.2823L30.2725 30.6082C30.8026 32.4 31.2146 34.1743 31.5076 35.9304L31.4655 36.021C31.2457 36.2737 30.9244 36.4056 30.6543 36.5933C30.549 36.5713 30.5471 36.4944 30.6488 36.3616C30.5224 36.2838 30.4767 36.1556 30.5105 35.9771C30.2771 34.7347 30.0207 33.4932 29.7424 32.2526L29.5135 31.4753C29.3166 31.4945 29.2992 31.3572 29.4201 31.218C29.1482 30.3491 28.7398 29.5526 28.1942 28.8293C26.982 27.6134 25.3202 26.9588 23.7674 26.3591C24.1611 27.0732 24.5813 27.8368 24.7269 28.6544C24.6967 28.908 24.4761 29.0481 24.2508 29.1278C23.8288 29.2175 23.4058 29.2779 22.9819 29.3081C23.0166 29.4152 23.0899 29.4977 23.2007 29.5562C23.3362 29.7503 23.5037 29.8996 23.7042 30.0049L23.7244 30.134C23.9652 30.3491 23.9533 30.6036 23.7839 30.8573C22.6376 32.1903 21.4126 33.5261 20.1711 34.7511C20.0988 34.7777 20.0658 34.8107 20.1052 34.8537C19.717 35.1339 19.3663 35.457 19.0541 35.8214L18.3638 36.3689C18.6293 37.3642 18.8087 38.4134 18.8179 39.448C19.0074 39.5679 19.0147 39.6705 18.7758 39.6155C18.1788 39.6055 17.5773 39.535 16.9868 39.4342C17.006 39.2868 17.1479 39.2585 17.4134 39.3509L17.721 39.3482C17.916 39.4873 17.9591 39.3949 17.8492 39.0717C17.7311 38.9902 17.7357 38.8986 17.8657 38.797C17.8227 38.4637 17.7705 38.1351 17.7091 37.8128C16.3605 36.6784 15.0622 35.4992 13.8134 34.2732C13.5754 34.0938 13.3492 33.9024 13.1332 33.701C13.0453 33.527 12.9116 33.3888 12.734 33.2853C12.1132 32.6051 11.4961 31.9175 10.8836 31.2226C10.5238 30.8856 10.4268 30.5478 10.5934 30.2081C10.8827 29.8858 11.1858 29.5764 11.5044 29.2797C10.934 29.31 10.3343 29.1845 9.81332 29.0133C9.70529 28.8476 9.65493 28.6791 9.66226 28.5061C9.9122 27.7709 10.2098 27.0558 10.554 26.3591L8.97742 27.1025C8.34202 27.314 7.74415 27.6592 7.17742 28.0282C6.85331 28.2388 6.62167 28.4246 6.35708 28.7112C6.19228 28.7872 6.10072 28.8943 6.08241 29.0325C5.37468 29.8135 4.97641 30.8985 4.7347 31.9074C4.77498 31.9962 4.76949 32.0658 4.72005 32.1162C4.43073 31.8598 4.27509 31.4872 4.03887 31.1905C4.02331 31.11 4.01049 31.0257 4.03155 30.9452C4.23938 30.1257 4.70723 29.1369 5.23277 28.4741C6.01191 27.4907 7.11516 26.8508 8.2413 26.3353L11.1555 25.0224C11.1995 25.0315 11.3615 24.8521 11.3203 24.853C10.6227 24.8649 10.1841 24.8585 9.53042 24.5554C9.11841 24.365 8.56633 23.9905 8.288 23.6326L8.26328 23.4733C8.08383 23.4385 7.91353 23.4403 7.75422 23.4787C6.22249 23.368 5.06705 21.9736 4.90683 20.4968C4.87661 20.2175 4.89492 19.8476 4.94162 19.5675C4.94528 19.5437 4.96817 19.5226 4.99655 19.5025C4.92331 19.3972 4.92147 19.2681 4.99106 19.1161L5.2996 18.3791C5.88282 17.3628 6.43948 16.3255 6.61435 15.1361C6.73337 14.0182 6.91832 12.9141 7.1701 11.8255L7.26074 11.6927C7.24242 11.5334 7.24609 11.3732 7.26898 11.2175C7.44385 10.0328 8.11496 8.43972 8.72106 7.40422C10.4158 4.5083 13.1057 2.88226 16.4246 2.77514C17.4619 2.74218 18.6778 2.84472 19.5375 3.44533L19.652 3.47463L19.6465 3.47279Z" fill="#154F78"/>
<path d="M30.6528 36.5951C29.5862 37.3339 28.4042 37.9052 27.1957 38.3758C27.0931 38.3978 27.0162 38.3795 26.964 38.32C27.4062 36.4879 27.2936 34.5268 26.964 32.6948C26.9805 32.6307 26.9567 32.5638 26.8926 32.4961C26.9512 32.3276 26.6436 31.857 26.5026 31.9303C26.4623 31.9513 26.2847 32.2681 26.2618 32.3478L26.4925 33.8612C26.5895 34.1313 26.6298 34.4197 26.6124 34.7282C26.6362 35.1109 26.6289 35.4936 26.6179 35.8763C26.5914 36.7855 26.5328 37.7697 26.2673 38.6331C25.9816 38.7466 25.7216 38.8437 25.4872 38.9233C23.6167 39.4873 21.0962 39.827 19.1231 39.6613C18.9995 39.6512 18.8604 39.6668 18.7743 39.6173C18.8183 39.6164 18.875 39.6393 18.9025 39.5853C18.8695 39.5688 18.7203 39.588 18.724 39.5331C18.7789 38.7567 18.4868 37.1526 18.2817 36.3552C18.4227 36.1583 18.9886 35.7985 19.038 35.7106C19.1131 35.5751 19.1854 35.5184 19.3035 35.4378C19.472 35.3224 19.5846 35.1357 19.7384 35.0066C19.97 34.8125 20.1705 34.7163 20.0918 34.7768C20.1165 34.7575 20.1184 34.6889 20.1403 34.6623C20.3253 34.4407 20.5212 34.2622 20.7281 34.0654C20.9955 33.8118 21.2408 33.538 21.488 33.267L21.9705 32.7369C22.0548 32.6435 22.1216 32.6005 22.1939 32.5318C22.3514 32.3816 22.6471 32.0044 22.8531 31.7838L23.2084 31.4047C23.3356 31.2683 23.4235 31.1246 23.5554 30.9973C23.7074 30.8517 23.885 30.5853 23.7998 30.3683C23.7595 30.2658 23.5682 30.1907 23.6497 30.0442C23.3878 30.0076 23.2862 29.7531 23.1232 29.6057C23.0445 29.5342 22.909 29.5169 22.9621 29.3722C22.8687 29.3987 22.8046 29.3777 22.7451 29.3456C22.931 29.179 23.136 29.1909 23.354 29.1854C23.6204 29.179 23.8447 29.1168 24.1166 29.0719C24.3272 29.038 24.6797 28.8512 24.6348 28.5912C24.5707 28.2241 24.4178 27.8716 24.2659 27.5365L24.1148 27.2032L23.8502 26.6731C23.7715 26.5147 23.624 26.3902 23.6424 26.1476C23.8566 26.3307 24.1075 26.3783 24.3483 26.4799L24.937 26.7308C25.2107 26.8471 25.4735 27.0027 25.76 27.0796C25.9065 27.119 26.3689 27.4578 26.5987 27.5319C26.7241 27.5722 26.7644 27.6125 26.8715 27.683C28.0993 28.4841 28.5516 28.8924 29.1138 30.2173L29.4855 31.0934C29.5303 31.1987 29.5166 31.2885 29.3948 31.3782C29.4644 31.4386 29.4937 31.3654 29.5706 31.3645L29.8261 32.2297C29.8755 32.3972 29.9094 32.5574 29.9451 32.7286L30.2271 34.0617L30.326 34.6696C30.3617 34.8903 30.705 36.0503 30.5704 36.1995C30.64 36.2334 30.6968 36.2764 30.7718 36.3726C30.7096 36.4248 30.6437 36.5081 30.6546 36.5951H30.6528Z" fill="#15659F"/>
<path d="M34.5217 6.95371C34.6068 7.03337 34.7039 7.10112 34.7927 7.20275C36.5515 9.19409 38.15 12.1633 38.8477 14.7049C38.8559 14.9072 38.7589 15.2771 38.5318 15.2826C38.4943 15.3998 38.4275 15.4602 38.3313 15.4657C38.3414 15.6369 38.2608 15.7166 38.0887 15.6973C37.9321 15.8887 37.7573 16.0636 37.5641 16.221C37.392 16.471 37.2006 16.7118 36.9882 16.9416C37.0981 17.0661 37.1539 17.1815 37.1539 17.2877L37.1026 17.3252C36.8692 17.2401 36.2878 17.2437 35.9673 17.2465L35.1598 17.2547C34.8394 17.2575 34.5354 17.2529 34.2205 17.251L33.2783 17.2474L32.1604 17.2538L30.2863 17.251C29.6729 17.251 29.1153 17.5285 28.9001 18.141L28.2867 17.0569C27.8747 16.3291 27.709 15.3751 27.611 14.5437L27.2814 11.7348C27.2649 11.5837 27.3153 11.5343 27.4123 11.678C27.4856 12.2365 27.5872 12.7895 27.7181 13.3388L27.6449 13.4377C27.6321 13.4698 27.7035 14.0841 27.7245 14.1226C27.7493 14.1693 28.0972 13.9266 28.088 13.8204C28.1732 13.7939 28.2162 13.7252 28.2189 13.6135C28.3728 13.5833 28.6328 13.489 28.5861 13.2711C28.685 13.2079 28.7829 13.1328 28.88 13.0459C29.0228 13.0385 29.108 12.958 29.1354 12.8032C29.2792 12.7392 29.3671 12.6513 29.3982 12.5386C29.5273 12.4398 29.6179 12.3217 29.6719 12.1852C29.8047 12.1468 29.8779 12.0735 29.8908 11.9637C30.0308 11.8446 30.1828 11.7604 30.3467 11.7101L30.4154 11.5388C30.3952 11.4253 30.4731 11.3374 30.647 11.2743C30.8613 10.9584 31.1323 10.7231 31.4619 10.5693C31.5754 10.3733 31.7201 10.1939 31.8949 10.0309C31.872 9.81851 32.0139 9.79379 32.1659 9.89358C32.1421 9.80111 32.1852 9.74252 32.2364 9.67568C32.1934 9.53377 32.2657 9.44954 32.4534 9.42115C32.8187 9.12176 33.163 8.80223 33.4853 8.46256L33.4999 8.38107C33.3104 8.23092 33.456 8.01668 33.6446 8.19155C33.7242 8.16317 33.781 8.0826 33.8139 7.95076C33.9266 7.95076 34.0108 7.89949 34.0676 7.79695L34.6059 7.38403C34.6114 7.25493 34.5446 7.14598 34.4063 7.05717C34.3074 6.85666 34.4191 6.7587 34.5217 6.95463V6.95371Z" fill="#39B3F5"/>
<path d="M16.9852 39.4342C13.7139 38.8803 10.5086 37.5738 7.9697 35.4177C7.86899 35.3124 7.76186 35.2034 7.64833 35.089L7.70876 34.9315L8.064 32.3808C8.1464 32.1555 7.93307 31.9037 7.71334 31.9486C7.56868 31.9779 7.47255 32.3487 7.44325 32.4906C7.31965 33.0931 7.20062 33.7138 7.18048 34.3217C7.16034 34.4829 7.10541 34.5616 7.01751 34.5598C6.87926 34.4389 6.74101 34.3327 6.60276 34.2403C5.93898 33.5701 5.24315 32.9017 4.7167 32.1171C4.57845 31.9102 4.67001 31.7417 4.7341 31.5293L4.87052 31.0797C5.01884 30.5908 5.61121 29.288 5.99208 29.0069C6.04427 28.9685 5.99208 28.8192 6.11111 28.778C6.28506 28.7167 6.78404 28.1325 6.91222 28.073C7.20062 27.9394 7.42128 27.7361 7.68862 27.5924C7.92026 27.4678 8.1757 27.4047 8.39269 27.2371C8.56023 27.1089 8.78821 27.098 8.96217 27.0128C9.41629 26.7903 9.84568 26.5798 10.3053 26.3884C10.4225 26.3399 10.5177 26.208 10.6871 26.3097C10.6367 26.4113 10.5571 26.5147 10.5177 26.6237C10.2925 27.2499 9.99217 27.6555 9.76237 28.4521C9.65616 28.8192 9.91801 28.7798 9.83561 28.9721C9.94823 28.8742 10.0004 28.9932 10.0856 29.0188C10.3941 29.1095 10.72 29.1452 11.0487 29.1891C11.2611 29.2175 11.4681 29.1534 11.685 29.2294L10.8711 30.0195C10.7146 30.1715 10.5552 30.3363 10.5818 30.5817C10.6129 30.8682 11.447 31.7325 11.6988 31.998C11.892 32.2013 12.0275 32.4696 12.2573 32.6399C12.3424 32.703 12.7187 33.1013 12.7544 33.1709C12.8286 33.3146 13.0694 33.3641 13.1234 33.5188C13.1628 33.6314 13.1838 33.6424 13.279 33.6973C13.4091 33.7715 13.4731 33.9601 13.6215 34.0324C13.8421 34.1395 13.9822 34.3428 14.1671 34.493C14.2477 34.5589 14.2706 34.6257 14.353 34.7054L14.9179 35.2492C14.9573 35.2089 14.9069 35.1549 14.96 35.1238C15.0058 35.2034 14.9518 35.3069 15.0186 35.3362C15.1395 35.3893 15.1843 35.4918 15.275 35.5706L16.1896 36.3653C16.3755 36.5273 16.5485 36.6802 16.7344 36.8441L17.1134 37.1792C18.0995 38.0508 17.704 37.4868 17.9457 38.7457C17.9576 38.8053 17.9502 38.8712 17.9072 38.9032C17.8862 38.9188 17.8404 38.9078 17.8147 38.9435C17.8752 38.982 17.9191 38.9691 17.9301 38.9957C17.8999 38.9215 18.0116 39.4516 18.0043 39.3793C18.0134 39.4718 17.9237 39.4809 17.8807 39.4956C17.8157 39.5176 17.7607 39.437 17.7094 39.4352C17.5666 39.4297 17.4357 39.4654 17.2791 39.4132C17.1839 39.3811 17.0512 39.3793 16.9862 39.4361L16.9852 39.4342Z" fill="#1466A0"/>
<path d="M19.3408 0.555806C19.827 0.53017 20.3452 0.524677 20.824 0.564962C21.0575 0.57778 21.2909 0.596091 21.5253 0.619895L21.5592 0.725185C21.4356 0.913791 21.2607 1.07493 21.0346 1.20769C20.5823 1.76343 20.0925 2.29263 19.5651 2.7971C19.4168 2.81175 19.3802 2.90331 19.4571 3.07269C19.4159 3.13678 19.4443 3.21277 19.5422 3.30158C19.6237 3.34736 19.6585 3.40412 19.6466 3.47279C19.5624 3.49293 19.5294 3.4792 19.4406 3.43159C17.7944 2.55814 15.337 2.79893 13.624 3.35193C13.0289 3.5442 12.518 3.8088 11.9907 4.12833C9.27877 5.77268 7.82394 8.67959 7.25446 11.6918C7.07226 11.6872 7.00085 11.8328 6.96697 12.004C6.88091 12.0919 6.78111 12.1523 6.66941 12.1834C6.63554 12.264 6.58793 12.3327 6.52567 12.3885C6.31784 12.47 6.16769 12.6 6.07338 12.7795C6.00563 12.8015 5.95528 12.8591 5.92232 12.9525C5.69251 13.0432 5.55334 13.1832 5.50573 13.3737C5.50573 13.3737 5.40411 13.4808 5.20177 13.696C5.04612 13.8974 4.8566 14.0823 4.63504 14.2526C4.74765 14.4156 4.6625 14.5227 4.48488 14.4586C4.26515 14.6271 4.05457 14.8139 3.85314 15.018C3.70574 15.2396 3.53178 15.4291 3.33219 15.5866C3.29374 15.7093 3.26078 15.7386 3.13534 15.7358C3.02914 15.8301 2.95956 15.9354 2.9266 16.0508C2.81764 16.0416 2.75539 16.1021 2.74165 16.233C2.65376 16.2778 2.59425 16.3392 2.5622 16.4152C2.32782 16.5379 2.2445 16.6541 2.31042 16.7649L2.29577 16.8372C2.17309 16.8473 2.07512 16.8931 2.00188 16.9737C1.84989 17.003 1.74644 17.1064 1.6915 17.285C1.49649 17.339 1.43057 17.4269 1.49283 17.5496C1.35458 17.5981 1.25844 17.6704 1.20534 17.7675C1.11012 17.9405 0.954475 17.9725 0.769531 17.9689C0.818972 17.6768 0.842776 17.3875 0.840945 17.1028C1.07716 15.2048 2.01378 12.6092 2.93667 10.8641C4.50777 7.89221 6.95141 5.23982 9.80888 3.46729C11.4935 2.42264 13.2871 1.64807 15.2034 1.14085C16.3817 0.828644 18.1643 0.550313 19.3417 0.557637L19.3408 0.555806Z" fill="#3AB3F6"/>
<path d="M39.4574 22.7802C38.8888 27.0009 36.9185 30.9809 33.9072 34.0178C33.27 34.6605 32.6016 35.2135 31.893 35.7564C31.752 35.8645 31.6055 35.9624 31.4645 36.022C31.4361 35.9899 31.4114 35.9432 31.4004 35.8837L31.1715 34.6266C30.9005 33.1352 30.5636 31.6941 30.0683 30.2823L30.1113 30.2365C30.1919 30.2768 30.2761 30.2695 30.3649 30.2136C30.526 30.0122 30.7247 29.8447 30.9609 29.7101C30.9939 29.5801 31.0488 29.4894 31.1257 29.4381C31.1779 29.2486 31.3015 29.0417 31.5139 29.1269L31.5927 28.9556L32.4158 28.2827L32.4011 28.1921C32.5211 28.074 32.6227 27.9558 32.7042 27.8368C31.6851 27.8506 30.6707 27.8359 29.6627 27.792C29.5208 27.7288 29.5226 27.5649 29.681 27.6088C29.8613 27.6345 30.0417 27.6986 30.2523 27.6986L36.5312 27.7086C37.2335 27.7096 37.9622 27.239 37.9632 26.4781L37.9714 18.2912C37.9714 18.1831 37.8762 18.0861 37.8881 18.0055C37.9787 17.7775 38.1362 18.0852 38.1197 18.2555C38.1325 18.7004 38.128 19.1445 38.106 19.5904C38.16 19.7524 38.16 19.9007 38.106 20.0372C38.2049 20.2944 38.1637 20.657 38.1188 20.9417C38.1454 21.177 38.1719 21.4261 38.1179 21.6504C38.2122 21.8912 38.2186 22.1201 38.1371 22.337C38.334 22.3499 38.5097 22.2784 38.6617 22.1237L38.8705 22.0523C38.9556 21.9195 39.0554 21.7959 39.169 21.6815C39.2742 21.3162 39.6826 21.2942 39.5077 21.7126C39.504 21.9058 39.5022 22.0944 39.5013 22.2784C39.4455 22.435 39.4299 22.6026 39.4555 22.7802H39.4574Z" fill="#39B3F5"/>
<path d="M34.522 6.95371C34.4918 6.94364 34.4872 6.89878 34.4442 6.88962C34.424 7.09746 34.728 7.05443 34.6932 7.3941C34.6804 7.52045 34.0505 7.86104 34.0615 7.93977L34.077 8.05056C34.0807 8.07436 34.0029 8.07894 33.98 8.07253C33.9516 8.06612 33.9232 8.03042 33.8884 7.98281C33.8042 8.10091 33.8802 8.24099 33.6211 8.28311C33.5771 8.29044 33.5744 8.21719 33.5094 8.1824C33.4416 8.25748 33.5625 8.30234 33.5771 8.34537C33.6431 8.53672 33.4206 8.59806 33.3501 8.71159C33.2695 8.84069 33.2027 8.9121 33.0892 8.99725L32.722 9.27375C32.6414 9.33418 32.5774 9.41475 32.5288 9.46785C32.4895 9.51088 32.4226 9.5594 32.2954 9.51912C32.3842 9.75076 32.2514 9.7471 32.2386 9.84048C32.2358 9.85879 32.2935 9.87985 32.2917 9.90274C32.2853 9.97232 32.1937 10.0025 32.1516 9.98239L32.0106 9.91464C31.9429 9.88168 32.0033 10.0419 31.9813 10.0657L31.6078 10.4768C31.5821 10.5052 31.5693 10.5391 31.5464 10.5665C31.5281 10.5885 31.5904 10.6059 31.6059 10.6389C31.5126 10.5857 31.1097 10.8604 31.0548 10.9263L30.8268 11.201C30.7307 11.3173 30.6547 11.4336 30.4597 11.4391C30.4999 11.505 30.5503 11.4537 30.6107 11.5141C30.4413 11.5443 30.445 11.7137 30.4221 11.798C30.2729 11.7861 30.152 11.8401 30.0577 11.9838C30.0431 12.0067 29.968 11.9884 29.9534 12.0085C29.935 12.0342 29.9579 12.1028 29.9671 12.1385C29.9094 12.188 29.816 12.1962 29.7336 12.2383C29.6979 12.5176 29.3473 12.5212 29.4644 12.7657C29.0415 12.7868 29.2301 13.0504 29.068 13.0797C28.6386 13.1585 28.9243 13.4084 28.6597 13.2711C28.6258 13.3068 28.7091 13.3956 28.6752 13.4524C28.6743 13.4542 28.3291 13.7801 28.3072 13.6153C28.2129 14.0704 28.1946 13.7115 28.0865 13.9861C28.0188 14.1592 27.8009 14.1381 27.6535 14.2883C27.6242 13.9422 27.5436 13.608 27.5537 13.2116C27.6443 13.2537 27.5143 13.3746 27.6498 13.3883C27.5097 13.0605 27.4658 12.5313 27.4118 12.2063L27.3184 11.646C27.2689 11.6625 27.2799 11.7037 27.2817 11.7348C27.1911 10.963 26.9311 10.2168 26.7626 9.45778C26.7837 9.40834 26.7754 9.35249 26.7379 9.29023C26.6848 9.18219 26.7232 9.09888 26.8551 9.03937L27.4255 8.47355C27.3413 8.2529 27.4987 7.99562 27.6269 8.27579C27.7185 8.17324 27.8036 8.11556 27.951 8.11923C27.8842 7.97273 27.9913 7.85554 28.1259 7.8061C28.2303 7.59735 28.4042 7.46185 28.5983 7.34374C28.5782 7.14781 28.6826 7.03611 28.9105 7.00773C29.0497 6.83927 29.1824 6.67172 29.3088 6.50326C29.4351 6.47304 29.5093 6.41719 29.5304 6.33479L29.8444 6.01892C29.9158 5.93012 29.9598 5.83215 29.9762 5.72686C30.2051 5.71771 30.3873 5.58586 30.5237 5.33134C30.6235 5.11984 30.7755 5.00723 30.9577 4.89187C30.9806 4.78475 31.0621 4.67763 31.182 4.70876C31.2535 4.39106 31.3954 4.27112 31.6087 4.35077C31.5794 4.4112 31.5895 4.39838 31.6407 4.3114C32.6176 5.07406 33.6119 5.82849 34.4323 6.80539C34.4762 6.85758 34.5321 6.88505 34.5202 6.95371H34.522Z" fill="#27ABF3"/>
<path d="M7.25452 11.6918C7.01281 12.7062 6.88738 13.7426 6.74821 14.7983C6.40396 17.4021 5.17985 18.1566 4.99216 19.5024L4.94913 19.5125C4.93448 19.7213 4.91343 19.9318 4.88687 20.1424C4.78525 20.1562 4.6827 20.1717 4.57833 20.1882L4.62319 20.4162C4.33845 20.5608 4.11414 20.7641 3.94934 21.0269C3.888 21.0525 3.8294 21.1093 3.77264 21.1971L3.61699 21.2878C3.59502 21.3693 3.53276 21.4398 3.43022 21.4984C3.45677 21.6732 3.31302 21.6888 3.17935 21.6229C3.15463 21.6989 3.10702 21.7364 3.03744 21.7364C3.07772 21.7913 3.03744 21.8545 2.91384 21.9287C2.83052 22.0834 2.7234 22.1741 2.59339 22.1988C2.63734 22.4313 2.54304 22.5549 2.294 22.5137L2.19237 22.6154C2.08068 22.6428 2.03215 22.7353 2.0468 22.8919C1.94151 22.9596 1.83347 23.0155 1.72452 23.0594C1.63846 23.2324 1.45535 23.3029 1.27407 23.3267C1.34182 23.5721 1.34365 23.8074 1.02686 23.606L1.10743 23.9612C1.08729 24.0711 1.05799 24.1114 0.960944 24.04C0.580985 21.9433 0.443651 20.2889 0.713742 18.1163L0.840089 17.1028C0.943548 17.1888 0.916081 17.3097 0.869387 17.436C0.808045 17.5999 0.84192 17.7784 0.795227 17.9313C0.884036 17.8755 0.839174 17.7748 0.906925 17.7528C0.954535 17.816 0.949957 17.8975 0.992988 17.8856C0.923406 17.9057 1.15871 17.7491 1.12849 17.7134C1.17702 17.7693 0.892276 17.7043 1.06257 17.2465C1.11293 17.3939 1.06257 17.5138 1.0763 17.6411C1.14772 17.6374 1.18526 17.6503 1.20448 17.6439C1.2292 17.6356 1.24019 17.5834 1.25209 17.5514C1.28414 17.4671 1.33724 17.5386 1.44528 17.5331C1.40316 17.4836 1.35921 17.4498 1.33175 17.3811C1.42513 17.3692 1.43795 17.252 1.48739 17.2648C1.67783 17.3133 1.68332 17.0579 1.75931 16.9535C2.20336 16.905 1.89756 16.6422 2.25738 16.8317C2.16949 16.7173 2.17132 16.6843 2.20885 16.6102C2.30499 16.4207 2.60529 16.3685 2.49634 16.2833C2.45972 16.2549 2.42401 16.3328 2.40387 16.3428C2.35443 16.3666 2.39929 16.3145 2.39014 16.2943C2.32879 16.1606 2.49817 16.2641 2.63093 16.2128C2.72432 16.1762 2.68769 16.0755 2.7115 15.9894C2.72798 15.9299 2.83052 15.9821 2.89278 16.0132C2.83144 15.8933 2.92025 15.8649 2.97701 15.7953C3.05392 15.7019 3.09146 15.5985 3.2352 15.6653C3.22513 15.5967 3.22879 15.5756 3.23062 15.5426C3.23428 15.4868 3.29197 15.5197 3.31669 15.5014C3.53276 15.3421 3.6527 15.0894 3.83672 14.9082C3.95575 14.791 4.08667 14.7479 4.17182 14.5785C4.21211 14.498 4.40712 14.4879 4.43367 14.3616C4.51973 14.357 4.55453 14.4211 4.64242 14.3817L4.47762 14.2929C4.58291 14.151 4.75229 14.0722 4.87497 13.9413C4.98209 13.8278 5.06083 13.685 5.15422 13.609C5.22929 13.6511 5.20274 13.5202 5.23937 13.4716C5.41699 13.4661 5.42339 13.3526 5.45086 13.2272C5.69898 12.8234 5.97639 13.0212 5.87294 12.6962C5.93428 12.7044 5.959 12.7108 5.98189 12.7245C6.00111 12.7364 6.02767 12.7465 6.03407 12.7016C6.03865 12.6751 6.00386 12.6431 5.9883 12.5835C6.02492 12.5524 6.05971 12.6 6.08626 12.5936C6.13845 12.5799 6.15218 12.459 6.18514 12.4526C6.42777 12.405 6.54496 12.2512 6.54862 12.2301C6.58982 12.0205 6.46164 12.2777 6.55594 12.0177C6.56418 11.9939 6.59623 11.9884 6.59989 12.0177C6.60447 12.0543 6.54221 12.0736 6.57151 12.145C6.63377 12.0937 6.71067 12.0571 6.79491 12.0754C6.80589 12.0369 6.78941 11.9976 6.79216 11.9729C6.79674 11.9372 6.86357 11.9628 6.91484 11.9591C6.89836 11.8328 6.94414 11.765 7.03661 11.6817C7.11444 11.6112 7.10894 11.4794 7.20416 11.4263C7.22431 11.5343 7.16113 11.657 7.25543 11.69L7.25452 11.6918Z" fill="#26ABF3"/>
<path d="M27.0152 1.74238C28.6751 2.35672 30.2545 3.2265 31.6425 4.31145C31.6608 4.34715 31.7066 4.37828 31.6681 4.41307C31.5775 4.49547 31.4328 4.34441 31.3843 4.42589C31.4832 4.46251 31.4832 4.49639 31.3953 4.49456C31.3193 4.47991 31.2634 4.50555 31.3596 4.54675C31.3303 4.61724 31.2863 4.69964 31.2314 4.77655C31.1627 4.79853 31.1133 4.77838 31.0922 4.80768C31.051 4.86536 31.0336 4.93952 31.0281 5.0146L30.9457 4.9441C30.953 5.08235 30.7553 5.09425 30.7177 5.17757C30.6491 5.32955 30.5667 5.42202 30.4705 5.53922C30.3524 5.68204 30.2444 5.86424 30.0219 5.76353C30.0366 5.87156 30.0723 5.89628 30.065 5.94389C29.9551 5.9091 29.9642 6.02263 29.9139 6.0739L29.5907 6.39801C29.566 6.42273 29.609 6.52436 29.5513 6.55091C29.4845 6.51429 29.4296 6.5326 29.3883 6.55274C29.3032 6.59394 29.3609 6.67909 29.3792 6.75874C29.3105 6.74684 29.2794 6.69465 29.2007 6.72487C29.2116 6.76515 29.251 6.7679 29.2739 6.81093C28.8839 6.9446 29.1613 7.10025 28.72 7.1442C28.6678 7.21836 28.7127 7.29709 28.6989 7.38224C28.5177 7.50126 28.3355 7.60289 28.2292 7.80432C28.3116 7.86566 28.3739 7.76861 28.4325 7.84643C28.3629 7.862 28.3052 7.89862 28.265 7.90137C28.1807 7.85559 28.1056 7.89313 28.0342 7.97461C27.9747 8.04328 28.0544 8.11835 28.1166 8.18611C28.0525 8.21357 28.0068 8.17787 27.982 8.19526C27.9381 8.22639 27.9473 8.27217 27.9216 8.33443C27.8768 8.30238 27.8822 8.25111 27.8346 8.19709C27.7394 8.28773 27.6534 8.3738 27.5719 8.48183C27.4648 8.3802 27.5819 8.30604 27.5224 8.20075C27.4602 8.28956 27.5096 8.38295 27.5023 8.50381L26.9136 9.10441C26.8495 9.16942 26.7039 9.18865 26.7863 9.31682C26.801 9.33971 26.8376 9.36443 26.8348 9.39923C26.833 9.42578 26.7909 9.44592 26.7634 9.45782C26.378 8.34633 26.1271 7.61113 25.51 6.56464C24.9799 5.66648 24.2365 4.96607 23.4399 4.32793C23.5461 4.17228 23.8428 4.35997 23.9124 4.51836C23.9536 4.47808 23.9957 4.43413 24.0378 4.38652C23.9655 4.16679 24.0451 3.99191 24.2612 4.15214C24.4745 3.91592 24.7043 3.70077 24.9525 3.50667C24.9625 3.30707 25.0431 3.24298 25.2354 3.24298C25.3416 3.05255 25.4249 2.9555 25.6355 2.88408C25.6501 2.71928 25.7453 2.65519 25.9001 2.61582C25.988 2.36588 26.1747 2.17178 26.4082 2.02529C26.4128 1.84492 26.4933 1.74421 26.6847 1.7909C26.6939 1.68012 26.7781 1.66639 26.9374 1.75062L27.0152 1.74146V1.74238Z" fill="#38B3F5"/>
<path d="M4.99209 19.5024C4.83279 20.6432 5.22831 21.849 6.0688 22.64C6.59067 23.1308 7.19585 23.3588 7.89168 23.4064C8.02169 23.4155 8.15628 23.4238 8.25882 23.4732C8.26981 23.5922 8.15719 23.6215 7.91915 23.5602L7.83308 23.573C7.74244 23.746 7.60694 23.8843 7.42749 23.9878C7.43573 24.1663 7.38537 24.245 7.27642 24.224C7.21783 24.31 7.12627 24.3778 7.00267 24.4272C6.94407 24.6012 6.84519 24.7312 6.70603 24.8182C6.68588 24.9711 6.48721 25.0242 6.3517 25.0526C6.39931 25.2082 6.34072 25.3263 6.1869 25.2412C5.86554 25.612 5.54143 25.9764 5.21274 26.3353L5.09464 26.3847C4.91702 26.6328 4.70186 26.8434 4.45008 27.0183L4.36585 27.1593C4.21844 27.2407 4.10766 27.3689 4.03258 27.5438C3.92272 27.6234 3.8101 27.6958 3.69383 27.759C3.57114 27.9595 3.42923 28.1462 3.26992 28.3211C3.10237 28.3843 2.96229 28.4923 2.84968 28.6461C2.74164 28.8723 2.63727 28.8787 2.53747 28.6644C1.79404 27.2179 1.25294 25.6458 0.962705 24.0418C1.16596 23.9859 0.775014 23.6032 1.00116 23.2031C1.04602 23.3716 0.985594 23.5959 1.25294 23.6041C1.22089 23.4915 1.12018 23.2736 1.26576 23.2443C1.44704 23.2077 1.62649 23.1592 1.67593 22.9376C1.72171 22.9312 1.75375 22.977 1.7858 22.9944C1.81052 22.9284 1.80044 22.8735 1.83432 22.846C1.87918 22.8113 1.93229 22.8717 1.95975 22.9037C2.00828 22.38 2.05039 22.7563 2.28203 22.3782C2.33422 22.38 2.39464 22.4615 2.42669 22.4441C2.46331 22.4249 2.5448 22.3608 2.52465 22.3169C2.48895 22.2409 2.49536 22.2088 2.51916 22.1603C2.5567 22.0852 2.64459 22.1154 2.69495 22.0925C2.7746 21.9323 2.92018 21.7565 3.09963 21.7162C2.87989 21.8792 3.29464 21.2694 3.2159 21.4571C3.25802 21.4938 3.21316 21.5304 3.22506 21.5514C3.23879 21.5752 3.27908 21.5459 3.35415 21.5936C3.37704 21.5579 3.3276 21.5157 3.35324 21.4626C3.3688 21.4306 3.39444 21.3729 3.45761 21.3729C3.54734 21.3729 3.51712 21.2392 3.55741 21.2209C3.70115 21.1568 3.86412 21.0625 3.77348 20.884C3.74693 20.8318 3.90258 20.8492 3.89434 20.8794L3.86412 20.9875C3.9804 20.9005 4.00603 20.7311 4.12414 20.6487L4.4629 20.4116C4.44459 20.3566 4.39606 20.3438 4.37317 20.299C4.41071 20.2889 4.46656 20.2724 4.48121 20.2843C4.50959 20.309 4.45008 20.4088 4.5334 20.4189C4.58009 20.3072 4.45741 20.2175 4.47755 20.1012C4.55537 20.0865 4.59474 20.092 4.63319 20.0875C4.67165 20.0829 4.66615 20.0344 4.69728 19.9785C4.73757 20.0115 4.74031 20.0517 4.78609 20.1122C4.95913 20.027 4.83645 19.4484 4.92251 19.5427L4.86117 19.4749C4.85567 19.4685 4.93075 19.4337 4.94998 19.4255C4.9866 19.4099 4.99393 19.4649 4.99301 19.4997L4.99209 19.5024Z" fill="#39B3F5"/>
<path d="M8.25797 23.4723C9.0481 24.3934 10.2045 24.9427 11.4432 24.7468C11.4322 24.9097 11.3333 25.0343 11.1887 25.1002L9.93986 25.6715L8.51891 26.3032C6.73631 27.0961 5.27415 28.0062 4.51057 29.8812C4.32929 30.3262 4.18646 30.7556 4.0354 31.1896C3.4238 30.4214 2.98067 29.526 2.53662 28.6617C2.60071 28.6635 2.61078 28.7176 2.64924 28.7954C2.72706 28.6068 2.8827 28.4878 3.02553 28.3339C3.07131 28.2836 3.23336 28.2854 3.25168 28.2021C3.28189 28.0657 3.41098 28.0529 3.46683 27.975C3.56114 27.8432 3.59318 27.596 3.80925 27.65C3.76439 27.5694 3.74242 27.4999 3.78087 27.5081C3.9768 27.5841 4.05554 27.3717 4.09674 27.2206C4.16358 27.162 4.30823 27.1492 4.35218 27.0146C4.38972 26.8993 4.56001 26.859 4.63601 26.7839C4.76144 26.6585 4.82736 26.4891 5.00956 26.4122C4.99857 26.3591 4.96561 26.3279 4.9418 26.2648C5.0242 26.2584 5.06632 26.3142 5.11668 26.2913C5.22013 26.2455 5.31352 26.056 5.31627 26.067C5.30894 26.0386 5.23661 26.0496 5.24028 25.9764C5.30254 25.9517 5.36296 26.0377 5.42522 26.002C5.43987 25.9846 5.41332 25.9196 5.42522 25.8931C5.43712 25.8665 5.51495 25.9141 5.54424 25.8985C5.57812 25.7539 5.70904 25.6367 5.82257 25.536C5.94618 25.4261 6.12379 24.9885 6.29043 25.2183C6.30691 25.0965 6.22359 25.0471 6.1302 25.0159C6.23 24.9857 6.24007 24.9418 6.27761 24.9262C6.30599 24.9152 6.34353 24.9747 6.371 24.9665C6.46347 24.939 6.53488 24.8786 6.6475 24.8511L6.51108 24.7513C6.59348 24.7047 6.62735 24.766 6.68595 24.7477C6.68595 24.6662 6.63651 24.6323 6.65482 24.5582C6.98717 24.8621 6.66398 24.3403 7.17028 24.2569C7.18493 24.2194 7.17028 24.1663 7.18402 24.148C7.2243 24.0967 7.46143 24.1864 7.34058 24.1031C7.32318 24.0912 7.29114 24.0839 7.2655 24.0528C7.34424 24.0546 7.33325 23.9457 7.3653 23.9228L7.55482 23.7836C7.67567 23.6948 7.69948 23.6325 7.75807 23.5291C7.83956 23.3835 8.24424 23.5666 8.25889 23.4705L8.25797 23.4723Z" fill="#27ABF3"/>
<path d="M21.13 0.564947C21.564 0.540227 21.9797 0.602485 22.442 0.648263C24.0278 0.806656 25.5458 1.19943 27.0153 1.74328C26.9905 1.83209 26.8852 1.77349 26.7781 1.73137C26.7919 1.80279 26.6948 2.00513 26.6939 2.00604C26.6774 2.01428 26.6426 2.00787 26.6289 1.98498C26.6206 1.97034 26.6829 1.92913 26.6692 1.90167C26.6454 1.85314 26.5035 1.84765 26.508 1.93005C26.5108 1.97674 26.4613 2.03992 26.5218 2.07929C26.3725 2.18091 26.1272 2.27156 26.0924 2.46016C26.0805 2.527 26.0393 2.50594 26.0182 2.52517C25.9669 2.57369 25.9944 2.62679 26.0008 2.68722C25.9367 2.68814 25.7142 2.75314 25.728 2.83646C25.7545 2.97562 25.5751 3.00492 25.4734 3.05161C25.3883 3.09098 25.3636 3.31987 25.2253 3.33544C25.1686 3.34185 25.0971 3.31713 25.0578 3.38671C25.0376 3.4215 25.0514 3.46453 25.0953 3.53412C24.8646 3.62842 24.7126 3.78406 24.5799 3.96809C24.4865 4.09719 24.2988 4.14205 24.3015 4.32058C24.2438 4.21712 24.1761 4.22628 24.1129 4.14296C24.0671 4.22353 24.1019 4.32333 24.1715 4.38834C24.0855 4.44785 24.0049 4.53574 23.9646 4.6218C23.8355 4.66941 23.7925 4.42954 23.6936 4.40115L23.4372 4.32699C23.3503 4.25741 23.2038 4.21896 23.0912 4.14663C22.4347 3.72547 21.7114 3.47186 20.935 3.37572C20.4891 3.32079 20.0597 3.37115 19.6441 3.47186C19.5223 3.42608 19.45 3.34643 19.3767 3.22282C19.3557 3.18803 19.1991 3.19719 19.2659 3.10929C19.2815 3.08915 19.3474 3.12669 19.3566 3.0919C19.3685 3.04704 19.4069 3.00126 19.3529 2.99485C19.3264 2.99119 19.2971 2.97929 19.2192 2.99576C19.2357 2.93808 19.3099 2.9509 19.3383 2.89688C19.2897 2.87033 19.2595 2.84103 19.2925 2.81265C19.3044 2.80167 19.2815 2.7449 19.3264 2.76779C19.3401 2.77511 19.3502 2.84103 19.3785 2.79983C19.385 2.69638 19.4069 2.70919 19.4646 2.7742C19.7292 2.52242 19.9361 2.23676 20.2181 2.00238C20.2776 1.95294 20.3875 1.93005 20.3847 1.81744C20.3847 1.79821 20.4644 1.78997 20.4516 1.76708C20.4369 1.73961 20.4058 1.74144 20.3829 1.70574C20.5203 1.79912 20.7995 1.35233 20.8727 1.26077C21.2298 0.813065 21.3168 1.05111 21.3983 0.786513C21.4056 0.761793 21.4889 0.747144 21.4825 0.723339C21.4202 0.487124 20.9185 0.705944 20.8233 0.564947C20.9149 0.531071 21.0357 0.532902 21.1291 0.564947H21.13Z" fill="#26AAF2"/>
<path d="M39.4574 22.7802C39.4739 22.6602 39.3173 22.4579 39.5004 22.2784C39.3658 22.229 39.396 22.3096 39.3384 22.3334C39.3329 22.2528 39.3081 22.2574 39.2358 22.2262L39.4455 22.185C39.5837 21.7419 39.3695 21.6851 39.4372 21.6064C39.4501 21.5918 39.5132 21.6458 39.5251 21.6256C39.5755 21.5432 39.5004 21.4993 39.4354 21.4947C39.3457 21.4883 39.3365 21.5267 39.3027 21.6165C39.1992 21.8893 38.8696 22.0193 38.9666 22.1567C38.7304 22.0917 38.5894 22.3224 38.4017 22.4075C38.312 22.4478 38.1399 22.3205 38.1078 22.5403C37.9705 22.4231 38.0483 22.348 38.0831 22.2391C38.1939 21.893 37.9357 21.6934 38.074 21.5496C38.095 21.5277 38.0456 21.4965 38.0236 21.4599C38.1234 21.2869 38.0053 21.0424 38.0383 20.8657C38.0712 20.689 38.1152 20.5654 38.0612 20.4143C38.0319 20.3329 38.1472 20.1974 38.0419 20.0893C37.9769 20.0234 38.1024 19.8696 38.0721 19.8055C37.9577 19.6801 38.0612 19.0776 38.0602 19.0621L38.0172 18.6327C38.0245 18.7022 38.1033 17.9075 37.889 18.0064C37.7032 17.7089 37.4422 17.447 37.1035 17.3234C37.0092 16.8656 36.8444 17.4086 36.5825 17.1284C36.6384 17.0222 36.8389 17.0524 36.9634 17.1119C36.957 17.0204 36.8673 17.0039 36.8508 16.9526C37.0943 16.732 37.3067 16.373 37.4816 16.244C37.4999 16.2302 37.4441 16.1497 37.4468 16.1268C37.4505 16.0911 37.5118 16.135 37.5375 16.1268C37.6858 16.0755 37.738 15.8988 37.8616 15.8155C37.9421 15.7615 37.9787 15.7138 38.0282 15.6397C38.0685 15.5857 38.1976 15.6379 38.2333 15.5811C38.2598 15.5399 38.2186 15.4611 38.2461 15.4355C38.4548 15.2396 38.2049 15.6433 38.4732 15.2249C38.4933 15.1929 38.5491 15.2002 38.605 15.2011L38.8485 14.7049C39.0939 15.6003 39.3127 16.5003 39.4253 17.4479C39.4528 17.6759 39.5087 17.8746 39.516 18.1099C39.5279 18.5054 39.6286 18.8835 39.5874 19.2855C39.5801 19.3605 39.6387 19.4329 39.6368 19.507C39.6185 20.2825 39.668 20.5764 39.5865 21.4251L39.4574 22.782V22.7802Z" fill="#27ABF3"/>
<path d="M27.1955 38.3759C26.6333 38.5947 26.0611 38.7485 25.4879 38.9215C25.4458 38.9215 25.4412 38.884 25.4843 38.8739C25.8011 38.7146 26.1416 38.852 26.2231 38.5132L26.3907 37.821L26.4786 36.6757C26.5683 35.5028 26.5491 35.3161 26.4987 34.1148C26.4786 34.0507 26.4172 33.9592 26.4026 33.8557L26.2424 32.7342L26.1755 32.367C26.1481 32.2169 26.4612 31.9102 26.4337 31.8232C27.1204 31.9541 26.8842 32.5547 27.0252 32.5236L27.0893 32.5099C27.1039 32.5062 27.1094 32.5501 27.1076 32.5712C27.1048 32.6023 27.0828 32.6115 27.0316 32.6133C27.1497 33.0427 27.1634 33.5042 27.2165 33.9592L27.2962 34.6431C27.331 34.9388 27.3365 35.2163 27.3383 35.5175L27.341 35.9524C27.3465 36.7452 27.2504 37.5564 27.0307 38.3017L27.1936 38.3749L27.1955 38.3759Z" fill="#145079"/>
<path d="M7.96947 35.4177C7.51169 35.0286 7.03011 34.6715 6.60254 34.2403C6.66388 34.0819 6.87171 34.5479 7.07772 34.4985C7.02278 34.4325 7.08138 34.395 7.0887 34.3501C7.12075 34.1359 7.09053 33.9171 7.1354 33.7074C7.21505 33.3366 7.28555 32.974 7.33774 32.5968C7.37894 32.2929 7.46683 32.0283 7.67192 31.8186C7.73051 31.8882 7.82298 31.8809 7.89897 31.8973C8.15533 31.9541 8.17639 32.1912 8.14801 32.4091C8.09216 32.8477 8.04546 33.2734 7.96673 33.7056C7.92644 33.9262 7.80009 34.7484 7.79735 34.9242C7.79643 34.9974 7.70762 35.0606 7.73875 35.1393C7.79185 35.2767 8.1004 35.4012 7.96947 35.4177Z" fill="#144F79"/>
<path d="M18.8464 6.97112C18.7283 7.21008 18.3684 7.87752 18.232 8.05606L17.9079 8.47905C17.8292 8.58159 17.7541 8.69238 17.6708 8.79492C17.2386 9.33418 16.4476 10.0154 15.8818 10.4008C15.6593 10.5528 15.4258 10.6828 15.1979 10.8082L14.8856 10.9813C14.5899 11.1452 14.2603 11.2514 13.9408 11.3484L12.9318 11.656L12.4091 11.7568C12.2095 11.7952 12.0318 11.7888 11.8377 11.8419L11.4944 11.9344C11.3671 11.9692 11.2454 12.0323 11.0934 11.9994C10.9185 11.9609 10.751 12.0342 10.5981 12.0507C10.3838 12.0745 10.3078 12.155 10.1961 12.3272C10.0762 12.5112 9.9938 13.0614 9.98831 13.3059C9.98464 13.4652 9.87844 13.6126 9.91323 13.7911C9.92879 13.869 9.86562 13.945 9.82808 13.9761C9.75392 14.0365 9.67427 13.9605 9.59278 13.9422C9.3996 13.8964 9.2229 14.0274 9.03795 14.0832C8.62503 14.2086 8.44375 14.6655 8.28902 15.0272L8.18007 15.2808C8.02351 15.647 8.11964 16.1716 8.20479 16.5763C8.31557 17.1018 8.56919 17.523 8.85759 17.9377C9.11761 18.3113 9.88576 18.8002 10.4021 18.7544L10.7665 19.821L11.0192 20.3511C11.26 20.8575 11.3104 20.8391 11.5786 21.2402L11.8066 21.5826C11.8066 21.5826 12.4896 22.337 12.5546 22.4075C12.6096 22.467 13.1534 22.9285 13.1507 22.9797C13.1433 23.1454 12.6764 23.4036 12.6233 23.4219C12.4988 23.4668 12.4887 23.6014 12.4081 23.6463C12.2369 23.7433 11.6656 23.9127 11.4853 23.9356C11.2399 23.9667 10.5358 23.9731 10.3701 23.9072L10.0103 23.7644C8.72208 23.2544 8.99675 22.6144 8.42727 22.5869L7.68384 22.5503C7.18119 22.5256 6.69228 22.2198 6.39015 21.8325C6.17774 21.5615 5.83257 21.0177 5.82158 20.7247L5.80144 20.2101C5.77672 19.5619 5.82524 19.127 6.14203 18.5731L6.49177 17.9597C6.80032 17.4195 7.15739 16.6129 7.28557 16.0114C7.30571 15.9162 7.45037 15.3027 7.44945 15.3128C7.46319 15.1407 7.63989 13.9889 7.63531 14.0896L7.65637 13.6199C7.66369 13.4551 7.71771 13.3068 7.75067 13.142L7.84498 12.665L7.92646 12.2228L8.01893 11.8309C8.07753 11.5801 8.1169 11.255 8.19472 11.1113C8.25881 10.9932 8.22951 10.8961 8.26705 10.7799L8.48038 10.1216C8.7349 9.3351 9.03887 8.59533 9.46094 7.88668C9.5113 7.80245 9.52686 7.74019 9.58637 7.65596L10.1147 6.90794L10.4974 6.43185C10.7858 6.07295 11.1502 5.77173 11.477 5.48791L11.8011 5.20591C11.933 5.09055 13.0591 4.42219 13.2349 4.37001C13.4848 4.29585 13.6936 4.164 13.9316 4.0697C13.7183 4.15393 14.7392 3.8875 14.5945 3.90673C14.7291 3.88842 14.8591 3.85546 14.9763 3.82342L15.327 3.72545C15.3764 3.71172 16.8395 3.61009 17.105 3.65037C17.3833 3.69249 17.6195 3.72179 17.9097 3.71629C18.0663 3.71355 18.2284 3.85546 18.3895 3.86828C18.5378 3.88018 18.633 3.98089 18.7594 4.03125C18.8857 4.0816 19.0277 4.08435 19.1339 4.17682C19.4863 4.48262 19.7537 4.24366 20.2188 4.17408C20.8954 4.07336 21.0071 4.21985 21.2754 4.27479C21.9089 4.40388 22.7073 4.76828 23.2072 5.16471L23.7657 5.60785L24.142 6.01619C24.2427 6.12605 24.3031 6.23409 24.3919 6.33847C24.716 6.71842 24.9431 7.12676 25.1821 7.55983L25.3981 7.95352L25.6142 8.48912C25.6673 8.62005 25.7021 8.70886 25.7305 8.85626C25.7671 9.04487 25.8751 9.22981 25.9282 9.42483C25.9896 9.64822 26.3842 11.0445 26.3897 11.1287C26.4236 11.6084 26.5353 11.96 26.5618 12.2576C26.5829 12.4984 26.7339 13.5696 26.7403 13.706L26.7761 14.4357C26.7815 14.5511 26.8832 14.6573 26.8456 14.7909C26.8017 14.9447 26.8997 15.0775 26.9051 15.2121C26.918 15.5097 27.0342 15.7752 27.0873 16.059C27.1203 16.2339 27.134 16.3593 27.2064 16.525C27.3922 16.9517 27.5415 17.371 27.7896 17.7757C27.8454 17.8663 27.7612 18.0513 27.9489 18.0632C28.3591 18.8304 28.7354 19.4978 28.5696 20.4116C28.5367 20.5947 28.5339 20.7952 28.4717 20.96C28.3179 21.3683 28.1357 21.7959 27.7951 22.0642C27.6596 22.1704 27.4636 22.2619 27.3144 22.3498C26.8539 22.6199 26.2917 22.6043 25.8019 22.6007C25.6389 22.5998 25.5959 22.7508 25.5236 22.8515C25.2306 23.2626 24.8305 23.541 24.3883 23.7644C24.3397 23.7891 24.2958 23.8852 24.2317 23.8687C24.2299 23.8687 23.2063 24.0418 22.7979 23.9337L22.4454 23.8413C22.1204 23.7561 22.092 23.8111 21.8284 23.562C21.7395 23.4778 21.6919 23.3926 21.5757 23.334C21.3871 23.2388 21.2012 23.15 21.0199 23.0429L21.5116 22.63C21.8906 22.3123 22.7503 21.4416 22.8986 20.9856C22.9353 20.8721 22.9801 20.8336 23.0479 20.7732C23.1422 20.6899 23.5569 19.8192 23.5826 19.7496C23.6457 19.5729 23.6247 19.4127 23.7437 19.2415C23.838 19.1051 23.8215 18.8908 23.9634 18.7517C24.434 18.6885 24.912 18.4953 25.2526 18.1382C25.4045 17.9789 25.7699 17.5578 25.8339 17.3728C25.9337 17.0862 26.0995 16.8006 26.1269 16.4948C26.2954 14.5932 25.7323 14.6188 25.6911 14.3597C25.6664 14.2059 25.4183 14.1336 25.3066 14.0603C24.923 13.8076 24.8012 14.1107 24.5274 13.9715C24.4487 13.316 24.1987 12.6943 23.784 12.1862C23.3958 11.711 23.4956 11.863 23.1001 11.5123L22.7027 11.1607C22.5462 11.0225 22.3502 10.9401 22.2019 10.7918C21.9446 10.5345 21.6654 10.3093 21.4392 10.0236C21.3422 9.90092 21.2635 9.78556 21.1545 9.66196C20.7013 9.14832 20.3653 8.54955 20.1135 7.90957C20.0412 7.72554 19.9588 7.56898 19.9029 7.37763C19.8114 7.06542 19.7665 6.72575 19.5614 6.44925C19.4955 6.36044 19.2767 6.39706 19.1952 6.44467C18.9874 6.56552 18.9398 6.78434 18.8464 6.97387V6.97112Z" fill="#8A503D"/>
<path d="M20.2573 17.8517C20.5246 17.8526 20.8158 17.8672 21.0868 17.8874C22.3383 17.7171 23.2594 16.7676 23.5743 15.5747L23.6403 15.5948L23.6348 16.0242C23.5505 16.6788 23.4544 17.3289 23.3482 17.9744C22.9774 19.6947 22.038 21.264 20.618 22.3416C19.7519 22.999 18.7777 23.4659 17.6882 23.5538C16.1702 23.6756 14.8719 23.2407 13.6936 22.3169C12.3239 21.2429 11.3791 19.7661 11.0092 18.0632C10.8361 17.2694 10.718 16.4957 10.6997 15.7083C10.7089 15.6241 10.7153 15.6021 10.7821 15.6616C10.9872 16.8153 12.0392 17.6887 13.2441 17.8636C14.9708 18.1144 16.5456 16.7896 16.6554 15.0629C16.9173 14.7598 17.4996 14.7131 17.744 15.0171C17.8411 15.8091 18.124 16.5204 18.7127 17.078C19.1485 17.4909 19.6731 17.7977 20.2591 17.8508L20.2573 17.8517Z" fill="#EEC198"/>
<path d="M29.7263 26.3966C29.6878 26.3847 29.6887 26.3701 29.7263 26.3527L29.7043 18.6336L29.8114 18.3626C29.8911 18.2591 30.0119 18.1089 30.1666 18.1089L36.5747 18.1108C36.8402 18.1108 37.1377 18.358 37.1377 18.6354L37.1359 26.3096C37.1359 26.5275 36.8649 26.7317 36.701 26.8324L30.2564 26.8297C29.9945 26.8297 29.7757 26.6026 29.7263 26.3975V26.3966Z" fill="#E08C35"/>
<path d="M20.458 25.3089C20.4461 26.1897 19.9809 27.5035 19.6257 28.3504C18.0491 28.9327 16.3205 28.9226 14.7485 28.3431C14.4757 27.6619 14.2514 27.0073 14.0527 26.3169L13.876 25.3501L14.0856 23.4933C15.9891 24.7037 18.3604 24.6689 20.2721 23.5043C20.3105 24.1223 20.4662 24.6936 20.4589 25.308L20.458 25.3089Z" fill="#EEC198"/>
<path d="M14.188 33.5115C13.5874 32.9145 13.0005 32.3597 12.4548 31.7133C12.0996 31.2922 11.738 30.9104 11.4157 30.4791C11.7819 29.9701 12.9685 29.5205 12.7625 28.8622C12.6517 28.5088 12.0355 28.5381 11.6601 28.4896L10.6045 28.3532C10.6365 28.0895 10.7794 27.8945 10.87 27.6619C10.9606 27.4294 11.065 27.1987 11.184 26.9661L12.0511 25.2659C12.3367 24.7056 12.7332 24.2313 13.2624 23.9127C13.2203 24.5124 13.0921 24.9995 13.1543 25.6175C13.223 26.3042 13.418 26.9414 13.6497 27.5951C14.0745 28.7954 14.5487 29.928 15.0853 31.0816L16.3313 33.7623L16.8175 34.8079C17.0684 35.3463 17.3101 35.8636 17.5234 36.4495C17.4465 36.4971 16.9008 35.9917 16.801 35.9057C15.9001 35.1265 15.0331 34.3547 14.1871 33.5124L14.188 33.5115Z" fill="#1990D3"/>
<path d="M22.9235 30.4965C22.7917 30.7437 22.5949 30.9296 22.4117 31.131L21.2481 32.41C20.273 33.4813 19.2769 34.4957 18.1855 35.4479C18.1544 35.4754 18.0317 35.5321 18.0106 35.4946C17.8669 35.2346 17.779 34.9571 17.6499 34.6889C17.7167 34.3977 17.866 34.1844 17.9942 33.9107C18.9344 31.9028 19.8665 29.9216 20.6529 27.8496C20.9395 27.0952 21.1235 26.3609 21.2096 25.569C21.2673 25.0398 21.1162 24.528 21.1281 23.9969C21.4678 24.1517 21.7031 24.3989 21.9109 24.7038C22.4182 25.4454 22.8118 26.2282 23.1991 27.0403C23.4106 27.4862 23.6331 27.8835 23.8098 28.3761C23.5013 28.4035 23.2184 28.4576 22.9199 28.4914L22.0556 28.5894C21.7644 28.6224 21.5502 28.8494 21.6152 29.1479C21.6637 29.3704 21.8267 29.5388 22.008 29.6652C22.1407 29.7577 22.7917 30.3024 22.9235 30.4965Z" fill="#1990D1"/>
<path d="M22.5517 12.6275C21.9218 11.5728 20.109 11.4391 19.187 12.1065C18.9023 12.253 18.8437 12.5753 18.6615 12.8024C18.3282 13.2171 17.9849 13.5898 17.8594 14.151C17.4291 13.9368 17.0025 13.9834 16.5676 14.1959C16.2984 13.0615 15.4643 12.3171 14.3574 12.0599C16.4046 11.2679 18.1918 9.80574 19.2337 7.83545C19.6759 9.16576 20.7123 10.5281 21.7744 11.4373L22.8602 12.3611C23.3556 12.7822 23.7593 13.9084 23.6962 14.0585C23.6788 14.0997 23.59 14.1528 23.5442 14.1217C23.3748 13.5467 23.026 13.0102 22.5526 12.6284L22.5517 12.6275Z" fill="#EEC198"/>
<path d="M28.8095 24.9125C28.8406 25.351 28.8425 25.7905 28.815 26.2327L28.6978 26.1979L28.6603 25.0205C28.5458 24.9885 28.4579 25.037 28.3966 25.1679C28.3407 25.3693 28.2309 25.4764 28.067 25.4884C27.9782 25.6092 27.8619 25.7053 27.7191 25.7786C27.5121 26.0679 27.2631 26.3124 26.9582 26.4881C26.9051 26.5605 26.852 26.6346 26.7989 26.7097C26.1727 26.359 25.4787 26.1292 24.8122 25.8225L23.166 25.0654C23.035 25.0049 22.8822 24.9143 22.8931 24.7632C24.1731 24.9207 25.3533 24.3897 26.1251 23.3899C27.2018 23.4531 28.1585 22.9971 28.8379 22.1163L28.847 24.2587L28.8113 24.9125H28.8095Z" fill="#3AB3F5"/>
<path d="M15.8322 14.7625C15.9064 16.0919 14.8572 17.1815 13.4445 17.0542C12.4218 16.9617 11.6042 16.124 11.5264 15.1022C11.4705 14.3789 11.7351 13.6794 12.2954 13.2418C12.788 12.8582 13.4005 12.7794 14.0066 12.8417C15.0247 12.947 15.7746 13.7298 15.8322 14.7625Z" fill="#EEC198"/>
<path d="M21.2349 17.0039C20.5089 17.1742 19.8012 16.9892 19.2875 16.5058C18.7501 16.0004 18.4919 15.3146 18.6054 14.5712C18.7492 13.6291 19.5613 12.8966 20.5107 12.8271C21.1791 12.7776 21.7879 12.9909 22.2302 13.4478C22.6623 13.8937 22.8848 14.5199 22.806 15.1563C22.6971 16.0361 22.1285 16.7951 21.2359 17.0039H21.2349Z" fill="#EEC199"/>
<path d="M28.8097 24.9125C28.8289 24.9226 28.8592 24.9555 28.8582 25.0013L28.8445 26.1357C28.8363 26.7885 29.1357 27.3094 29.6822 27.6097C29.6731 27.6372 29.642 27.6482 29.6401 27.7141C29.7976 27.6638 29.9276 27.7416 30.0796 27.7416L33.2639 27.7526L32.8602 27.8295L32.547 28.1655C32.5306 28.1829 32.4601 28.2003 32.4674 28.2461C32.472 28.2735 32.5599 28.2222 32.569 28.2717L31.6544 29.0188C31.5738 29.0838 31.6278 29.2358 31.5179 29.2843C31.4767 29.2816 31.4896 29.2284 31.4804 29.2138C31.4667 29.1918 31.4264 29.1781 31.3925 29.1946C31.2671 29.2532 31.2241 29.3923 31.2103 29.5095C30.9393 29.5562 31.2515 29.656 30.91 29.8556C30.7672 29.9389 30.6427 30.0451 30.5154 30.1522C30.4623 30.1971 30.4678 30.2868 30.3625 30.3051C30.3021 30.3161 30.2554 30.3784 30.2288 30.4288C30.1995 30.4846 30.3387 30.5359 30.2352 30.6128C30.1821 30.448 30.205 30.3299 30.0677 30.2841C29.9587 30.2136 29.9395 30.0305 29.8763 29.9041C29.5449 29.2367 29.1869 28.5747 28.6348 28.052C28.08 27.5255 27.451 27.0778 26.7973 26.7116L26.7158 26.4406C26.8019 26.4241 26.7817 26.4918 26.866 26.5367C26.8513 26.381 27.0006 26.4021 27.0399 26.3453C27.1141 26.2364 27.202 26.2144 27.2816 26.1567C27.429 26.0505 27.5151 25.8546 27.6598 25.7164C27.7614 25.6193 27.9729 25.579 27.9729 25.4225L28.2164 25.3675C28.2741 25.1624 28.384 25.0022 28.5506 24.8823L28.6358 24.9619C28.7182 24.8328 28.5881 24.7111 28.7346 24.5966L28.7868 26.2263C28.8473 25.7896 28.7859 25.352 28.8097 24.9143V24.9125Z" fill="#27ABF2"/>
<path d="M19.2484 29.2513L18.8264 30.2548L17.1967 33.7724L15.4928 30.1175L15.0991 29.244C16.3425 29.6331 17.9429 29.6615 19.2494 29.2513H19.2484Z" fill="#26AAF2"/>
<path d="M25.3938 15.9977C25.3206 16.8491 24.9571 17.6155 24.189 17.9213C24.3254 17.2117 24.3977 16.5617 24.4526 15.8777L24.5012 15.2753C24.5176 15.0665 24.6321 14.8065 24.8601 14.7644C25.2794 14.6866 25.425 15.636 25.3938 15.9977Z" fill="#EDC199"/>
<path d="M9.87298 15.2258C9.87756 15.2368 9.87481 15.2579 9.87298 15.2698C9.86291 15.354 9.85193 15.3705 9.84094 15.3201C9.82171 15.5399 9.84735 15.7413 9.91602 15.9244L9.95447 16.492L10.1632 17.9423C9.29252 17.6283 8.8915 16.5863 8.95651 15.7056C8.96749 15.5609 8.94094 15.3769 9.04715 15.2826C9.17716 14.7644 9.70635 14.5337 9.81897 15.1736L9.87298 15.2258Z" fill="#EFC095"/>
<path d="M10.7902 14.1244C10.6648 14.1153 10.6593 13.9926 10.6767 13.8919C10.7362 13.5376 10.738 13.1906 10.8644 12.8518L11.6279 12.7502C11.2159 13.11 10.9468 13.5879 10.7902 14.1254V14.1244Z" fill="#E8C8A5"/>
<path d="M29.7263 26.3527C29.7015 26.1531 29.6814 25.9544 29.6796 25.7548C29.6585 23.3514 29.664 20.9454 29.6823 18.542L29.8114 18.3616C29.8334 18.4587 29.7913 18.5365 29.7253 18.639V26.3517L29.7263 26.3527Z" fill="#C5AF81"/>
<path d="M29.7261 26.3527V26.3966C29.6336 26.392 29.6382 26.3435 29.6382 26.262V18.6775C29.6382 18.5951 29.6547 18.5823 29.6822 18.5429C29.7115 21.1486 29.6986 23.7625 29.7261 26.3536V26.3527Z" fill="#624D20"/>
<path d="M23.3475 17.9753C23.2825 17.9112 23.3127 17.7638 23.3512 17.6686C23.4199 17.4964 23.5142 16.688 23.5462 16.4545C23.5883 16.1423 23.6634 15.8612 23.5746 15.5756C23.5856 15.4016 23.5847 15.1462 23.7147 14.9731C23.711 16.0077 23.559 16.9975 23.3484 17.9753H23.3475Z" fill="#E5D8BF"/>
<path d="M9.87282 15.2258C9.68513 15.2533 9.88655 14.964 9.62745 14.9026C9.5716 14.8889 9.55695 14.8074 9.52399 14.8019C9.40405 14.7809 9.26763 14.9164 9.25207 15.0015C9.35919 15.0729 9.19622 15.0555 9.1541 15.0748C9.13762 15.1828 9.10283 15.2341 9.0479 15.2826C9.03874 15.1068 9.14861 14.942 9.29784 14.8248C9.39764 14.747 9.52948 14.7186 9.64301 14.7781C9.8481 14.8862 9.80598 15.0775 9.87373 15.2258H9.87282Z" fill="#E2D7CB"/>
<path d="M10.7801 15.6626C10.7499 15.6726 10.7225 15.6891 10.6977 15.7093C10.6922 15.4785 10.6098 15.2451 10.6593 14.9832L10.7801 15.6626Z" fill="#D1E3E7"/>
<path d="M21.0869 17.8874C20.8131 17.9249 20.5229 17.8755 20.2574 17.8517C20.2473 17.8041 20.2894 17.8041 20.3132 17.8096C20.3398 17.816 20.3645 17.8352 20.3947 17.8352L21.0411 17.8471C21.0713 17.8471 21.0915 17.8672 21.0869 17.8874Z" fill="#24261E"/>
<path d="M9.87305 15.2698C9.84467 15.4923 9.90143 15.7056 9.917 15.9244C9.78699 16.0892 9.82819 15.2195 9.7998 15.2872C9.80988 15.2634 9.85565 15.2661 9.87397 15.2698H9.87305Z" fill="#E2D7CB"/>
<path d="M26.7504 8.97344C26.679 9.02105 26.6287 8.92949 26.6424 8.86632C26.6543 8.8123 26.625 8.72075 26.7248 8.72532L26.7504 8.97344Z" fill="#27ABF3"/>
<path d="M17.2028 19.8961C18.9259 19.8329 19.011 18.8304 19.456 19.1069C19.5531 19.1673 19.6748 19.3861 19.5723 19.5244C18.4535 21.0204 15.9467 20.9902 14.8022 19.6416C14.6676 19.4832 14.696 19.2662 14.815 19.1472C14.9707 18.9906 15.1675 19.0602 15.3186 19.2122C15.8157 19.713 16.496 19.9236 17.2037 19.8979L17.2028 19.8961Z" fill="#174F79"/>
<path d="M17.9906 18.0202C17.6152 18.3772 17.1684 18.5274 16.6758 18.2866C16.4717 18.152 16.2318 18.0357 16.1494 17.7638C16.0945 17.5834 16.1796 17.3976 16.2977 17.3463C16.7354 17.1595 16.7042 17.729 17.1831 17.7629C17.5365 17.7876 17.617 17.3133 17.8826 17.317C17.9979 17.3188 18.1215 17.3518 18.1783 17.4836C18.2598 17.6704 18.1774 17.9341 17.9915 18.0192L17.9906 18.0202Z" fill="#16507E"/>
<path d="M17.9905 18.0201C17.6939 18.4312 17.0942 18.5622 16.6758 18.2866C16.7591 18.2545 16.8241 18.3296 16.9157 18.3488C17.4897 18.4743 17.6554 18.173 17.9905 18.0201Z" fill="#223241"/>
<path d="M30.6425 18.8908C32.4609 18.8524 34.3698 18.8524 36.1844 18.8908C36.2989 18.8908 36.4344 18.9531 36.4362 19.1243L36.4518 21.0296C36.4527 21.1761 36.3868 21.2832 36.2723 21.3354C36.2595 21.3738 36.2458 21.3729 36.2284 21.3354C34.3451 21.3464 32.4663 21.3491 30.5913 21.3436C30.4713 21.3436 30.3578 21.1559 30.3514 21.0195C30.323 20.4528 30.3404 19.9016 30.3441 19.3294C30.345 19.149 30.4768 19.0236 30.5583 18.8973C30.605 18.8451 30.6325 18.8432 30.6425 18.8918V18.8908Z" fill="#135078"/>
<path d="M36.2405 26.0167C35.8999 26.0679 35.5502 26.0698 35.238 26.024C34.9944 25.9883 34.9551 25.6541 35.0247 25.4801C35.1116 25.2641 35.3717 25.1496 35.6317 25.2274C35.6921 24.9894 35.6463 24.766 35.6601 24.5151C35.4458 24.5353 35.2499 24.528 35.1052 24.3787C34.9908 24.2606 34.9487 24.1086 34.999 23.9704C35.0494 23.8321 35.1757 23.704 35.357 23.6966C35.7022 23.6829 36.3302 23.6142 36.4319 23.91L36.4484 25.5735C36.4493 25.699 36.4145 25.991 36.2396 26.0176L36.2405 26.0167Z" fill="#154F79"/>
<path d="M31.3923 26.0734C31.0416 26.0359 30.4117 26.2575 30.3568 25.6761C30.3357 25.4591 30.5042 25.2815 30.6891 25.1734C31.1048 25.2 31.8491 25.0315 31.8592 25.6358C31.8629 25.872 31.666 26.1027 31.3932 26.0734H31.3923Z" fill="#174E75"/>
<path d="M33.8487 26.0359C33.5503 26.0587 33.2701 26.0551 32.9982 26.0395C32.7611 26.0258 32.6869 25.7786 32.6832 25.5891C32.6722 25.0745 33.358 25.1569 33.7709 25.1835C34.0026 25.199 34.1426 25.362 34.1719 25.5543C34.1994 25.7337 34.0831 26.0175 33.8487 26.0349V26.0359Z" fill="#124F7C"/>
<path d="M33.8047 22.9806C33.5611 23.0127 33.3524 22.9834 33.1244 22.9925C32.88 23.0017 32.6721 22.7646 32.6923 22.5384C32.7142 22.294 32.9367 22.1456 33.1793 22.1475L33.6573 22.1511C33.8953 22.153 34.1096 22.25 34.1517 22.51C34.1791 22.6803 34.0455 22.9477 33.8047 22.9797V22.9806Z" fill="#164E78"/>
<path d="M30.5988 22.207C30.6116 22.1686 30.6254 22.1695 30.6428 22.207C30.9559 22.1722 31.2946 22.1731 31.6087 22.2061C31.7213 22.3032 31.8952 22.446 31.8486 22.6218C31.7167 23.1244 31.2919 22.9679 30.9 22.9944C30.651 23.0118 30.3782 22.8571 30.347 22.5897C30.3287 22.4286 30.4514 22.2217 30.5988 22.207Z" fill="#164F78"/>
<path d="M31.5589 24.4767C31.5461 24.5151 31.5324 24.5142 31.515 24.4767C31.2494 24.5133 30.9537 24.5115 30.6855 24.4767C30.6873 24.5453 30.6278 24.5325 30.5985 24.4767C30.4264 24.3943 30.354 24.2304 30.3586 24.0647C30.3613 23.9301 30.4785 23.7213 30.6443 23.7039C30.9217 23.6746 31.1936 23.6902 31.4683 23.6966C31.6907 23.7021 31.84 23.8669 31.8546 24.0711C31.8665 24.2386 31.7393 24.4382 31.5589 24.4767Z" fill="#174E79"/>
<path d="M34.0459 24.3888C33.7227 24.5298 33.3593 24.5581 32.9555 24.4739C32.7742 24.4638 32.6671 24.1782 32.6982 24.0262C32.733 23.8559 32.8942 23.692 33.0828 23.6911L33.741 23.6884C33.9553 23.6884 34.0945 23.7808 34.1549 23.9548C34.2126 24.1223 34.1796 24.2743 34.0459 24.3888Z" fill="#144F75"/>
<path d="M35.2184 22.2015C35.5361 22.1704 35.9051 22.1713 36.2347 22.2061C36.3921 22.1841 36.4324 22.3654 36.4498 22.51C36.4773 22.738 36.3876 22.9065 36.1468 22.9687C35.9344 23.0237 35.6826 22.9843 35.4427 22.988C35.2028 22.9916 35.0344 22.8488 34.995 22.6355C34.9694 22.4981 35.027 22.1997 35.2184 22.2006V22.2015Z" fill="#154E7A"/>
<path d="M36.1837 18.8478C34.3453 18.8624 32.4986 18.8771 30.6418 18.8917L30.5576 18.8972C30.5897 18.8478 30.5869 18.8029 30.6895 18.8029L36.2634 18.8047C36.2716 18.8615 36.2112 18.8496 36.1828 18.8478H36.1837Z" fill="#BEB381"/>
<path d="M30.5933 21.3812C32.4711 21.3409 34.3489 21.3262 36.2276 21.3354H36.2716C36.2716 21.3482 36.2725 21.4224 36.2221 21.4224H30.65C30.6088 21.4224 30.5988 21.3931 30.5933 21.3812Z" fill="#93888F"/>
<path d="M36.2275 21.3345C34.3625 21.3345 32.4737 21.3455 30.5931 21.3803C30.5886 21.3711 30.5822 21.3546 30.5904 21.3418L36.2275 21.3336V21.3345Z" fill="#393036"/>
<path d="M36.1837 18.8478V18.8917H30.6418C30.6372 18.8752 30.6555 18.8478 30.6931 18.8478H36.1837Z" fill="#5D521F"/>
<path d="M34.0459 24.3888C34.0002 24.4282 33.9452 24.4913 33.8711 24.5197C33.5671 24.5463 33.2586 24.5655 32.9546 24.5197C32.9564 24.5078 32.9546 24.4877 32.9546 24.4739C33.2201 24.4877 33.4929 24.4776 33.7795 24.4684C33.8766 24.4657 33.9544 24.3558 34.045 24.3888H34.0459Z" fill="#413722"/>
<path d="M30.6854 24.4767C30.9509 24.517 31.2485 24.5142 31.5149 24.4767H31.5589C31.557 24.5389 31.5268 24.5673 31.4756 24.5673H30.6808C30.6158 24.5673 30.5929 24.5188 30.5984 24.4767H30.6854Z" fill="#B3A78D"/>
<path d="M31.5588 22.164C31.2567 22.1787 30.9518 22.1933 30.6423 22.2079H30.5984C30.5956 22.1695 30.6176 22.1173 30.6808 22.1173L31.4727 22.1201C31.5176 22.1201 31.5615 22.131 31.5579 22.1649L31.5588 22.164Z" fill="#9D8B86"/>
<path d="M36.1833 22.164L36.2337 22.207L35.2174 22.2024C35.2092 22.1887 35.2092 22.1759 35.2192 22.1631C35.5342 22.1283 35.8674 22.1283 36.1833 22.1649V22.164Z" fill="#3D2921"/>
<path d="M31.559 22.164L31.6084 22.2061H30.6425C30.637 22.1896 30.658 22.1649 30.6883 22.1649L31.559 22.1631V22.164Z" fill="#382826"/>
<path d="M36.1833 22.1639L35.2192 22.1621C35.2302 22.1374 35.2623 22.1182 35.308 22.1182H36.0982C36.143 22.1182 36.187 22.1301 36.1833 22.1639Z" fill="#9F8F8B"/>
<path d="M33.8707 24.5197C33.6986 24.5856 32.9432 24.5911 32.9542 24.5197H33.8707Z" fill="#B9AB90"/>
<path d="M13.8806 15.9583C13.4146 15.9336 13.1125 15.6323 13.0228 15.2149C12.9358 14.8111 13.0063 14.3808 13.3157 14.0832C13.5437 13.8644 13.9173 13.8104 14.2304 13.923C14.495 14.0182 14.7001 14.2865 14.7724 14.6033C14.9445 15.3531 14.4364 15.9867 13.8797 15.9574L13.8806 15.9583Z" fill="#14507A"/>
<path d="M21.2472 15.4968C20.9653 15.994 20.2859 16.0874 19.8794 15.6744C19.493 15.2826 19.5022 14.5785 19.8354 14.1564C20.0241 13.9175 20.3006 13.847 20.5743 13.8754C20.8316 13.9019 21.0962 14.031 21.2408 14.2956C21.4404 14.6609 21.467 15.1105 21.2482 15.4968H21.2472Z" fill="#155078"/>
<path d="M35.6573 20.6029L31.1829 20.6039L31.1655 19.6407L35.6628 19.6434L35.6573 20.6029Z" fill="#1C91D5"/>
<path d="M31.5153 24.4767C31.518 24.5106 31.4759 24.5215 31.4301 24.5215H30.7709C30.726 24.5215 30.6821 24.5106 30.6858 24.4767H31.5153Z" fill="#44391F"/>
</g>
</g>
<defs>
<clipPath id="clip0_685_3655">
<rect width="40" height="40" fill="white"/>
</clipPath>
</defs>
</svg>
