<svg width="30" height="30" viewBox="0 0 30 30" fill="none" xmlns="http://www.w3.org/2000/svg">
<rect width="30" height="30" rx="3" fill="#00A6F2" fill-opacity="0.6"/>
<path fill-rule="evenodd" clip-rule="evenodd" d="M27 15.116V20.567C27 20.9431 26.6868 21.2484 26.301 21.2484H15.8808C15.495 21.2484 15.1818 20.9431 15.1818 20.567V15.116C15.1818 14.7399 15.495 14.4346 15.8808 14.4346H26.301C26.6868 14.4346 27 14.7399 27 15.116ZM18.5346 15.6417C18.5346 15.5992 18.5173 15.5585 18.4865 15.5285C18.4558 15.4985 18.414 15.4816 18.3705 15.4816H17.6635C17.62 15.4816 17.5782 15.4985 17.5474 15.5285C17.5166 15.5585 17.4993 15.5992 17.4993 15.6417V20.0413C17.4993 20.0838 17.5166 20.1245 17.5474 20.1545C17.5782 20.1845 17.62 20.2014 17.6635 20.2014H18.3705C18.414 20.2014 18.4558 20.1845 18.4865 20.1545C18.5173 20.1245 18.5346 20.0838 18.5346 20.0413V15.6417ZM21.2586 15.7797V19.9033C21.2586 20.0678 21.4154 20.2014 21.6086 20.2014C21.8017 20.2014 21.9586 20.0678 21.9586 19.9033V15.7797C21.9586 15.6152 21.8017 15.4816 21.6086 15.4816C21.4154 15.4816 21.2586 15.6152 21.2586 15.7797ZM22.5279 15.7797V19.9033C22.5279 20.0678 22.6847 20.2014 22.8779 20.2014C23.0711 20.2014 23.2279 20.0678 23.2279 19.9033V15.7797C23.2279 15.6152 23.0711 15.4816 22.8779 15.4816C22.6847 15.4816 22.5279 15.6152 22.5279 15.7797ZM24.6825 15.6417C24.6825 15.5992 24.6652 15.5585 24.6344 15.5285C24.6037 15.4985 24.5619 15.4816 24.5184 15.4816H23.8114C23.7679 15.4816 23.7261 15.4985 23.6953 15.5285C23.6645 15.5585 23.6472 15.5992 23.6472 15.6417V20.0413C23.6472 20.0838 23.6645 20.1245 23.6953 20.1545C23.7261 20.1845 23.7679 20.2014 23.8114 20.2014H24.5184C24.5619 20.2014 24.6037 20.1845 24.6344 20.1545C24.6652 20.1245 24.6825 20.0838 24.6825 20.0413V15.6417ZM25.3518 15.7797V19.9033C25.3518 20.0678 25.5087 20.2014 25.7018 20.2014C25.895 20.2014 26.0518 20.0678 26.0518 19.9033V15.7797C26.0518 15.6152 25.895 15.4816 25.7018 15.4816C25.5087 15.4816 25.3518 15.6152 25.3518 15.7797ZM20.5892 15.6417C20.5892 15.5992 20.5719 15.5585 20.5412 15.5285C20.5104 15.4985 20.4686 15.4816 20.4251 15.4816H19.7181C19.6746 15.4816 19.6328 15.4985 19.602 15.5285C19.5713 15.5585 19.554 15.5992 19.554 15.6417V20.0413C19.554 20.0838 19.5713 20.1245 19.602 20.1545C19.6328 20.1845 19.6746 20.2014 19.7181 20.2014H20.4251C20.4686 20.2014 20.5104 20.1845 20.5412 20.1545C20.5719 20.1245 20.5892 20.0838 20.5892 20.0413V15.6417ZM16.13 15.7797V19.9033C16.13 20.0678 16.2868 20.2014 16.48 20.2014C16.6732 20.2014 16.83 20.0678 16.83 19.9033V15.7797C16.83 15.6152 16.6732 15.4816 16.48 15.4816C16.2868 15.4816 16.13 15.6152 16.13 15.7797ZM13.0796 15.1709L13.6276 15.2709C13.85 15.3115 13.9969 15.5205 13.9552 15.7374L13.531 17.9466C13.4894 18.1635 13.2749 18.3067 13.0524 18.2661L12.4904 18.1635C12.6638 17.2827 12.8968 16.0997 13.0796 15.1709ZM12.6844 13.558L11.552 19.3096C11.4705 19.9519 11.6674 20.5983 12.0953 21.0932C12.332 21.3669 13.0172 21.5909 13.5823 21.7365C14.0738 21.8627 14.4162 22.296 14.4162 22.7915C14.4169 23.0092 14.4169 23.237 14.4169 23.4355C14.4169 23.7472 14.1576 24 13.8378 24H6.80621C6.64096 24 6.48351 23.9311 6.37361 23.8108C6.26376 23.6905 6.21186 23.5301 6.23101 23.37L7.40571 13.558H12.6844ZM16.2726 12.8757H5.26861C4.40921 12.8757 3.62361 12.4023 3.23941 11.653C2.85516 10.9037 2.93826 10.0071 3.45406 9.33708L4.79661 7.59299C5.56861 6.59014 6.77981 6 8.06601 6H16.2726V12.8757ZM19.221 6.8468V12.0289C19.221 12.2534 19.1294 12.4689 18.9665 12.6277C18.8036 12.7865 18.5826 12.8757 18.3523 12.8757H16.9726V6H18.3523C18.5826 6 18.8036 6.08924 18.9665 6.24803C19.1294 6.40683 19.221 6.62221 19.221 6.8468Z" fill="white"/>
</svg>
