<svg width="33" height="33" viewBox="0 0 33 33" fill="none" xmlns="http://www.w3.org/2000/svg">
<g clip-path="url(#clip0_606_3942)">
<path fill-rule="evenodd" clip-rule="evenodd" d="M32.0299 27.1017V29.3609C32.0299 29.8783 31.608 30.3002 31.0907 30.3002H30.025C29.721 28.6541 28.2782 27.4072 26.544 27.4072C24.8098 27.4072 23.367 28.6541 23.063 30.3002H21.5756V14.8446H27.9785C28.6384 14.8446 29.2013 15.1965 29.4399 15.7582L31.9239 21.6072C31.9974 21.7803 32.0299 21.939 32.0299 22.1246V23.3819H30.9131C30.4076 23.3819 29.9772 23.5517 29.7585 23.753C29.5732 23.9236 29.4901 24.1277 29.4901 24.3325V26.151C29.4901 26.3559 29.5732 26.56 29.7585 26.7306C29.9772 26.9318 30.4076 27.1017 30.9131 27.1017H32.0299ZM29.4983 21.657C29.5772 21.657 29.6508 21.6175 29.6943 21.5517C29.7379 21.4859 29.7455 21.4026 29.7146 21.33L27.8387 16.9129C27.8018 16.8261 27.7166 16.7697 27.6223 16.7697H23.2181C23.1558 16.7697 23.096 16.7945 23.0519 16.8385C23.0078 16.8826 22.9831 16.9424 22.9831 17.0048V21.4219C22.9831 21.4843 23.0078 21.5441 23.0519 21.5882C23.096 21.6322 23.1558 21.657 23.2181 21.657H29.4983ZM32.0299 24.4172V26.0664H30.9131C30.78 26.0664 30.6152 26.0201 30.5254 25.9913V24.4923C30.6152 24.4635 30.78 24.4172 30.9131 24.4172H32.0299ZM5.0465 30.3002H2.22351C1.53374 30.3002 0.971191 29.7376 0.971191 29.0479V11.2699C0.971191 11.0245 1.1701 10.8256 1.41546 10.8256H19.8056C20.0797 10.8256 20.3337 10.9145 20.5403 11.0648V30.3002H12.0086C11.7045 28.6541 10.2617 27.4072 8.52754 27.4072C6.79336 27.4072 5.35049 28.6541 5.0465 30.3002ZM15.8008 15.6684C15.8008 15.5858 15.7338 15.5189 15.6513 15.5189H14.2968C14.2143 15.5189 14.1473 15.5858 14.1473 15.6684V20.159C14.1473 20.3415 14.2962 20.4904 14.4787 20.4904H18.7874C18.9699 20.4904 19.1188 20.3415 19.1188 20.159V15.6684C19.1188 15.6287 19.1031 15.5907 19.075 15.5627C19.047 15.5346 19.0089 15.5189 18.9693 15.5189H17.6149C17.5323 15.5189 17.4654 15.5858 17.4654 15.6684V17.3977C17.4654 17.4373 17.4496 17.4753 17.4216 17.5034C17.3935 17.5314 17.3555 17.5472 17.3158 17.5472H15.9503C15.9107 17.5472 15.8726 17.5314 15.8446 17.5034C15.8165 17.4753 15.8008 17.4373 15.8008 17.3977V15.6684ZM10.1823 15.6684C10.1823 15.5858 10.1153 15.5189 10.0327 15.5189H8.67831C8.59574 15.5189 8.52877 15.5858 8.52877 15.6684V20.159C8.52877 20.3415 8.67766 20.4904 8.8602 20.4904H13.1688C13.3514 20.4904 13.5003 20.3415 13.5003 20.159V15.6684C13.5003 15.6287 13.4845 15.5907 13.4564 15.5627C13.4284 15.5346 13.3904 15.5189 13.3507 15.5189H11.9964C11.9138 15.5189 11.8468 15.5858 11.8468 15.6684V17.3977C11.8468 17.4373 11.831 17.4753 11.803 17.5034C11.775 17.5314 11.737 17.5472 11.6973 17.5472H10.3318C10.2921 17.5472 10.2541 17.5314 10.2261 17.5034C10.198 17.4753 10.1823 17.4373 10.1823 17.3977V15.6684ZM4.56373 15.6684C4.56373 15.5858 4.49676 15.5189 4.41419 15.5189H3.05977C2.9772 15.5189 2.91023 15.5858 2.91023 15.6684V20.159C2.91023 20.3415 3.05912 20.4904 3.24166 20.4904H7.55029C7.73283 20.4904 7.88171 20.3415 7.88171 20.159V15.6684C7.88171 15.6287 7.86599 15.5907 7.83791 15.5627C7.80989 15.5346 7.77184 15.5189 7.73218 15.5189H6.37782C6.29526 15.5189 6.22829 15.5858 6.22829 15.6684V17.3977C6.22829 17.4373 6.2125 17.4753 6.18448 17.5034C6.15646 17.5314 6.11841 17.5472 6.07875 17.5472H4.71326C4.6736 17.5472 4.63555 17.5314 4.60753 17.5034C4.57945 17.4753 4.56373 17.4373 4.56373 17.3977V15.6684ZM10.1823 21.2869C10.1823 21.2043 10.1153 21.1374 10.0327 21.1374H8.67831C8.59574 21.1374 8.52877 21.2043 8.52877 21.2869V25.7775C8.52877 25.9601 8.67766 26.1089 8.8602 26.1089H13.1688C13.3514 26.1089 13.5003 25.9601 13.5003 25.7775V21.2869C13.5003 21.2473 13.4845 21.2092 13.4564 21.1812C13.4284 21.1531 13.3904 21.1374 13.3507 21.1374H11.9964C11.9138 21.1374 11.8468 21.2043 11.8468 21.2869V23.0162C11.8468 23.0559 11.831 23.0939 11.803 23.1219C11.775 23.15 11.737 23.1657 11.6973 23.1657H10.3318C10.2921 23.1657 10.2541 23.15 10.2261 23.1219C10.198 23.0939 10.1823 23.0559 10.1823 23.0162V21.2869ZM15.8008 21.2869C15.8008 21.2043 15.7338 21.1374 15.6513 21.1374H14.2968C14.2143 21.1374 14.1473 21.2043 14.1473 21.2869V25.7775C14.1473 25.9601 14.2962 26.1089 14.4787 26.1089H18.7874C18.9699 26.1089 19.1188 25.9601 19.1188 25.7775V21.2869C19.1188 21.2473 19.1031 21.2092 19.075 21.1812C19.047 21.1531 19.0089 21.1374 18.9693 21.1374H17.6149C17.5323 21.1374 17.4654 21.2043 17.4654 21.2869V23.0162C17.4654 23.0559 17.4496 23.0939 17.4216 23.1219C17.3935 23.15 17.3555 23.1657 17.3158 23.1657H15.9503C15.9107 23.1657 15.8726 23.15 15.8446 23.1219C15.8165 23.0939 15.8008 23.0559 15.8008 23.0162V21.2869ZM4.56373 21.2869C4.56373 21.2043 4.49676 21.1374 4.41419 21.1374H3.05977C2.9772 21.1374 2.91023 21.2043 2.91023 21.2869V25.7775C2.91023 25.9601 3.05912 26.1089 3.24166 26.1089H7.55029C7.73283 26.1089 7.88171 25.9601 7.88171 25.7775V21.2869C7.88171 21.2473 7.86599 21.2092 7.83791 21.1812C7.80989 21.1531 7.77184 21.1374 7.73218 21.1374H6.37782C6.29526 21.1374 6.22829 21.2043 6.22829 21.2869V23.0162C6.22829 23.0559 6.2125 23.0939 6.18448 23.1219C6.15646 23.15 6.11841 23.1657 6.07875 23.1657H4.71326C4.6736 23.1657 4.63555 23.15 4.60753 23.1219C4.57945 23.0939 4.56373 23.0559 4.56373 23.0162V21.2869ZM26.544 28.4425C27.9274 28.4425 29.0488 29.5639 29.0488 30.9473C29.0488 32.3306 27.9274 33.452 26.544 33.452C25.1606 33.452 24.0393 32.3306 24.0393 30.9473C24.0393 29.5639 25.1606 28.4425 26.544 28.4425ZM26.544 30.0939C26.0723 30.0939 25.6906 30.4756 25.6906 30.9473C25.6906 31.4189 26.0723 31.8006 26.544 31.8006C27.0156 31.8006 27.3973 31.4189 27.3973 30.9473C27.3973 30.4756 27.0156 30.0939 26.544 30.0939ZM8.52754 28.4425C9.91089 28.4425 11.0323 29.5639 11.0323 30.9473C11.0323 32.3306 9.91089 33.452 8.52754 33.452C7.14413 33.452 6.02278 32.3306 6.02278 30.9473C6.02278 29.5639 7.14413 28.4425 8.52754 28.4425ZM8.52754 30.0939C8.05584 30.0939 7.6742 30.4756 7.6742 30.9473C7.6742 31.4189 8.05584 31.8006 8.52754 31.8006C8.99919 31.8006 9.38088 31.4189 9.38088 30.9473C9.38088 30.4756 8.99919 30.0939 8.52754 30.0939ZM4.79291 8.94805C4.75817 8.98836 4.71229 9.00965 4.65962 9.00965C4.60585 9.00965 4.56107 8.98836 4.52633 8.94805L2.11713 6.11096C2.07229 6.05719 2.0622 5.98776 2.09131 5.92389C2.1205 5.86119 2.18093 5.82198 2.25036 5.82198H3.37269V2.09557C3.37269 1.90288 3.52947 1.74609 3.72216 1.74609H5.59708C5.78977 1.74609 5.94656 1.90288 5.94656 2.09557V5.82198H7.06888C7.13831 5.82198 7.19881 5.86119 7.22793 5.92389C7.25704 5.98776 7.24695 6.05719 7.20211 6.11096L4.79291 8.94805ZM11.1478 8.94805C11.1131 8.98836 11.0672 9.00965 11.0145 9.00965C10.9607 9.00965 10.916 8.98836 10.8812 8.94805L8.47203 6.11096C8.42719 6.05719 8.41716 5.98776 8.44627 5.92389C8.47539 5.86119 8.53583 5.82198 8.60532 5.82198H9.72758V2.09557C9.72758 1.90288 9.88443 1.74609 10.0771 1.74609H11.952C12.1447 1.74609 12.3014 1.90288 12.3014 2.09557V5.82198H13.4238C13.4932 5.82198 13.5537 5.86119 13.5828 5.92389C13.6119 5.98776 13.6018 6.05719 13.5571 6.11096L11.1478 8.94805ZM17.5027 8.94805C17.468 8.98836 17.4221 9.00965 17.3694 9.00965C17.3156 9.00965 17.2709 8.98836 17.2361 8.94805L14.8269 6.11096C14.7821 6.05719 14.772 5.98776 14.8012 5.92389C14.8303 5.86119 14.8908 5.82198 14.9602 5.82198H16.0825V2.09557C16.0825 1.90288 16.2393 1.74609 16.4319 1.74609H18.3069C18.4996 1.74609 18.6563 1.90288 18.6563 2.09557V5.82198H19.7787C19.8481 5.82198 19.9086 5.86119 19.9377 5.92389C19.9668 5.98776 19.9567 6.05719 19.912 6.11096L17.5027 8.94805Z" fill="#00A6F2"/>
</g>
<defs>
<clipPath id="clip0_606_3942">
<rect width="33" height="33" fill="white"/>
</clipPath>
</defs>
</svg>
