<svg width="70" height="70" viewBox="0 0 70 70" fill="none" xmlns="http://www.w3.org/2000/svg">
<path d="M66.1098 14.6559V62.4244C66.1098 64.2263 64.6579 65.6781 62.882 65.6781H13.6227C11.8209 65.6781 10.369 64.2263 10.369 62.4244V60.5189H56.3875C59.2524 60.5189 61.5727 58.1855 61.5727 55.3337V11.4281H62.882C64.6579 11.4281 66.1098 12.88 66.1098 14.6559Z" fill="#F28500"/>
<path d="M56.3914 4.32184H7.12829C5.3394 4.32184 3.89014 5.77239 3.89014 7.55999V55.3298C3.89014 57.1187 5.34069 58.5679 7.12829 58.5679H56.3914C58.1803 58.5679 59.6296 57.1174 59.6296 55.3298V7.55999C59.6296 5.77239 58.1803 4.32184 56.3914 4.32184ZM21.2346 52.4391C21.2346 52.7722 20.965 53.0418 20.6318 53.0418H10.0203C9.68717 53.0418 9.41754 52.7722 9.41754 52.4391V42.6352C9.41754 42.302 9.68717 42.0324 10.0203 42.0324H20.6318C20.965 42.0324 21.2346 42.302 21.2346 42.6352V52.4391ZM21.2346 36.3481C21.2346 36.6813 20.965 36.9509 20.6318 36.9509H10.0203C9.68717 36.9509 9.41754 36.6813 9.41754 36.3481V26.5442C9.41754 26.2111 9.68717 25.9415 10.0203 25.9415H20.6318C20.965 25.9415 21.2346 26.2111 21.2346 26.5442V36.3481ZM21.2346 20.2559C21.2346 20.5891 20.965 20.8587 20.6318 20.8587H10.0203C9.68717 20.8587 9.41754 20.5891 9.41754 20.2559V10.452C9.41754 10.1189 9.68717 9.84925 10.0203 9.84925H20.6318C20.965 9.84925 21.2346 10.1189 21.2346 10.452V20.2559ZM51.6068 48.2546H28.5522C28.0155 48.2546 27.58 47.8191 27.58 47.2824C27.58 46.7457 28.0155 46.3102 28.5522 46.3102H51.6081C52.1448 46.3102 52.5803 46.7457 52.5803 47.2824C52.5803 47.8191 52.1435 48.2546 51.6068 48.2546ZM51.6068 32.1637H28.5522C28.0155 32.1637 27.58 31.7281 27.58 31.1915C27.58 30.6548 28.0155 30.2192 28.5522 30.2192H51.6081C52.1448 30.2192 52.5803 30.6548 52.5803 31.1915C52.5803 31.7281 52.1435 32.1637 51.6068 32.1637ZM51.6068 16.0728H28.5522C28.0155 16.0728 27.58 15.6372 27.58 15.1005C27.58 14.5639 28.0155 14.1283 28.5522 14.1283H51.6081C52.1448 14.1283 52.5803 14.5639 52.5803 15.1005C52.5803 15.6372 52.1435 16.0728 51.6068 16.0728Z" fill="#F28500"/>
</svg>
