<svg width="30" height="30" viewBox="0 0 30 30" fill="none" xmlns="http://www.w3.org/2000/svg">
<path d="M29.3487 18.0215V25.547L22.8336 29.3085V21.783L29.3487 18.0215ZM21.5172 4.45461L15 0.691895L8.48277 4.45461L15 8.21738L21.5172 4.45461ZM15 21.876C12.4169 21.876 10.3228 19.7819 10.3228 17.1988C10.3228 14.6156 12.4169 12.5215 15 12.5215C17.5831 12.5215 19.6773 14.6156 19.6773 17.1988C19.6773 19.7819 17.5831 21.876 15 21.876ZM17.3552 15.2639C17.0828 15.0308 16.6731 15.0627 16.44 15.3351L14.4508 17.6557L13.5505 16.6531C13.3105 16.3863 12.8996 16.3647 12.6329 16.6048C12.3662 16.8448 12.3446 17.2557 12.5846 17.5224L13.9788 19.075C14.2507 19.3772 14.7295 19.3561 14.9761 19.0375L17.4263 16.1789C17.6594 15.9066 17.6275 15.497 17.3552 15.2639ZM15.4395 22.7376V25.547L21.9546 29.3085V21.783L19.5465 20.3926C18.6201 21.7088 17.1369 22.6047 15.4395 22.7376ZM10.4536 20.3926L8.04543 21.783V29.3085L14.5606 25.547V22.7376C12.8631 22.6048 11.38 21.7088 10.4536 20.3926ZM22.3941 13.4988L20.0399 14.858C20.371 15.5694 20.5562 16.3624 20.5562 17.1988C20.5562 18.0738 20.3536 18.9016 19.993 19.6379L22.3942 21.0242L28.9114 17.2615L22.3941 13.4988ZM9.44389 17.1988C9.44389 16.3625 9.6291 15.5695 9.96016 14.858L7.60598 13.4988L1.08877 17.2616L7.60598 21.0243L10.0071 19.638C9.6465 18.9017 9.44389 18.0739 9.44389 17.1988ZM0.651367 25.547L7.16646 29.3085V21.783L0.651367 18.0215V25.547ZM15.4395 11.6599C17.1752 11.7958 18.6872 12.7295 19.6086 14.0946L21.9546 12.7401V5.21457L15.4395 8.97611V11.6599ZM14.5606 11.6599V8.97611L8.04543 5.21457V12.7401L10.3915 14.0946C11.3129 12.7295 12.8248 11.7958 14.5606 11.6599Z" fill="#00A6F2"/>
</svg>
