<svg width="30" height="30" viewBox="0 0 30 30" fill="none" xmlns="http://www.w3.org/2000/svg">
<g clip-path="url(#clip0_144_1591)">
<path d="M5.5 26C6.32843 26 7 25.3284 7 24.5C7 23.6716 6.32843 23 5.5 23C4.67157 23 4 23.6716 4 24.5C4 25.3284 4.67157 26 5.5 26Z" fill="#00A6F2"/>
<path d="M4 18H8V19H4V18Z" fill="#00A6F2"/>
<path d="M11 24.375V0.625C11 0.281258 10.725 0 10.3889 0H0.611111C0.275007 0 0 0.281258 0 0.625V24.375C0 27.475 2.46888 30 5.5 30C8.53112 30 11 27.475 11 24.375ZM2.44444 3.125C2.44444 2.78126 2.71945 2.5 3.05556 2.5H7.94444C8.28055 2.5 8.55556 2.78126 8.55556 3.125V5.625C8.55556 5.96874 8.28055 6.25 7.94444 6.25H3.05556C2.71945 6.25 2.44444 5.96874 2.44444 5.625V3.125ZM2.44444 10C2.44444 9.65626 2.71945 9.375 3.05556 9.375H7.94444C8.28055 9.375 8.55556 9.65626 8.55556 10V12.5C8.55556 12.8437 8.28055 13.125 7.94444 13.125H3.05556C2.71945 13.125 2.44444 12.8437 2.44444 12.5V10ZM2.44444 19.375V16.875C2.44444 16.5313 2.71945 16.25 3.05556 16.25H7.94444C8.28055 16.25 8.55556 16.5313 8.55556 16.875V19.375C8.55556 19.7187 8.28055 20 7.94444 20H3.05556C2.71945 20 2.44444 19.7187 2.44444 19.375ZM3.05556 24.375C3.05556 22.9937 4.14943 21.875 5.5 21.875C6.85057 21.875 7.94444 22.9937 7.94444 24.375C7.94444 25.7562 6.85057 26.875 5.5 26.875C4.14943 26.875 3.05556 25.7562 3.05556 24.375Z" fill="#00A6F2"/>
<path d="M4 11H8V12H4V11Z" fill="#00A6F2"/>
<path d="M4 4H8V5H4V4Z" fill="#00A6F2"/>
<path d="M27.8285 8.95074C28.0682 8.69114 28.0556 8.29228 27.797 8.05803L20.3985 1.16982C20.1399 0.929275 19.7426 0.948248 19.5092 1.20151L13.0252 8.21631V24.4239C13.0252 24.6202 13.0189 24.8101 13 25L18.7965 18.7259L27.8285 8.95074Z" fill="#00A6F2"/>
<path d="M29.3687 19H20.4545L12.1149 27.7022C11.6035 28.6189 10.8775 29.4072 10 30H29.3687C29.7159 30 30 29.725 30 29.3889V19.6111C30 19.275 29.7159 19 29.3687 19Z" fill="#00A6F2"/>
</g>
<defs>
<clipPath id="clip0_144_1591">
<rect width="30" height="30" fill="white"/>
</clipPath>
</defs>
</svg>
