<svg width="20" height="21" viewBox="0 0 20 21" fill="none" xmlns="http://www.w3.org/2000/svg">
<g clip-path="url(#clip0_69_1185)">
<path d="M9.99999 14.159C12.0206 14.159 13.6586 12.521 13.6586 10.5004C13.6586 8.47981 12.0206 6.8418 9.99999 6.8418C7.97941 6.8418 6.3414 8.47981 6.3414 10.5004C6.3414 12.521 7.97941 14.159 9.99999 14.159Z" fill="#00A6F2"/>
<path d="M9.99999 0.743164C8.07035 0.743174 6.18405 1.31539 4.57962 2.38744C2.97518 3.4595 1.72469 4.98325 0.98625 6.766C0.247815 8.54876 0.0546093 10.5104 0.431066 12.403C0.807523 14.2956 1.73673 16.034 3.10119 17.3985C4.46565 18.7629 6.20408 19.6921 8.09664 20.0686C9.9892 20.445 11.9509 20.2518 13.7336 19.5134C15.5164 18.7749 17.0401 17.5244 18.1122 15.92C19.1843 14.3156 19.7565 12.4293 19.7565 10.4996C19.7535 7.91296 18.7247 5.43306 16.8956 3.604C15.0666 1.77494 12.5867 0.746087 9.99999 0.743164ZM15.9131 12.3715L14.1326 12.724C14.1066 12.7291 14.082 12.7398 14.0605 12.7552C14.0389 12.7706 14.0209 12.7905 14.0077 12.8134C13.9944 12.8364 13.9862 12.8619 13.9836 12.8883C13.981 12.9147 13.9841 12.9413 13.9927 12.9664L14.5776 14.6845C14.5891 14.7184 14.6102 14.7482 14.6382 14.7704C14.6662 14.7926 14.7 14.8062 14.7356 14.8097C14.7712 14.8132 14.807 14.8064 14.8388 14.79C14.8706 14.7737 14.897 14.7486 14.9148 14.7176L15.1558 14.3003L17.0961 15.4205C16.37 16.4678 15.4213 17.3415 14.3178 17.979C13.2143 18.6165 11.9835 19.0021 10.7136 19.108V16.865H11.1955C11.2312 16.865 11.2662 16.8547 11.2962 16.8353C11.3263 16.816 11.3501 16.7884 11.3649 16.7558C11.3796 16.7233 11.3847 16.6871 11.3795 16.6518C11.3743 16.6164 11.359 16.5833 11.3354 16.5564L10.14 15.1908C10.1225 15.1708 10.101 15.1548 10.0768 15.1439C10.0527 15.1329 10.0265 15.1273 9.99998 15.1273C9.97347 15.1273 9.94727 15.1329 9.92313 15.1439C9.89899 15.1548 9.87747 15.1708 9.86001 15.1908L8.66454 16.5564C8.641 16.5833 8.6257 16.6164 8.62048 16.6518C8.61526 16.6871 8.62034 16.7233 8.6351 16.7558C8.64987 16.7884 8.6737 16.816 8.70374 16.8353C8.73379 16.8547 8.76877 16.865 8.80451 16.865H9.2864V19.108C8.01644 19.0021 6.78563 18.6166 5.68217 17.979C4.57872 17.3415 3.62994 16.4678 2.90383 15.4206L4.84419 14.3003L5.08513 14.7176C5.103 14.7486 5.12941 14.7737 5.1612 14.7901C5.19299 14.8064 5.22882 14.8132 5.26439 14.8097C5.29996 14.8063 5.33378 14.7926 5.36179 14.7704C5.38981 14.7482 5.41083 14.7184 5.42235 14.6846L6.00731 12.9664C6.01586 12.9413 6.01894 12.9147 6.01635 12.8883C6.01377 12.8619 6.00557 12.8364 5.99232 12.8135C5.97906 12.7905 5.96105 12.7706 5.9395 12.7552C5.91794 12.7398 5.89333 12.7291 5.86733 12.724L4.08691 12.3715C4.05185 12.3646 4.01553 12.3679 3.98229 12.381C3.94906 12.3942 3.92032 12.4166 3.89952 12.4457C3.87871 12.4748 3.86672 12.5092 3.86497 12.5449C3.86323 12.5806 3.8718 12.6161 3.88967 12.647L4.13061 13.0643L2.18762 14.1861C1.64245 13.0336 1.35969 11.7746 1.35969 10.4996C1.35969 9.22469 1.64247 7.96563 2.18764 6.81314L4.13061 7.93492L3.88967 8.35223C3.8718 8.38319 3.86323 8.41863 3.86497 8.45433C3.86672 8.49004 3.87871 8.52448 3.89952 8.55354C3.92032 8.5826 3.94906 8.60506 3.9823 8.61822C4.01553 8.63137 4.05185 8.63468 4.08691 8.62774L5.86733 8.27526C5.89333 8.27012 5.91794 8.25947 5.93949 8.24404C5.96104 8.22861 5.97905 8.20875 5.99231 8.1858C6.00556 8.16284 6.01376 8.13731 6.01634 8.11093C6.01893 8.08455 6.01585 8.05792 6.0073 8.03283L5.42234 6.31469C5.41082 6.28085 5.3898 6.25105 5.36179 6.22885C5.33377 6.20665 5.29996 6.19299 5.26439 6.1895C5.22881 6.18601 5.19299 6.19285 5.1612 6.20918C5.12941 6.22552 5.10299 6.25067 5.08512 6.28163L4.84418 6.69895L2.90384 5.57869C3.62995 4.5314 4.57873 3.6577 5.68218 3.02019C6.78563 2.38267 8.01644 1.99713 9.2864 1.89119V4.13424H8.80452C8.76877 4.13425 8.73379 4.14454 8.70374 4.16391C8.6737 4.18327 8.64987 4.21088 8.63511 4.24343C8.62034 4.27598 8.61526 4.31209 8.62048 4.34745C8.6257 4.38281 8.641 4.41592 8.66454 4.44281L9.86001 5.80846C9.87747 5.82841 9.89899 5.84439 9.92313 5.85534C9.94728 5.86629 9.97348 5.87196 9.99999 5.87196C10.0265 5.87196 10.0527 5.86629 10.0768 5.85534C10.101 5.84439 10.1225 5.82841 10.14 5.80846L11.3354 4.44281C11.359 4.41592 11.3743 4.38281 11.3795 4.34745C11.3847 4.31209 11.3796 4.27597 11.3649 4.24342C11.3501 4.21087 11.3263 4.18327 11.2962 4.1639C11.2662 4.14454 11.2312 4.13425 11.1955 4.13424H10.7136V1.89118C11.9835 1.99712 13.2143 2.38267 14.3178 3.02018C15.4212 3.6577 16.37 4.5314 17.0961 5.57868L15.1558 6.69895L14.9148 6.28163C14.897 6.25067 14.8706 6.22552 14.8388 6.20918C14.807 6.19285 14.7712 6.18601 14.7356 6.1895C14.7 6.19299 14.6662 6.20665 14.6382 6.22885C14.6102 6.25105 14.5891 6.28085 14.5776 6.31469L13.9927 8.03283C13.9841 8.05792 13.981 8.08455 13.9836 8.11093C13.9862 8.13731 13.9944 8.16284 14.0077 8.1858C14.0209 8.20875 14.0389 8.22861 14.0605 8.24404C14.082 8.25947 14.1066 8.27012 14.1326 8.27526L15.9131 8.62774C15.9481 8.63468 15.9844 8.63137 16.0177 8.61821C16.0509 8.60506 16.0796 8.5826 16.1005 8.55354C16.1213 8.52448 16.1333 8.49003 16.135 8.45433C16.1367 8.41863 16.1282 8.38318 16.1103 8.35223L15.8694 7.93492L17.8123 6.81314C18.3575 7.96563 18.6403 9.22469 18.6403 10.4996C18.6403 11.7746 18.3575 13.0336 17.8123 14.1861L15.8694 13.0643L16.1103 12.647C16.1282 12.6161 16.1367 12.5806 16.135 12.5449C16.1333 12.5092 16.1213 12.4748 16.1005 12.4457C16.0796 12.4166 16.0509 12.3942 16.0177 12.381C15.9844 12.3679 15.9481 12.3646 15.9131 12.3715Z" fill="#00A6F2"/>
</g>
<defs>
<clipPath id="clip0_69_1185">
<rect width="20" height="20" fill="white" transform="translate(0 0.5)"/>
</clipPath>
</defs>
</svg>
