<svg width="80" height="81" viewBox="0 0 80 81" fill="none" xmlns="http://www.w3.org/2000/svg">
<path d="M73.5101 7.78711C72.324 7.7941 71.1887 8.27631 70.3528 9.12844C70.3528 9.12844 51.574 28.1049 40.1701 39.6437L32.1332 31.5063C30.382 29.7377 27.5475 29.7377 25.7963 31.5063C24.0497 33.2793 24.0497 36.1492 25.7963 37.9223L37.0127 49.2789C38.764 51.0472 41.5983 51.0472 43.3495 49.2789C53.96 38.5397 76.6896 15.5445 76.6896 15.5445C78.4363 13.7714 78.4363 10.9015 76.6896 9.12844C75.8482 8.2709 74.704 7.78816 73.5101 7.78711Z" fill="#F28500"/>
<path d="M37.8983 4.16211C18.1286 4.16228 2 20.4746 2 40.4915C2 60.5081 18.1286 76.8384 37.8983 76.8384C54.1217 76.8384 68.3651 65.7686 72.5639 49.902C73.3759 46.8345 73.7789 43.6672 73.779 40.4915C73.779 37.9849 71.7739 35.9521 69.2983 35.9488C66.8227 35.9521 64.8176 37.9849 64.8176 40.4915C64.8174 42.8734 64.4977 45.2531 63.8887 47.5538C60.7298 59.4907 50.1038 67.7649 37.8983 67.765C22.9781 67.7649 10.9614 55.5982 10.9614 40.4915C10.9614 25.3848 22.978 13.2356 37.8983 13.2356C40.2511 13.2358 42.5834 13.5603 44.8559 14.176C47.2492 14.8257 49.7096 13.3881 50.3514 10.9648C50.352 10.9627 50.3525 10.9604 50.3531 10.9583C50.9948 8.53505 49.5748 6.04399 47.1815 5.39428C47.1794 5.39376 47.1773 5.39306 47.1751 5.39253C44.1451 4.57062 41.0353 4.16228 37.8983 4.16211Z" fill="#F28500"/>
</svg>
