<svg width="30" height="30" viewBox="0 0 30 30" fill="none" xmlns="http://www.w3.org/2000/svg">
<g clip-path="url(#clip0_732_5580)">
<path d="M16.2187 3.1875C16.2187 3.14062 16.2187 3.14062 16.2187 3.09375C16.2187 3.04688 16.2187 3.04688 16.2187 3C16.125 2.4375 15.6094 1.96875 15.0469 1.96875H12.375C12.0938 1.96875 11.9062 1.78125 11.9062 1.5C11.8594 0.703125 11.1562 0 10.3125 0C9.46875 0 8.76563 0.703125 8.76563 1.54688C8.76563 1.82812 8.53125 2.01562 8.29688 2.01562H5.625C5.01562 2.01562 4.54688 2.4375 4.45312 3.04688V3.14062V3.23438V4.125H16.2187V3.1875Z" fill="#00A6F2"/>
<path d="M20.1094 3.98438H17.1562V4.59375C17.1562 4.875 16.9688 5.0625 16.6875 5.0625H3.98437C3.70312 5.0625 3.51562 4.82813 3.51562 4.59375V3.98438H0.515625C0.234375 3.98438 0.046875 4.17187 0.046875 4.45312V29.5312C0.046875 29.8125 0.234375 30 0.515625 30H20.1094C20.3906 30 20.5781 29.7656 20.5781 29.5312V4.45312C20.5781 4.17187 20.3906 3.98438 20.1094 3.98438ZM5.01562 22.2656L3 24.2812C2.90625 24.375 2.8125 24.4219 2.67188 24.4219C2.53125 24.4219 2.4375 24.375 2.34375 24.2812L1.5 23.4375C1.3125 23.25 1.3125 22.9688 1.5 22.7812C1.6875 22.5938 1.96875 22.5938 2.15625 22.7812L2.625 23.2969L4.3125 21.6094C4.5 21.4219 4.78125 21.4219 4.96875 21.6094C5.20312 21.7969 5.20312 22.0781 5.01562 22.2656ZM5.01562 15.5625L3 17.5781C2.90625 17.6719 2.76562 17.7188 2.67188 17.7188C2.53125 17.7188 2.4375 17.6719 2.34375 17.5781L1.5 16.7344C1.3125 16.5469 1.3125 16.2656 1.5 16.0781C1.6875 15.8906 1.96875 15.8906 2.15625 16.0781L2.625 16.5469L4.3125 14.8594C4.5 14.6719 4.78125 14.6719 4.96875 14.8594C5.20312 15.0938 5.20312 15.375 5.01562 15.5625ZM5.01562 8.85938L3 10.875C2.90625 10.9688 2.76562 11.0156 2.67188 11.0156C2.53125 11.0156 2.4375 10.9688 2.34375 10.875L1.5 10.0312C1.3125 9.84375 1.3125 9.5625 1.5 9.375C1.6875 9.1875 1.96875 9.1875 2.15625 9.375L2.625 9.89062L4.3125 8.20312C4.5 8.01562 4.78125 8.01562 4.96875 8.20312C5.20312 8.39062 5.20312 8.67188 5.01562 8.85938ZM17.9531 26.8125H6.89062C6.60937 26.8125 6.42187 26.5781 6.42187 26.3438C6.42187 26.1094 6.65625 25.875 6.89062 25.875H17.9531C18.2344 25.875 18.4219 26.1094 18.4219 26.3438C18.4219 26.5781 18.2344 26.8125 17.9531 26.8125ZM17.9531 23.4375H6.89062C6.60937 23.4375 6.42187 23.25 6.42187 22.9688C6.42187 22.6875 6.65625 22.5 6.89062 22.5H17.9531C18.2344 22.5 18.4219 22.7344 18.4219 22.9688C18.4219 23.25 18.2344 23.4375 17.9531 23.4375ZM17.9531 20.0625H6.89062C6.60937 20.0625 6.42187 19.875 6.42187 19.5938C6.42187 19.3125 6.65625 19.125 6.89062 19.125H17.9531C18.2344 19.125 18.4219 19.3594 18.4219 19.5938C18.4219 19.875 18.2344 20.0625 17.9531 20.0625ZM17.9531 16.7344H6.89062C6.60937 16.7344 6.42187 16.5 6.42187 16.2656C6.42187 15.9844 6.65625 15.7969 6.89062 15.7969H17.9531C18.2344 15.7969 18.4219 16.0312 18.4219 16.2656C18.4219 16.5 18.2344 16.7344 17.9531 16.7344ZM17.9531 13.3594H6.89062C6.60937 13.3594 6.42187 13.125 6.42187 12.8906C6.42187 12.6094 6.65625 12.4219 6.89062 12.4219H17.9531C18.2344 12.4219 18.4219 12.6562 18.4219 12.8906C18.4219 13.1719 18.2344 13.3594 17.9531 13.3594ZM17.9531 10.0312H6.89062C6.60937 10.0312 6.42187 9.84375 6.42187 9.5625C6.42187 9.28125 6.65625 9.09375 6.89062 9.09375H17.9531C18.2344 9.09375 18.4219 9.32812 18.4219 9.5625C18.4219 9.79688 18.2344 10.0312 17.9531 10.0312Z" fill="#00A6F2"/>
<path d="M27.8906 11.625H29.7188C29.8594 11.625 29.9531 11.5312 29.9531 11.3906V8.71875C29.9531 8.57812 29.8594 8.48438 29.7188 8.48438H27.8906C27.75 8.48438 27.6563 8.57812 27.6563 8.71875V9.46875H24.8438C24.5156 9.46875 24.2813 9.70312 24.2813 10.0312V17.25H21.6094V18.375H24.2813V25.5938C24.2813 25.9219 24.5156 26.1562 24.8438 26.1562H27.6563V26.9063C27.6563 27.0469 27.75 27.1406 27.8906 27.1406H29.7188C29.8594 27.1406 29.9531 27.0469 29.9531 26.9063V24.2344C29.9531 24.0937 29.8594 24 29.7188 24H27.8906C27.75 24 27.6563 24.0937 27.6563 24.2344V24.9844H25.4531V18.4219H27.6563V19.1719C27.6563 19.3125 27.75 19.4063 27.8906 19.4063H29.7188C29.8594 19.4063 29.9531 19.3125 29.9531 19.1719V16.5C29.9531 16.3594 29.8594 16.2656 29.7188 16.2656H27.8906C27.75 16.2656 27.6563 16.3594 27.6563 16.5V17.25H25.4531V10.5938H27.6563V11.3438C27.6563 11.4844 27.75 11.625 27.8906 11.625Z" fill="#00A6F2"/>
</g>
<defs>
<clipPath id="clip0_732_5580">
<rect width="30" height="30" fill="white"/>
</clipPath>
</defs>
</svg>
