<svg width="30" height="30" viewBox="0 0 30 30" fill="none" xmlns="http://www.w3.org/2000/svg">
<rect width="30" height="30" rx="3" fill="#F28500" fill-opacity="0.6"/>
<path fill-rule="evenodd" clip-rule="evenodd" d="M24 7.75C24.414 7.75 24.75 8.086 24.75 8.5C24.75 8.914 24.414 9.25 24 9.25H6C5.586 9.25 5.25 8.914 5.25 8.5C5.25 8.086 5.586 7.75 6 7.75H24Z" fill="white"/>
<path fill-rule="evenodd" clip-rule="evenodd" d="M19.636 6.245L20.221 8.294C20.286 8.52 20.24 8.764 20.099 8.952C19.957 9.14 19.735 9.25 19.5 9.25H10.5C10.265 9.25 10.043 9.14 9.90096 8.952C9.75996 8.764 9.71396 8.52 9.77896 8.294L10.364 6.245C10.702 5.064 11.781 4.25 13.009 4.25H16.991C18.219 4.25 19.298 5.064 19.636 6.245ZM18.193 6.657C18.04 6.12 17.55 5.75 16.991 5.75H13.009C12.45 5.75 11.96 6.12 11.807 6.657L11.494 7.75H18.506L18.193 6.657Z" fill="white"/>
<path fill-rule="evenodd" clip-rule="evenodd" d="M23.145 10.25L22.363 23.166C22.275 24.618 21.072 25.75 19.618 25.75H10.382C8.92798 25.75 7.72498 24.618 7.63698 23.166L6.85498 10.25H23.145ZM12.246 20.91L11.549 13.941C11.508 13.529 11.14 13.228 10.728 13.269C10.316 13.31 10.015 13.678 10.056 14.09L10.754 21.059C10.795 21.471 11.163 21.772 11.575 21.731C11.987 21.69 12.287 21.322 12.246 20.91ZM19.246 21.059L19.944 14.09C19.985 13.678 19.684 13.31 19.272 13.269C18.86 13.228 18.492 13.529 18.451 13.941L17.754 20.91C17.713 21.322 18.013 21.69 18.425 21.731C18.837 21.772 19.205 21.471 19.246 21.059ZM14.25 14V21C14.25 21.414 14.586 21.75 15 21.75C15.414 21.75 15.75 21.414 15.75 21V14C15.75 13.586 15.414 13.25 15 13.25C14.586 13.25 14.25 13.586 14.25 14Z" fill="white"/>
</svg>
