<svg width="20" height="20" viewBox="0 0 20 20" fill="none" xmlns="http://www.w3.org/2000/svg">
<g clip-path="url(#clip0_618_4939)">
<path d="M3.51709 10.586L1.17334 10.6055C0.85166 10.6081 0.592285 10.8697 0.592285 11.1914V19.4141C0.592285 19.7377 0.854629 20 1.17822 20H3.52197C3.84557 20 4.10791 19.7377 4.10791 19.4141V11.1719C4.10791 11.0156 4.04549 10.8659 3.93455 10.7559C3.82361 10.6458 3.67279 10.583 3.51709 10.586Z" fill="white"/>
<path d="M5.86572 10.5859L17.5845 10.5859C17.9081 10.5859 18.1704 10.3236 18.1704 10V0.585937C18.1704 0.262344 17.9081 0 17.5845 0L5.86572 0C5.54213 0 5.27979 0.262344 5.27979 0.585938L5.27979 10C5.27979 10.3236 5.54209 10.5859 5.86572 10.5859ZM9.55295 4.31227L11.3108 2.55445C11.5396 2.32562 11.9106 2.32562 12.1394 2.55445L13.8972 4.31227C14.126 4.54109 14.126 4.91207 13.8972 5.1409C13.6684 5.36973 13.2974 5.36977 13.0686 5.1409L12.311 4.38336V7.65625C12.311 7.97984 12.0487 8.24219 11.7251 8.24219C11.4015 8.24219 11.1391 7.97984 11.1391 7.65625V4.38332L10.3815 5.14086C10.1528 5.36969 9.78174 5.36969 9.55291 5.14086C9.32412 4.91207 9.32412 4.54105 9.55295 4.31227Z" fill="white"/>
<path d="M19.3669 15.7812C19.1579 14.8008 18.1872 14.1578 17.2013 14.3484L13.9683 14.9804C13.8835 17.0742 11.7842 18.4396 9.85479 17.7117C9.85479 17.7117 8.78846 17.3094 8.09732 17.0486C7.78369 16.9302 7.63315 16.5734 7.76721 16.2661C7.8919 15.9802 8.21893 15.8419 8.51115 15.9521L10.2685 16.6152C11.2632 16.9907 12.3625 16.464 12.6993 15.4633C13.0227 14.5015 12.5295 13.4719 11.5845 13.1176L9.48486 12.3305L8.45518 11.9441C8.1251 11.8203 7.779 11.7578 7.42666 11.7578H5.27979V18.7969C5.5876 18.8063 5.95439 18.823 6.05947 18.8406L9.99033 19.7996C10.4754 19.9178 10.9849 19.91 11.4665 19.7766L18.0493 17.9531C18.9919 17.6922 19.5708 16.7383 19.3669 15.7812Z" fill="white"/>
</g>
<defs>
<clipPath id="clip0_618_4939">
<rect width="20" height="20" fill="white"/>
</clipPath>
</defs>
</svg>
