<svg width="30" height="30" viewBox="0 0 30 30" fill="none" xmlns="http://www.w3.org/2000/svg">
<rect width="30" height="30" rx="3" fill="#00A6F2" fill-opacity="0.6"/>
<path d="M23.5764 8.71494L20.3481 5.48667C20.0326 5.17111 19.5225 5.17111 19.2069 5.48667L16.7857 7.90787L21.1552 12.2773L23.5764 9.85613C23.892 9.54057 23.892 9.0305 23.5764 8.71494ZM7.10093 17.5927C7.01296 17.6806 6.94598 17.7888 6.90643 17.9082L6.83137 18.131L10.0927 21.3915C10.0927 21.3915 9.28566 22.1986 8.4794 21.3923L6.42784 19.3416L5.29149 22.7506C5.19464 23.0404 5.27051 23.3608 5.48599 23.5763C5.64014 23.7296 5.84675 23.8127 6.0574 23.8127C6.14214 23.8127 6.2293 23.799 6.31243 23.7708L11.1548 22.1566C11.2735 22.1171 11.3816 22.0501 11.4704 21.9621L20.3481 13.0844L15.9787 8.71494L7.10093 17.5927Z" fill="white"/>
</svg>
