<svg width="25" height="25" viewBox="0 0 25 25" fill="none" xmlns="http://www.w3.org/2000/svg">
<g clip-path="url(#clip0_421_3643)">
<path d="M8.92096 3.99902L1.30377 0C0.638782 0.248975 6.10352e-05 1.06494 6.10352e-05 2.00684V19.082C6.10352e-05 19.8291 0.366272 20.5029 0.981458 20.913L6.84083 24.6305C8.24176 25.5829 10.254 24.5954 10.254 22.7994V6.03516C10.254 5.17085 9.77052 4.42378 8.92096 3.99902ZM7.32428 13.9648C7.32428 14.3697 6.99669 14.6973 6.59186 14.6973C6.18702 14.6973 5.85944 14.3697 5.85944 13.9648V11.0352C5.85944 10.6303 6.18702 10.3027 6.59186 10.3027C6.99669 10.3027 7.32428 10.6303 7.32428 11.0352V13.9648Z" fill="#F28500"/>
<path d="M24.7104 11.9165L19.5609 8.32148C19.0995 7.86006 18.3106 8.18682 18.3106 8.83931V11.0352H12.4512C12.0467 11.0352 11.7188 11.363 11.7188 11.7676V13.2324C11.7188 13.6369 12.0467 13.9648 12.4512 13.9648H18.3106V16.1606C18.3106 16.8131 19.0994 17.1399 19.5609 16.6785L24.7104 13.0833C25.0965 12.7903 25.0965 12.2096 24.7104 11.9165Z" fill="#F28500"/>
<path d="M11.7188 15.4297V22.0703H13.9161C15.1277 22.0703 16.1133 21.0847 16.1133 19.873V15.4297C13.5447 15.4297 14.2922 15.4297 11.7188 15.4297Z" fill="#F28500"/>
<path d="M13.916 0H4.45493L9.57314 2.68721L9.57592 2.68862C9.57612 2.68872 9.57617 2.68887 9.57617 2.68887L9.60165 2.7022C10.9177 3.35957 11.7188 4.61055 11.7188 6.03535V9.57031C14.2921 9.57031 13.5447 9.57031 16.1133 9.57031V2.19727C16.1133 0.985645 15.1277 0 13.916 0Z" fill="#F28500"/>
</g>
<defs>
<clipPath id="clip0_421_3643">
<rect width="25" height="25" fill="white"/>
</clipPath>
</defs>
</svg>
