<svg width="20" height="20" viewBox="0 0 20 20" fill="none" xmlns="http://www.w3.org/2000/svg">
<g clip-path="url(#clip0_856_4225)">
<path fill-rule="evenodd" clip-rule="evenodd" d="M6.57918 0.520508C5.46619 0.520508 4.51413 1.24707 4.15269 2.24362H1.40816C0.931874 2.24362 0.545765 2.62973 0.545765 3.10602C0.545765 3.58231 0.931874 3.96842 1.40816 3.96842H4.15101C4.51103 4.96588 5.46431 5.69153 6.57918 5.69153C7.69393 5.69153 8.64219 4.96571 9.00063 3.96842H18.6376C19.1139 3.96842 19.5 3.58231 19.5 3.10602C19.5 2.62973 19.1139 2.24362 18.6376 2.24362H8.99894C8.63909 1.24725 7.69205 0.520508 6.57918 0.520508ZM10.0271 7.41464C8.91179 7.41464 7.95693 8.13967 7.59723 9.13775H1.40816C1.37845 9.13621 1.34869 9.13621 1.31898 9.13775C0.842689 9.16238 0.476546 9.56845 0.501173 10.0447C0.525801 10.521 0.931874 10.8872 1.40816 10.8625H7.6006C7.96224 11.8587 8.91436 12.5857 10.0271 12.5857C11.1398 12.5857 12.0869 11.8587 12.4469 10.8625H18.6376C19.1139 10.8625 19.5 10.4764 19.5 10.0001C19.5 9.52386 19.1139 9.13775 18.6376 9.13775H12.4502C12.0922 8.13967 11.1424 7.41464 10.0271 7.41464ZM13.4666 14.3088C12.3513 14.3088 11.4015 15.0338 11.0435 16.0319H1.40816C1.37845 16.0303 1.34869 16.0303 1.31898 16.0319C0.842689 16.0565 0.476545 16.4626 0.501173 16.9389C0.525801 17.4152 0.931874 17.7813 1.40816 17.7567H11.0468C11.4068 18.7528 12.3539 19.4798 13.4666 19.4798C14.5793 19.4798 15.5314 18.7528 15.8931 17.7567H18.6376C19.1139 17.7567 19.5 17.3706 19.5 16.8943C19.5 16.418 19.1139 16.0319 18.6376 16.0319H15.8964C15.5367 15.0338 14.5819 14.3088 13.4666 14.3088Z" fill="white"/>
</g>
<defs>
<clipPath id="clip0_856_4225">
<rect width="20" height="20" fill="white"/>
</clipPath>
</defs>
</svg>
