<svg width="30" height="30" viewBox="0 0 30 30" fill="none" xmlns="http://www.w3.org/2000/svg">
<g clip-path="url(#clip0_723_3497)">
<path fill-rule="evenodd" clip-rule="evenodd" d="M24.1801 18.2768H21.4742C21.232 18.2768 21.0313 18.083 21.0313 17.8339V16.0553L19.7649 17.3218C19.5988 17.4948 19.3289 17.4948 19.1559 17.3218L17.2528 15.4256C17.1836 15.3495 17.1351 15.2318 17.1351 15.128C17.1351 15.0311 17.1836 14.9135 17.2528 14.8373L18.5261 13.5709H16.7407C16.4985 13.5709 16.3047 13.3771 16.3047 13.1349V10.4014C16.3047 10.1591 16.4985 9.96538 16.7407 9.96538H18.5261L17.2528 8.69894C17.0867 8.52593 17.0867 8.25603 17.2528 8.08994L19.1836 6.18683C19.3497 6.01382 19.6196 6.01382 19.7926 6.18683L21.059 7.45326V5.67472C21.059 5.4325 21.2528 5.23181 21.495 5.23181H24.2009C24.4431 5.23181 24.6438 5.4325 24.6438 5.67472V7.45326L25.8825 6.18683C26.0556 6.01382 26.3254 6.01382 26.4915 6.18683L28.3947 8.08994C28.5677 8.25603 28.5677 8.52593 28.3947 8.69894L27.1282 9.96538H28.9068C29.149 9.96538 29.3428 10.1591 29.3428 10.4014V13.1072C29.3428 13.3495 29.149 13.5432 28.9068 13.5432H27.1282L28.3947 14.8166C28.4708 14.8858 28.5192 15.0104 28.5192 15.1072C28.5192 15.2041 28.4708 15.3287 28.3947 15.3979L26.4915 17.301C26.4223 17.3702 26.2978 17.4256 26.2009 17.4256C26.0763 17.4256 25.9794 17.3702 25.9102 17.301L24.6438 16.0346V17.8131C24.5953 18.083 24.4223 18.2768 24.1801 18.2768ZM22.8376 14.7405C21.1767 14.7405 19.841 13.3979 19.841 11.7439C19.841 10.083 21.1767 8.76814 22.8376 8.76814C24.4985 8.76814 25.8133 10.1107 25.8133 11.7439C25.8133 13.3771 24.4708 14.7405 22.8376 14.7405ZM22.8376 9.61935C21.668 9.61935 20.6922 10.5744 20.6922 11.7647C20.6922 12.9342 21.6403 13.91 22.8376 13.91C24.0348 13.91 24.9829 12.9619 24.9829 11.7647C24.9552 10.5744 24.0071 9.61935 22.8376 9.61935Z" fill="#00A6F2"/>
<path fill-rule="evenodd" clip-rule="evenodd" d="M24.762 29.9723H22.2291V22.6159C22.2291 22.3737 22.0354 22.173 21.7931 22.173H16.0838C15.8416 22.173 15.6478 22.3737 15.6478 22.6159V29.9723H10.2153V22.6159C10.2153 22.3737 10.0146 22.173 9.77239 22.173H4.06997C3.82775 22.173 3.63398 22.3737 3.63398 22.6159V29.9723H1.09419C0.851975 29.9723 0.658203 29.7786 0.658203 29.5363V19.6401C0.658203 19.4948 0.727407 19.3495 0.851975 19.2734L6.96962 15.5225C7.06651 15.4464 7.19107 15.4256 7.28796 15.4741C7.40561 15.4948 7.48173 15.5709 7.55786 15.6678L9.55094 19.0519L15.3295 15.5225C15.4264 15.4741 15.5509 15.4464 15.6478 15.4741C15.7724 15.4948 15.8416 15.5709 15.9177 15.6678L18.0146 19.2042H24.762C25.0042 19.2042 25.2049 19.3979 25.2049 19.6401V29.564C25.1772 29.7786 24.9835 29.9723 24.762 29.9723ZM21.3502 29.9723H16.5267V23.0519H21.3502V29.9723ZM9.30872 29.9723H4.48519V23.0519H9.30872V29.9723Z" fill="#00A6F2"/>
<path fill-rule="evenodd" clip-rule="evenodd" d="M0.769531 18.3668L1.70379 7.96542C1.73147 7.74397 1.89756 7.57788 2.11901 7.57788H4.11901C4.34047 7.57788 4.53424 7.74397 4.53424 7.96542L5.24012 15.6194L0.769531 18.3668Z" fill="#00A6F2"/>
<path fill-rule="evenodd" clip-rule="evenodd" d="M6.47266 14.8651L7.09549 7.96541C7.11625 7.77164 7.31003 7.59863 7.53148 7.59863H9.53148C9.75293 7.59863 9.9467 7.77164 9.9467 7.98618L10.7979 17.3287L9.83598 17.9239L8.26504 15.2526C8.09895 14.9689 7.84982 14.7751 7.54532 14.6921C7.20622 14.5675 6.84636 14.6367 6.54186 14.8235L6.47266 14.8651Z" fill="#00A6F2"/>
<path fill-rule="evenodd" clip-rule="evenodd" d="M8.58282 6.89272C8.53437 6.89272 8.50669 6.89272 8.45825 6.86504C8.26448 6.8166 8.11915 6.62282 8.16759 6.40137C8.16759 6.35293 8.36136 5.21106 8.89424 4.06227C8.99112 3.84774 9.26102 3.77161 9.45479 3.8685L10.5551 2.5813C10.4582 2.35985 10.5551 2.11763 10.7766 2.02075C11.434 1.72317 12.1607 1.79929 12.915 1.89618C14.3337 2.04151 15.6486 2.21452 16.8458 0.214519C16.9634 0.0207477 17.1849 -0.0553769 17.3787 0.041509C17.5724 0.138395 17.6693 0.359848 17.6001 0.55362C17.524 0.747391 16.1814 4.84428 13.4548 4.84428C13.1849 4.84428 12.915 4.79583 12.652 4.71971C10.1607 4.01383 9.0188 6.52594 8.97036 6.65051C8.89424 6.79583 8.74891 6.89272 8.58282 6.89272Z" fill="#00A6F2"/>
<path fill-rule="evenodd" clip-rule="evenodd" d="M3.12188 7.13489C3.07344 7.13489 3.04575 7.13489 2.99731 7.11413C2.80354 7.06568 2.65821 6.84423 2.70665 6.62278C2.72742 6.50513 3.21877 3.5778 4.92119 2.42901C5.57863 1.99302 6.31219 1.89613 7.14264 2.08991C9.89697 2.82347 11.3572 0.435927 11.3849 0.408245C11.5025 0.214473 11.724 0.138349 11.9177 0.235235C12.1115 0.33212 12.2084 0.553574 12.1392 0.747345C12.0631 0.99648 10.4575 5.86845 7.19108 4.94112C4.70665 4.23523 3.55787 6.76811 3.50942 6.86499C3.4333 7.038 3.28797 7.13489 3.12188 7.13489Z" fill="#00A6F2"/>
</g>
<defs>
<clipPath id="clip0_723_3497">
<rect width="30" height="30" fill="white"/>
</clipPath>
</defs>
</svg>
