<svg width="20" height="20" viewBox="0 0 20 20" fill="none" xmlns="http://www.w3.org/2000/svg">
<path d="M1.79688 8.75389L1.375 2.95702L3.21484 4.27733C6.19141 0.769516 11.4102 0.074204 15.2188 2.80467C16.9766 4.06249 18.1445 5.84764 18.6523 7.78905L15.7695 8.53123C15.4258 7.24217 14.6523 6.06249 13.4844 5.22655C11.0156 3.45311 7.65625 3.84374 5.64453 6.01952L7.42188 7.29295L1.79688 8.75389ZM12.5742 12.707L14.3516 13.9805C12.3438 16.1562 8.98438 16.5469 6.51562 14.7773C5.34766 13.9414 4.57031 12.7617 4.23047 11.4726L1.34766 12.2148C1.85938 14.1562 3.02344 15.9375 4.78125 17.1992C8.58594 19.9258 13.8086 19.2344 16.7852 15.7265L18.625 17.0469L18.1992 11.25L12.5742 12.707Z" fill="white"/>
</svg>
