<svg width="70" height="53" viewBox="0 0 70 53" fill="none" xmlns="http://www.w3.org/2000/svg">
<path d="M41.6111 31.8396V39.407H40.3529L38.6346 38.0027C37.8841 38.6742 36.9981 39.1793 35.9726 39.5208C34.9493 39.8627 33.8082 40.0334 32.5482 40.0334C30.8061 40.0334 29.2094 39.6975 27.76 39.028C26.3087 38.358 24.9607 37.3332 23.7144 35.9563C22.48 34.6149 21.5581 33.1829 20.9468 31.6609C20.3374 30.1369 20.031 28.5086 20.031 26.7763C20.031 25.044 20.3397 23.4611 20.9567 21.9506C21.5737 20.4404 22.5056 19.0085 23.7519 17.6552C24.9982 16.302 26.36 15.2906 27.8354 14.6207C29.3108 13.9508 30.9193 13.6152 32.6633 13.6152C33.7306 13.6152 34.742 13.7666 35.6956 14.0709C36.6512 14.3733 37.5669 14.829 38.4429 15.436L39.8166 14.1278H41.0969L41.2484 21.106H39.8946C39.0546 18.869 38.0631 17.2565 36.9182 16.2708C35.7733 15.2847 34.33 14.7918 32.586 14.7918C30.6271 14.7918 29.2989 15.4301 28.5981 16.7067C27.8993 17.9833 27.5489 21.1886 27.5489 26.3226C27.5489 29.0271 27.5806 31.0499 27.6445 32.3893C27.7084 33.7307 27.8159 34.6971 27.9689 35.2923C28.2875 36.555 28.8089 37.4664 29.5338 38.0221C30.2587 38.5778 31.2759 38.8568 32.586 38.8568C34.3797 38.8568 35.9867 38.2027 37.404 36.8949C38.8216 35.5847 39.7412 33.9019 40.1616 31.8396H41.6111Z" fill="#00A6F2"/>
<path d="M30.6604 51.9719C39.4551 51.9719 47.2048 47.5303 51.7665 40.7822C47.5261 45.9233 41.0878 49.2053 33.8771 49.2053" fill="#00A6F2"/>
<path d="M33.877 49.2052C21.1074 49.2052 10.7558 38.9166 10.7558 26.2255C10.7558 13.5339 21.1074 3.24576 33.877 3.24576C38.5343 3.24576 42.8665 4.61918 46.4955 6.97355C42.1519 3.52756 36.6504 1.46289 30.6603 1.46289C16.6268 1.46289 5.25 12.77 5.25 26.7175C5.25 40.6655 16.6264 51.9722 30.6603 51.9722" fill="#00A6F2"/>
<path opacity="0.54" d="M49.0532 17.3954H54C50.8553 10.0497 43.1557 4.85645 34.1498 4.85645C23.4137 4.85645 14.5298 12.2334 13.012 21.8433C15.5233 14.2265 23.1322 8.68857 32.1312 8.68857C39.2593 8.68857 45.5117 12.1658 49.0536 17.3958L49.0532 17.3954Z" fill="#00A6F2"/>
<path opacity="0.54" d="M50.2841 37.1699C48.7563 40.4448 46.3578 43.2371 43.384 45.2527C47.111 43.4746 50.2367 40.6527 52.3827 37.1699H50.2837H50.2841Z" fill="#00A6F2"/>
<path d="M66.2469 19.1396H49.7277C48.3295 19.1396 47.196 20.2263 47.196 21.5667V32.6786C47.196 34.019 48.3295 35.1057 49.7277 35.1057H66.2469C67.6451 35.1057 68.7786 34.019 68.7786 32.6786V21.5667C68.7786 20.2263 67.6451 19.1396 66.2469 19.1396Z" fill="#D90416"/>
<path d="M54.114 28.4215V29.7056C54.1008 30.087 54.0212 30.4301 53.8753 30.7225C53.7562 30.9767 53.5702 31.2181 53.3052 31.409C53.0401 31.6126 52.6818 31.7268 52.2045 31.7268C51.7271 31.7268 51.3556 31.6126 51.0906 31.409C50.8255 31.2181 50.6528 30.9767 50.5336 30.7225C50.3877 30.4301 50.3081 30.087 50.2949 29.7056V24.2009C50.3081 23.8321 50.3877 23.4891 50.5336 23.1966C50.6528 22.9425 50.8255 22.6879 51.0906 22.4974C51.3556 22.3066 51.7271 22.1797 52.2045 22.1797C52.6818 22.1797 53.0401 22.3069 53.3052 22.4974C53.5702 22.6883 53.7562 22.9425 53.8753 23.1966C54.0212 23.4891 54.1008 23.8321 54.114 24.2009V25.485H52.7746V24.2009C52.7746 23.9468 52.7082 23.7685 52.5623 23.6159C52.4959 23.5523 52.3768 23.5144 52.2308 23.5144C51.979 23.5144 51.8594 23.6922 51.793 23.8574C51.753 23.959 51.7399 24.0736 51.7267 24.2005V29.7052C51.7399 29.972 51.8194 30.1502 51.9522 30.2902C52.0185 30.3538 52.1113 30.3917 52.2308 30.3917C52.5359 30.3917 52.6551 30.2392 52.7214 30.0487C52.7614 29.9597 52.7746 29.8451 52.7746 29.7056V28.4215H54.114Z" fill="white"/>
<path d="M57.5348 31.6256L56.7924 27.6844H56.4077V31.6256H54.9756V22.2812H56.4077C58.1186 22.2812 58.8478 23.2092 58.8478 24.9763C58.8478 25.9043 58.596 26.7434 58.0522 27.0995L58.9674 31.6252H57.5352L57.5348 31.6256ZM56.4077 26.4134C56.6069 26.4134 56.8719 26.3881 57.0842 26.2098C57.2965 26.032 57.4689 25.6885 57.4689 25.0273C57.4689 24.3661 57.2965 24.0104 57.0842 23.8321C56.8719 23.6543 56.6069 23.6412 56.4077 23.6412V26.4126V26.4134Z" fill="white"/>
<path d="M62.1364 31.6256L61.2216 25.7521L61.1685 25.3581H61.0889V31.6256H59.7627V22.2812H61.5131L62.3619 26.5529L62.4283 27.0485H62.4547L62.5211 26.5529L63.3699 22.2812H65.1203V31.6256H63.7941V25.3581H63.7145L63.6613 25.7521L62.7461 31.6256H62.136H62.1364Z" fill="white"/>
</svg>
