<svg width="24" height="25" viewBox="0 0 24 25" fill="none" xmlns="http://www.w3.org/2000/svg">
<path d="M23.1503 22.771L17.4804 16.5827C18.9382 14.7641 19.737 12.4759 19.737 10.0937C19.737 4.52814 15.422 0 10.1185 0C4.81494 0 0.5 4.52814 0.5 10.0937C0.5 15.6593 4.81494 20.1875 10.1185 20.1875C12.1095 20.1875 14.0069 19.5573 15.6291 18.361L21.342 24.5963C21.5808 24.8565 21.902 25 22.2462 25C22.5719 25 22.881 24.8697 23.1156 24.6327C23.6141 24.1293 23.63 23.2946 23.1503 22.771ZM10.1185 2.63315C14.0387 2.63315 17.2278 5.97988 17.2278 10.0937C17.2278 14.2076 14.0387 17.5543 10.1185 17.5543C6.19833 17.5543 3.00917 14.2076 3.00917 10.0937C3.00917 5.97988 6.19833 2.63315 10.1185 2.63315Z" fill="white"/>
</svg>
