<svg width="20" height="22" viewBox="0 0 20 22" fill="none" xmlns="http://www.w3.org/2000/svg">
<path d="M19.6959 20.0385L14.7656 14.5928C16.0332 12.9924 16.7278 10.9788 16.7278 8.88249C16.7278 3.98476 12.9757 0 8.36391 0C3.75212 0 0 3.98476 0 8.88249C0 13.7802 3.75212 17.765 8.36391 17.765C10.0952 17.765 11.7451 17.2104 13.1557 16.1576L18.1235 21.6447C18.3311 21.8737 18.6104 22 18.9097 22C19.193 22 19.4617 21.8853 19.6657 21.6768C20.0992 21.2338 20.113 20.4992 19.6959 20.0385ZM8.36391 2.31717C11.7727 2.31717 14.5459 5.2623 14.5459 8.88249C14.5459 12.5027 11.7727 15.4478 8.36391 15.4478C4.95507 15.4478 2.18189 12.5027 2.18189 8.88249C2.18189 5.2623 4.95507 2.31717 8.36391 2.31717Z" fill="white"/>
</svg>
