<svg width="51" height="50" viewBox="0 0 51 50" fill="none" xmlns="http://www.w3.org/2000/svg">
<path fill-rule="evenodd" clip-rule="evenodd" d="M18.0788 26.4264C21.4955 26.4264 24.2651 23.6568 24.2651 20.2401C24.2651 16.8234 21.4955 14.0538 18.0788 14.0538C17.7106 14.0538 17.3499 14.086 16.9995 14.1476C16.9973 14.148 16.9955 14.1484 16.9934 14.1489L16.1833 14.3498C16.1812 14.3503 16.1794 14.3509 16.1773 14.3515C15.2337 14.656 14.3892 15.1809 13.7045 15.8656C11.2888 18.2813 11.2887 22.1986 13.7045 24.6144C14.8238 25.734 16.3704 26.4264 18.0788 26.4264ZM37.9634 39.7055H9.29319C6.67549 39.7055 5.39349 42.899 7.22649 44.732C7.75669 45.2621 8.48799 45.5908 9.29319 45.5908H39.2477C40.2368 45.5908 40.7657 44.3816 40.0458 43.6618C39.8405 43.4565 39.558 43.3291 39.2477 43.3291H11.3992C11.0231 43.3291 10.7183 43.0242 10.7183 42.6482C10.7183 42.2721 11.0232 41.9673 11.3992 41.9673H39.2477C40.2368 41.9673 40.7657 40.7582 40.0458 40.0383C39.8405 39.833 39.558 39.7056 39.2477 39.7056H37.9634V39.7055ZM11.2116 28.6239C13.1629 28.6239 14.7451 30.206 14.7451 32.1574C14.7451 34.1088 13.1629 35.6909 11.2116 35.6909C9.26019 35.6909 7.67809 34.1087 7.67809 32.1574C7.67809 30.2061 9.26019 28.6239 11.2116 28.6239ZM11.2116 25.9711C14.6283 25.9711 17.3979 28.7407 17.3979 32.1574C17.3979 35.5701 14.6303 38.3388 11.2297 38.3437C7.79749 38.3486 5.02539 35.5788 5.02539 32.1574C5.02529 28.7407 7.79489 25.9711 11.2116 25.9711ZM13.3832 32.1574C13.3832 30.2283 11.0402 29.2576 9.67599 30.6218C8.31179 31.986 9.28249 34.329 11.2116 34.329C12.411 34.329 13.3832 33.3569 13.3832 32.1574ZM27.1176 32.1574C27.1176 30.2283 24.7746 29.2576 23.4104 30.6218C22.0461 31.9861 23.0169 34.329 24.946 34.329C26.1455 34.329 27.1176 33.3569 27.1176 32.1574ZM31.1323 32.1574C31.1323 33.8657 30.4399 35.4124 29.3204 36.5318C26.9044 38.9477 22.9875 38.9477 20.5716 36.5318C18.1558 34.116 18.1558 30.1988 20.5716 27.783C21.1365 27.2182 21.8101 26.762 22.5584 26.4487C22.5611 26.4476 22.5635 26.4467 22.5663 26.4458L23.6401 26.1096C23.6429 26.1087 23.6454 26.1081 23.6483 26.1075C24.0668 26.0182 24.501 25.9712 24.9461 25.9712C28.3627 25.9711 31.1323 28.7407 31.1323 32.1574ZM24.946 28.6239C26.8973 28.6239 28.4795 30.206 28.4795 32.1574C28.4795 34.1088 26.8973 35.6909 24.946 35.6909C22.9947 35.6909 21.4125 34.1087 21.4125 32.1574C21.4125 30.2061 22.9947 28.6239 24.946 28.6239ZM36.4542 22.0976L27.5328 24.8908C27.495 24.9026 27.4701 24.9357 27.4692 24.9753C27.4683 25.0149 27.4917 25.0491 27.5289 25.0627C28.5743 25.4434 29.512 26.0487 30.2834 26.8201C31.6444 28.1811 32.4882 30.0594 32.4943 32.1347C32.4943 32.138 32.4945 32.1408 32.4948 32.144C32.5945 33.0842 32.7581 33.9448 33.0006 34.7065C33.4586 36.145 34.3441 37.5355 35.6664 38.0403C36.644 38.4135 38.0852 38.3436 39.2478 38.3436H40.4517C40.4747 38.3436 40.4945 38.3361 40.5118 38.3209L45.9448 33.5268C45.9738 33.5013 45.9833 33.4624 45.9695 33.4263C45.9557 33.3902 45.9226 33.3677 45.884 33.368L45.1789 33.3734C45.1783 33.3734 45.1777 33.3734 45.1771 33.3734C43.8923 33.4086 42.7021 33.4409 41.8054 32.0462C40.9971 30.7891 41.1358 28.2642 40.6219 26.7357C39.9085 24.6138 38.5418 23.0842 36.5211 22.1025C36.4994 22.0921 36.4772 22.0905 36.4542 22.0976ZM25.627 20.2402C25.627 17.1736 23.7864 14.4796 21.0671 13.3067C21.0307 13.291 21.0093 13.2554 21.0126 13.2159C21.0159 13.1764 21.0428 13.1448 21.0812 13.1353L32.0624 10.4119C32.0719 10.4096 32.0803 10.4088 32.09 10.4094C32.3854 10.4281 32.6617 10.4889 32.9196 10.5859C34.1298 11.0411 34.9685 12.3202 35.5025 13.8513C36.069 15.4754 36.2843 17.3611 36.2386 18.906C36.217 19.636 36.1379 20.2787 36.0112 20.7669C36.0031 20.7981 35.9812 20.8211 35.9504 20.8307L24.574 24.3925C24.537 24.4041 24.4986 24.392 24.475 24.3613C24.4514 24.3306 24.4495 24.2903 24.4701 24.2575C25.203 23.0942 25.627 21.7166 25.627 20.2402ZM16.5432 21.7758C15.6952 20.9278 15.6952 19.5525 16.5432 18.7046C17.9074 17.3404 20.2504 18.3111 20.2504 20.2402C20.2504 22.1693 17.9074 23.14 16.5432 21.7758ZM15.5803 22.7387C14.2003 21.3587 14.2003 19.1217 15.5803 17.7417C16.9602 16.3617 19.1973 16.3617 20.5773 17.7417C21.9573 19.1217 21.9573 21.3588 20.5773 22.7387C19.1973 24.1186 16.9603 24.1186 15.5803 22.7387Z" fill="#767676"/>
</svg>
