<svg width="51" height="50" viewBox="0 0 51 50" fill="none" xmlns="http://www.w3.org/2000/svg">
<g clip-path="url(#clip0_291_3340)">
<path fill-rule="evenodd" clip-rule="evenodd" d="M49.0293 41.064V44.4871C49.0293 45.271 48.3901 45.9103 47.6063 45.9103H45.9917C45.5311 43.4162 43.3449 41.527 40.7174 41.527C38.0898 41.527 35.9037 43.4162 35.4432 45.9103H33.1895V22.4927H42.8909C43.8907 22.4927 44.7435 23.0259 45.1051 23.877L48.8687 32.739C48.9801 33.0014 49.0293 33.2418 49.0293 33.523V35.4281H47.3373C46.5714 35.4281 45.9191 35.6853 45.5879 35.9903C45.3071 36.2487 45.1812 36.558 45.1812 36.8683V39.6236C45.1812 39.934 45.3071 40.2433 45.5879 40.5018C45.9191 40.8067 46.5714 41.064 47.3373 41.064H49.0293ZM45.1936 32.8145C45.3132 32.8145 45.4246 32.7546 45.4906 32.6549C45.5566 32.5553 45.5682 32.4291 45.5214 32.3191L42.679 25.6265C42.6232 25.4949 42.494 25.4095 42.3512 25.4095H35.6782C35.5837 25.4095 35.4932 25.4471 35.4264 25.5138C35.3595 25.5806 35.3221 25.6712 35.3221 25.7657V32.4583C35.3221 32.5529 35.3595 32.6434 35.4264 32.7102C35.4932 32.777 35.5837 32.8145 35.6782 32.8145H45.1936ZM49.0293 36.9967V39.4954H47.3373C47.1355 39.4954 46.8858 39.4253 46.7498 39.3817V37.1104C46.8858 37.0668 47.1355 36.9967 47.3373 36.9967H49.0293ZM8.14541 45.9103H3.86815C2.82306 45.9103 1.9707 45.0579 1.9707 44.0129V17.0765C1.9707 16.7047 2.27208 16.4033 2.64384 16.4033H30.5077C30.923 16.4033 31.3079 16.538 31.6209 16.7657V45.9103H18.694C18.2333 43.4162 16.0472 41.527 13.4197 41.527C10.7922 41.527 8.606 43.4162 8.14541 45.9103ZM24.4398 23.7409C24.4398 23.6157 24.3384 23.5143 24.2133 23.5143H22.1611C22.036 23.5143 21.9345 23.6157 21.9345 23.7409V30.5448C21.9345 30.8214 22.1601 31.0469 22.4367 31.0469H28.9649C29.2415 31.0469 29.4671 30.8214 29.4671 30.5448V23.7409C29.4671 23.6808 29.4433 23.6232 29.4007 23.5807C29.3583 23.5382 29.3006 23.5143 29.2405 23.5143H27.1884C27.0633 23.5143 26.9619 23.6157 26.9619 23.7409V26.361C26.9619 26.4211 26.9381 26.4786 26.8955 26.5212C26.8531 26.5636 26.7954 26.5876 26.7353 26.5876H24.6664C24.6063 26.5876 24.5486 26.5636 24.5062 26.5212C24.4636 26.4786 24.4398 26.4211 24.4398 26.361V23.7409ZM15.9269 23.7409C15.9269 23.6157 15.8254 23.5143 15.7003 23.5143H13.6482C13.5231 23.5143 13.4216 23.6157 13.4216 23.7409V30.5448C13.4216 30.8214 13.6472 31.0469 13.9237 31.0469H20.452C20.7285 31.0469 20.9541 30.8214 20.9541 30.5448V23.7409C20.9541 23.6808 20.9303 23.6232 20.8878 23.5807C20.8453 23.5382 20.7877 23.5143 20.7276 23.5143H18.6755C18.5504 23.5143 18.4489 23.6157 18.4489 23.7409V26.361C18.4489 26.4211 18.425 26.4786 18.3826 26.5212C18.3401 26.5636 18.2825 26.5876 18.2224 26.5876H16.1534C16.0933 26.5876 16.0357 26.5636 15.9933 26.5212C15.9507 26.4786 15.9269 26.4211 15.9269 26.361V23.7409ZM7.41394 23.7409C7.41394 23.6157 7.31247 23.5143 7.18737 23.5143H5.13521C5.01011 23.5143 4.90864 23.6157 4.90864 23.7409V30.5448C4.90864 30.8214 5.13423 31.0469 5.4108 31.0469H11.939C12.2156 31.0469 12.4412 30.8214 12.4412 30.5448V23.7409C12.4412 23.6808 12.4174 23.6232 12.3748 23.5807C12.3324 23.5382 12.2747 23.5143 12.2146 23.5143H10.1626C10.0375 23.5143 9.936 23.6157 9.936 23.7409V26.361C9.936 26.4211 9.91208 26.4786 9.86962 26.5212C9.82717 26.5636 9.76953 26.5876 9.70943 26.5876H7.64051C7.58041 26.5876 7.52276 26.5636 7.48031 26.5212C7.43776 26.4786 7.41394 26.4211 7.41394 26.361V23.7409ZM15.9269 32.2538C15.9269 32.1286 15.8254 32.0273 15.7003 32.0273H13.6482C13.5231 32.0273 13.4216 32.1286 13.4216 32.2538V39.0578C13.4216 39.3343 13.6472 39.5598 13.9237 39.5598H20.452C20.7285 39.5598 20.9541 39.3343 20.9541 39.0578V32.2538C20.9541 32.1937 20.9303 32.1361 20.8878 32.0936C20.8453 32.0511 20.7877 32.0273 20.7276 32.0273H18.6755C18.5504 32.0273 18.4489 32.1286 18.4489 32.2538V34.8739C18.4489 34.934 18.425 34.9916 18.3826 35.0341C18.3401 35.0766 18.2825 35.1005 18.2224 35.1005H16.1534C16.0933 35.1005 16.0357 35.0766 15.9933 35.0341C15.9507 34.9916 15.9269 34.934 15.9269 34.8739V32.2538ZM24.4398 32.2538C24.4398 32.1286 24.3384 32.0273 24.2133 32.0273H22.1611C22.036 32.0273 21.9345 32.1286 21.9345 32.2538V39.0578C21.9345 39.3343 22.1601 39.5598 22.4367 39.5598H28.9649C29.2415 39.5598 29.4671 39.3343 29.4671 39.0578V32.2538C29.4671 32.1937 29.4433 32.1361 29.4007 32.0936C29.3583 32.0511 29.3006 32.0273 29.2405 32.0273H27.1884C27.0633 32.0273 26.9619 32.1286 26.9619 32.2538V34.8739C26.9619 34.934 26.9381 34.9916 26.8955 35.0341C26.8531 35.0766 26.7954 35.1005 26.7353 35.1005H24.6664C24.6063 35.1005 24.5486 35.0766 24.5062 35.0341C24.4636 34.9916 24.4398 34.934 24.4398 34.8739V32.2538ZM7.41394 32.2538C7.41394 32.1286 7.31247 32.0273 7.18737 32.0273H5.13521C5.01011 32.0273 4.90864 32.1286 4.90864 32.2538V39.0578C4.90864 39.3343 5.13423 39.5598 5.4108 39.5598H11.939C12.2156 39.5598 12.4412 39.3343 12.4412 39.0578V32.2538C12.4412 32.1937 12.4174 32.1361 12.3748 32.0936C12.3324 32.0511 12.2747 32.0273 12.2146 32.0273H10.1626C10.0375 32.0273 9.936 32.1286 9.936 32.2538V34.8739C9.936 34.934 9.91208 34.9916 9.86962 35.0341C9.82717 35.0766 9.76953 35.1005 9.70943 35.1005H7.64051C7.58041 35.1005 7.52276 35.0766 7.48031 35.0341C7.43776 34.9916 7.41394 34.934 7.41394 34.8739V32.2538ZM40.7174 43.0956C42.8134 43.0956 44.5125 44.7947 44.5125 46.8907C44.5125 48.9867 42.8134 50.6857 40.7174 50.6857C38.6214 50.6857 36.9224 48.9867 36.9224 46.8907C36.9224 44.7947 38.6214 43.0956 40.7174 43.0956ZM40.7174 45.5977C40.0028 45.5977 39.4243 46.1761 39.4243 46.8907C39.4243 47.6053 40.0028 48.1836 40.7174 48.1836C41.432 48.1836 42.0103 47.6053 42.0103 46.8907C42.0103 46.176 41.432 45.5977 40.7174 45.5977ZM13.4197 43.0956C15.5157 43.0956 17.2148 44.7947 17.2148 46.8907C17.2148 48.9867 15.5157 50.6857 13.4197 50.6857C11.3236 50.6857 9.62462 48.9867 9.62462 46.8907C9.62462 44.7947 11.3236 43.0956 13.4197 43.0956ZM13.4197 45.5977C12.705 45.5977 12.1268 46.1761 12.1268 46.8907C12.1268 47.6053 12.705 48.1836 13.4197 48.1836C14.1343 48.1836 14.7127 47.6053 14.7127 46.8907C14.7127 46.176 14.1343 45.5977 13.4197 45.5977ZM7.76119 13.5585C7.70855 13.6196 7.63904 13.6519 7.55923 13.6519C7.47776 13.6519 7.40992 13.6196 7.35727 13.5585L3.70698 9.25992C3.63904 9.17845 3.62374 9.07325 3.66786 8.97648C3.71208 8.88148 3.80364 8.82207 3.90884 8.82207H5.60933V3.17599C5.60933 2.88403 5.84688 2.64648 6.13884 2.64648H8.97962C9.27159 2.64648 9.50913 2.88403 9.50913 3.17599V8.82207H11.2096C11.3148 8.82207 11.4065 8.88148 11.4506 8.97648C11.4947 9.07325 11.4794 9.17845 11.4115 9.25992L7.76119 13.5585ZM17.3898 13.5585C17.3372 13.6196 17.2677 13.6519 17.1879 13.6519C17.1064 13.6519 17.0385 13.6196 16.9859 13.5585L13.3356 9.25992C13.2677 9.17845 13.2525 9.07325 13.2966 8.97648C13.3407 8.88148 13.4323 8.82207 13.5376 8.82207H15.238V3.17599C15.238 2.88403 15.4756 2.64648 15.7675 2.64648H18.6084C18.9002 2.64648 19.1378 2.88403 19.1378 3.17599V8.82207H20.8383C20.9434 8.82207 21.0351 8.88148 21.0792 8.97648C21.1234 9.07325 21.1081 9.17845 21.0402 9.25992L17.3898 13.5585ZM27.0184 13.5585C26.9659 13.6196 26.8963 13.6519 26.8165 13.6519C26.735 13.6519 26.6672 13.6196 26.6145 13.5585L22.9642 9.25992C22.8964 9.17845 22.8811 9.07325 22.9252 8.97648C22.9693 8.88148 23.061 8.82207 23.1662 8.82207H24.8666V3.17599C24.8666 2.88403 25.1042 2.64648 25.3961 2.64648H28.237C28.5288 2.64648 28.7664 2.88403 28.7664 3.17599V8.82207H30.4669C30.5721 8.82207 30.6637 8.88148 30.7079 8.97648C30.752 9.07325 30.7367 9.17845 30.6688 9.25992L27.0184 13.5585Z" fill="#767676"/>
</g>
<defs>
<clipPath id="clip0_291_3340">
<rect width="50" height="50" fill="white" transform="translate(0.5)"/>
</clipPath>
</defs>
</svg>
