<svg width="51" height="50" viewBox="0 0 51 50" fill="none" xmlns="http://www.w3.org/2000/svg">
<path d="M4.96847 30.0335C5.11408 30.4071 4.95372 30.8303 4.59689 31.0134L3.72697 31.4648L8.24025 33.8976L8.9007 28.7539L7.83908 29.3105C7.63722 29.4164 7.39914 29.4289 7.18722 29.3448C6.9754 29.2607 6.81085 29.0883 6.73654 28.8727L6.53722 28.2941C5.41046 25.042 5.3591 21.5809 6.38898 18.2862C7.66349 14.2055 10.452 10.8639 14.2408 8.87732C14.4872 8.74802 14.669 8.53025 14.7522 8.26462C14.8353 7.99939 14.81 7.71804 14.681 7.47253C14.4145 6.96452 13.7834 6.76716 13.2742 7.03279C8.99269 9.27751 5.84142 13.0536 4.40216 17.6646C3.16662 21.6174 3.30324 25.7426 4.79718 29.5948L4.96847 30.0335Z" fill="#767676"/>
<path d="M16.8945 28.2513H19.0316V30.3855H16.8945V28.2513Z" fill="#767676"/>
<path d="M16.8945 34.8175H19.0316V36.9546H16.8945V34.8175Z" fill="#767676"/>
<path d="M16.8945 41.3864H19.0316V43.5234H16.8945V41.3864Z" fill="#767676"/>
<path d="M32.2753 22.272V17.9792C31.7987 17.933 31.3335 17.8476 30.8826 17.7266H16.7871V22.272H32.2753Z" fill="#767676"/>
<path d="M40.1594 9.40946C40.1594 5.52401 36.9983 2.36298 33.1129 2.36298C29.2274 2.36298 26.0664 5.52401 26.0664 9.40946C26.0664 13.2949 29.2274 16.4559 33.1129 16.4559C36.9983 16.4559 40.1594 13.2949 40.1594 9.40946ZM33.1129 8.62743C35.1518 8.62743 36.7488 9.83417 36.7488 11.3749C36.7488 12.712 35.5455 13.7971 33.8948 14.0605V14.2925C33.8948 14.7244 33.5447 15.0745 33.1128 15.0745C32.6809 15.0745 32.3308 14.7244 32.3308 14.2925V14.0605C30.68 13.7971 29.4767 12.7119 29.4767 11.3748C29.4767 10.9429 29.8268 10.5928 30.2587 10.5928C30.6906 10.5928 31.0407 10.9429 31.0407 11.3748C31.0407 11.9074 31.8121 12.4968 32.9389 12.5527H33.2867C34.4134 12.4968 35.1848 11.9075 35.1848 11.3748C35.1848 10.8151 34.3338 10.1914 33.1128 10.1914C31.0738 10.1914 29.4768 8.98466 29.4768 7.44393C29.4768 6.10682 30.6801 5.02176 32.3309 4.75819V4.52626C32.3309 4.09432 32.681 3.74423 33.1129 3.74423C33.5448 3.74423 33.8949 4.09432 33.8949 4.52626V4.75819C35.5456 5.02167 36.7489 6.10682 36.7489 7.44384C36.7489 7.87577 36.3988 8.22587 35.9669 8.22587C35.535 8.22587 35.1849 7.87577 35.1849 7.44384C35.1849 6.88417 34.3339 6.26044 33.1129 6.26044C31.8919 6.26044 31.0408 6.88417 31.0408 7.44384C31.0408 8.0035 31.8918 8.62723 33.1129 8.62723V8.62743Z" fill="#767676"/>
<path d="M46.0312 20.0051C45.8862 19.633 46.0448 19.2114 46.3991 19.0272L47.2727 18.571L42.7594 16.1382L42.0989 21.282L43.1606 20.7253C43.3627 20.6194 43.6007 20.607 43.8126 20.6911C44.0244 20.7753 44.189 20.9478 44.2632 21.1633L44.4624 21.7419C45.5911 24.9934 45.6435 28.4546 44.6135 31.7497C43.4613 35.4325 41.0423 38.55 37.7783 40.5752V42.9743C42.0331 40.7257 45.1652 36.9626 46.6002 32.3709C47.8335 28.4171 47.696 24.2927 46.2023 20.444L46.0312 20.005V20.0051Z" fill="#767676"/>
<path d="M33.8389 23.054C33.8389 23.486 33.4888 23.8361 33.0568 23.8361H16.0047C15.5728 23.8361 15.2227 23.486 15.2227 23.054V16.9446C15.2227 16.5126 15.5728 16.1625 16.0047 16.1625H27.7764C27.0487 15.5864 26.4163 14.8951 25.9062 14.1168H14.1528C13.4332 14.1168 12.8477 14.7011 12.8477 15.4193V46.3346C12.8477 47.0528 13.4332 47.637 14.1528 47.637H34.9116C35.6298 47.637 36.2141 47.0528 36.2141 46.3346V17.4418C35.4668 17.7314 34.6695 17.9194 33.839 17.9891V23.054H33.8389ZM20.5958 44.3055C20.5958 44.7374 20.2457 45.0875 19.8138 45.0875H16.1127C15.6808 45.0875 15.3307 44.7374 15.3307 44.3055V40.6045C15.3307 40.1726 15.6808 39.8225 16.1127 39.8225H19.8138C20.2457 39.8225 20.5958 40.1726 20.5958 40.6045V44.3055ZM20.5958 37.7365C20.5958 38.1685 20.2457 38.5186 19.8138 38.5186H16.1127C15.6808 38.5186 15.3307 38.1685 15.3307 37.7365V34.0355C15.3307 33.6035 15.6808 33.2534 16.1127 33.2534H19.8138C20.2457 33.2534 20.5958 33.6035 20.5958 34.0355V37.7365ZM20.5958 31.1676C20.5958 31.5995 20.2457 31.9496 19.8138 31.9496H16.1127C15.6808 31.9496 15.3307 31.5995 15.3307 31.1676V27.4694C15.3307 27.0374 15.6808 26.6873 16.1127 26.6873H19.8138C20.2457 26.6873 20.5958 27.0374 20.5958 27.4694V31.1676ZM27.1647 44.3055C27.1647 44.7374 26.8146 45.0875 26.3827 45.0875H22.6816C22.2497 45.0875 21.8996 44.7374 21.8996 44.3055V40.6045C21.8996 40.1726 22.2497 39.8225 22.6816 39.8225H26.3827C26.8146 39.8225 27.1647 40.1726 27.1647 40.6045V44.3055ZM27.1647 37.7365C27.1647 38.1685 26.8146 38.5186 26.3827 38.5186H22.6816C22.2497 38.5186 21.8996 38.1685 21.8996 37.7365V34.0355C21.8996 33.6035 22.2497 33.2534 22.6816 33.2534H26.3827C26.8146 33.2534 27.1647 33.6035 27.1647 34.0355V37.7365ZM27.1647 31.1676C27.1647 31.5995 26.8146 31.9496 26.3827 31.9496H22.6816C22.2497 31.9496 21.8996 31.5995 21.8996 31.1676V27.4694C21.8996 27.0374 22.2497 26.6873 22.6816 26.6873H26.3827C26.8146 26.6873 27.1647 27.0374 27.1647 27.4694V31.1676ZM33.731 44.3055C33.731 44.7374 33.3809 45.0875 32.9489 45.0875H29.2506C28.8187 45.0875 28.4686 44.7374 28.4686 44.3055V40.6045C28.4686 40.1726 28.8187 39.8225 29.2506 39.8225H32.9489C33.3809 39.8225 33.731 40.1726 33.731 40.6045V44.3055ZM33.731 37.7365C33.731 38.1685 33.3809 38.5186 32.9489 38.5186H29.2506C28.8187 38.5186 28.4686 38.1685 28.4686 37.7365V34.0355C28.4686 33.6035 28.8187 33.2534 29.2506 33.2534H32.9489C33.3809 33.2534 33.731 33.6035 33.731 34.0355V37.7365ZM33.731 31.1676C33.731 31.5995 33.3809 31.9496 32.9489 31.9496H29.2506C28.8187 31.9496 28.4686 31.5995 28.4686 31.1676V27.4694C28.4686 27.0374 28.8187 26.6873 29.2506 26.6873H32.9489C33.3809 26.6873 33.731 27.0374 33.731 27.4694V31.1676Z" fill="#767676"/>
<path d="M30.0332 34.8175H32.1675V36.9546H30.0332V34.8175Z" fill="#767676"/>
<path d="M23.4639 34.8175H25.601V36.9546H23.4639V34.8175Z" fill="#767676"/>
<path d="M23.4639 28.2513H25.601V30.3855H23.4639V28.2513Z" fill="#767676"/>
<path d="M23.4639 41.3864H25.601V43.5234H23.4639V41.3864Z" fill="#767676"/>
<path d="M30.0332 41.3864H32.1675V43.5234H30.0332V41.3864Z" fill="#767676"/>
<path d="M30.0332 28.2513H32.1675V30.3855H30.0332V28.2513Z" fill="#767676"/>
</svg>
