<svg width="51" height="50" viewBox="0 0 51 50" fill="none" xmlns="http://www.w3.org/2000/svg">
<path d="M37.9375 35.0853C37.9375 38.6498 38.7492 42.2185 40.2847 45.4056C40.6561 46.1972 41.7807 46.1991 42.1527 45.4056C43.6883 42.2185 44.5 38.6498 44.5 35.0853V21.625H37.9375V35.0853Z" fill="#767676"/>
<path d="M44.5 11.8472C44.3315 7.3651 38.0879 7.40348 37.9375 11.8472V18.8125H44.5V11.8472Z" fill="#767676"/>
<path d="M23.2945 29.5303V25.375C21.4703 25.8715 20.125 27.5463 20.125 29.5303C20.2376 34.5662 27.1756 35.4368 28.5625 30.6573H24.4183C23.7977 30.6573 23.2945 30.1527 23.2945 29.5303Z" fill="#767676"/>
<path d="M23.4975 16.6592V8.5H10.4569C8.54786 8.5 7 10.0423 7 11.9521V42.5478C7 44.4543 8.54448 46 10.4569 46H31.6681C33.5771 46 35.125 44.4577 35.125 42.5479V20.1113H26.9545C25.0483 20.1113 23.4975 18.5627 23.4975 16.6592ZM12.8138 13.2071H19.8842C21.34 13.26 21.3433 15.35 19.8842 15.4043H12.8138C12.2062 15.4043 11.7136 14.9124 11.7136 14.3057C11.7136 13.6989 12.2061 13.2071 12.8138 13.2071ZM12.8138 17.914H17.5274C18.9839 17.9673 18.9859 20.0573 17.5274 20.1113H12.8138C12.2063 20.1113 11.7137 19.6194 11.7137 19.0127C11.7137 18.4059 12.2061 17.914 12.8138 17.914ZM12.8138 23.7979H15.1705C16.6277 23.8514 16.6285 25.9413 15.1705 25.9951H12.8138C11.3566 25.9415 11.3558 23.8517 12.8138 23.7979ZM12.8138 28.5049H15.1705C16.6277 28.5584 16.6285 30.6483 15.1705 30.7021H12.8138C11.3566 30.6486 11.3558 28.5588 12.8138 28.5049ZM12.8138 33.2119H15.1705C16.6277 33.2655 16.6285 35.3553 15.1705 35.4092H12.8138C11.3566 35.3556 11.3558 33.2657 12.8138 33.2119ZM29.3113 41.2929H12.8137C12.2061 41.2929 11.7135 40.801 11.7135 40.1943C11.7135 39.5876 12.2061 39.0957 12.8137 39.0957H29.3113C30.7644 39.1474 30.7731 41.2377 29.3113 41.2929ZM31.0006 29.6035C31.0006 33.1292 28.1283 35.9975 24.5977 35.9975C16.115 35.6761 16.1173 23.5297 24.5978 23.2094C28.1283 23.2094 31.0006 26.0778 31.0006 29.6035Z" fill="#767676"/>
<path d="M25.75 25.375V28.1875H28.5625C28.192 26.8226 27.115 25.7455 25.75 25.375Z" fill="#767676"/>
<path d="M26.9573 17.875H34.1875L25.75 9.4375V16.6678C25.75 17.3334 26.2916 17.875 26.9573 17.875Z" fill="#767676"/>
</svg>
