<svg width="50" height="50" viewBox="0 0 50 50" fill="none" xmlns="http://www.w3.org/2000/svg">
<path d="M27 7.63636C27 7.56818 27 7.56818 27 7.5C27 7.43182 27 7.43182 27 7.36364C26.8645 6.54545 26.1195 5.86364 25.3068 5.86364H21.4462C21.0398 5.86364 20.7689 5.59091 20.7689 5.18182C20.7012 4.02273 19.6853 3 18.4661 3C17.247 3 16.2311 4.02273 16.2311 5.25C16.2311 5.65909 15.8924 5.93182 15.5538 5.93182H11.6932C10.8127 5.93182 10.1355 6.54545 10 7.43182V7.56818V7.70455V9H27V7.63636Z" fill="#767676"/>
<path d="M32.3151 9H28V9.89009C28 10.3009 27.726 10.5748 27.3151 10.5748H8.75342C8.34246 10.5748 8.06849 10.2324 8.06849 9.89009V9H3.68493C3.27397 9 3 9.27387 3 9.68468V46.3153C3 46.7261 3.27397 47 3.68493 47H32.3151C32.726 47 33 46.6577 33 46.3153V9.68468C33 9.27387 32.726 9 32.3151 9ZM10.2603 35.7027L7.31507 38.6468C7.17808 38.7838 7.0411 38.8523 6.83562 38.8523C6.63014 38.8523 6.49315 38.7838 6.35616 38.6468L5.12329 37.4144C4.84932 37.1405 4.84932 36.7297 5.12329 36.4559C5.39726 36.182 5.80822 36.182 6.08219 36.4559L6.76712 37.209L9.23288 34.7441C9.50685 34.4703 9.91781 34.4703 10.1918 34.7441C10.5342 35.018 10.5342 35.4288 10.2603 35.7027ZM10.2603 25.9117L7.31507 28.8559C7.17808 28.9928 6.9726 29.0613 6.83562 29.0613C6.63014 29.0613 6.49315 28.9928 6.35616 28.8559L5.12329 27.6234C4.84932 27.3496 4.84932 26.9387 5.12329 26.6649C5.39726 26.391 5.80822 26.391 6.08219 26.6649L6.76712 27.3495L9.23288 24.8847C9.50685 24.6108 9.91781 24.6108 10.1918 24.8847C10.5342 25.227 10.5342 25.6378 10.2603 25.9117ZM10.2603 16.1207L7.31507 19.0649C7.17808 19.2018 6.9726 19.2703 6.83562 19.2703C6.63014 19.2703 6.49315 19.2018 6.35616 19.0649L5.12329 17.8324C4.84932 17.5586 4.84932 17.1477 5.12329 16.8739C5.39726 16.6 5.80822 16.6 6.08219 16.8739L6.76712 17.627L9.23288 15.1622C9.50685 14.8883 9.91781 14.8883 10.1918 15.1622C10.5342 15.436 10.5342 15.8468 10.2603 16.1207ZM29.1644 42.3441H13C12.589 42.3441 12.3151 42.0018 12.3151 41.6595C12.3151 41.3171 12.6575 40.9748 13 40.9748H29.1644C29.5753 40.9748 29.8493 41.3171 29.8493 41.6595C29.8493 42.0018 29.5753 42.3441 29.1644 42.3441ZM29.1644 37.4144H13C12.589 37.4144 12.3151 37.1405 12.3151 36.7297C12.3151 36.3189 12.6575 36.045 13 36.045H29.1644C29.5753 36.045 29.8493 36.3874 29.8493 36.7297C29.8493 37.1405 29.5753 37.4144 29.1644 37.4144ZM29.1644 32.4847H13C12.589 32.4847 12.3151 32.2108 12.3151 31.8C12.3151 31.3892 12.6575 31.1153 13 31.1153H29.1644C29.5753 31.1153 29.8493 31.4577 29.8493 31.8C29.8493 32.2108 29.5753 32.4847 29.1644 32.4847ZM29.1644 27.6234H13C12.589 27.6234 12.3151 27.2811 12.3151 26.9387C12.3151 26.5279 12.6575 26.2541 13 26.2541H29.1644C29.5753 26.2541 29.8493 26.5964 29.8493 26.9387C29.8493 27.2811 29.5753 27.6234 29.1644 27.6234ZM29.1644 22.6937H13C12.589 22.6937 12.3151 22.3514 12.3151 22.009C12.3151 21.5982 12.6575 21.3243 13 21.3243H29.1644C29.5753 21.3243 29.8493 21.6667 29.8493 22.009C29.8493 22.4198 29.5753 22.6937 29.1644 22.6937ZM29.1644 17.8324H13C12.589 17.8324 12.3151 17.5586 12.3151 17.1477C12.3151 16.7369 12.6575 16.4631 13 16.4631H29.1644C29.5753 16.4631 29.8493 16.8054 29.8493 17.1477C29.8493 17.4901 29.5753 17.8324 29.1644 17.8324Z" fill="#767676"/>
<path d="M44.0337 19.7136H46.6629C46.8652 19.7136 47 19.5729 47 19.3618V15.3518C47 15.1407 46.8652 15 46.6629 15H44.0337C43.8315 15 43.6966 15.1407 43.6966 15.3518V16.4774H39.6517C39.1798 16.4774 38.8427 16.8291 38.8427 17.3216V28.1558H35V29.8442H38.8427V40.6784C38.8427 41.1709 39.1798 41.5226 39.6517 41.5226H43.6966V42.6482C43.6966 42.8593 43.8315 43 44.0337 43H46.6629C46.8652 43 47 42.8593 47 42.6482V38.6382C47 38.4271 46.8652 38.2864 46.6629 38.2864H44.0337C43.8315 38.2864 43.6966 38.4271 43.6966 38.6382V39.7638H40.5281V29.9146H43.6966V31.0402C43.6966 31.2513 43.8315 31.392 44.0337 31.392H46.6629C46.8652 31.392 47 31.2513 47 31.0402V27.0302C47 26.8191 46.8652 26.6784 46.6629 26.6784H44.0337C43.8315 26.6784 43.6966 26.8191 43.6966 27.0302V28.1558H40.5281V18.1658H43.6966V19.2915C43.6966 19.5025 43.8315 19.7136 44.0337 19.7136Z" fill="#767676"/>
</svg>
