<svg width="51" height="50" viewBox="0 0 51 50" fill="none" xmlns="http://www.w3.org/2000/svg">
<path d="M43.0167 22.3824C42.4694 22.3823 41.935 22.2154 41.4848 21.9041L26.5021 11.5293C26.2083 11.3267 25.8598 11.2182 25.503 11.2182C25.1461 11.2182 24.7977 11.3267 24.5039 11.5293L9.52252 21.9041C8.93469 22.3111 8.20925 22.4679 7.50578 22.3401C6.80232 22.2122 6.17846 21.8101 5.77145 21.2223C5.36443 20.6345 5.2076 19.909 5.33546 19.2056C5.46331 18.5021 5.86538 17.8783 6.45321 17.4712L21.4359 7.09651C22.6326 6.27376 24.0507 5.83331 25.503 5.83331C26.9552 5.83331 28.3733 6.27376 29.57 7.09651L44.5541 17.4712C45.0269 17.7982 45.3828 18.2678 45.5697 18.8114C45.7566 19.355 45.7648 19.9441 45.5931 20.4927C45.4214 21.0413 45.0787 21.5206 44.6152 21.8606C44.1517 22.2005 43.5916 22.3834 43.0167 22.3824Z" fill="#767676"/>
<path d="M41.6689 26.4784V42.6603C41.6689 43.3571 41.3921 44.0254 40.8993 44.5181C40.4066 45.0108 39.7383 45.2877 39.0415 45.2877H31.6418C31.2637 45.2877 30.9011 45.1375 30.6338 44.8701C30.3664 44.6028 30.2162 44.2402 30.2162 43.8621V37.8771C30.2108 36.6583 29.7361 35.4884 28.8909 34.6103C28.0456 33.7322 26.8947 33.2133 25.677 33.1613C25.0275 33.1645 24.3852 33.2963 23.7869 33.5491C23.1887 33.8018 22.6465 34.1707 22.1916 34.6342C21.7368 35.0977 21.3782 35.6468 21.1367 36.2496C20.8952 36.8525 20.7756 37.4972 20.7847 38.1466V43.8675C20.7832 44.2447 20.6324 44.6059 20.3652 44.872C20.0981 45.1382 19.7363 45.2877 19.3591 45.2877H11.9594C11.2626 45.2877 10.5943 45.0108 10.1016 44.5181C9.60884 44.0254 9.33203 43.3571 9.33203 42.6603V26.4919C9.33174 26.0584 9.4386 25.6315 9.64311 25.2493C9.84762 24.8671 10.1434 24.5413 10.5042 24.3011L24.0453 15.2737C24.4752 14.9838 24.9819 14.829 25.5005 14.829C26.019 14.829 26.5257 14.9838 26.9556 15.2737L40.5034 24.3011C40.8616 24.5402 41.1554 24.8641 41.3587 25.2438C41.562 25.6236 41.6685 26.0476 41.6689 26.4784Z" fill="#767676"/>
</svg>
