<svg width="50" height="50" viewBox="0 0 50 50" fill="none" xmlns="http://www.w3.org/2000/svg">
<path fill-rule="evenodd" clip-rule="evenodd" d="M9.66613 8C5.99007 8 3 11.0145 3 14.725V32.6721C3 36.3816 5.99016 39.4009 9.66613 39.4009H33.6837C34.7006 39.4009 35.6193 39.7832 36.3397 40.5071L41.5593 45.7463C42.0969 46.2863 43 45.9079 43 45.1423V14.725C43 11.0145 40.0088 8 36.3333 8H9.66613ZM31.2738 22.9545C31.2738 21.1394 32.7379 19.6616 34.5377 19.6616C36.3375 19.6616 37.8015 21.1393 37.8015 22.9545C37.8015 24.7702 36.3375 26.249 34.5377 26.249C32.7379 26.249 31.2738 24.7702 31.2738 22.9545ZM23 19.6617C24.7987 19.6617 26.2638 21.1394 26.2638 22.9545C26.2638 24.7701 24.7987 26.249 23 26.249C21.2001 26.249 19.7361 24.7702 19.7361 22.9545C19.7361 21.1394 21.2001 19.6617 23 19.6617ZM11.4622 19.6617C13.261 19.6617 14.7261 21.1394 14.7261 22.9546C14.7261 24.7703 13.2609 26.2491 11.4622 26.2491C9.66239 26.2491 8.19786 24.7703 8.19786 22.9546C8.19786 21.1394 9.66239 19.6617 11.4622 19.6617Z" fill="#767676"/>
</svg>
