<svg width="50" height="50" viewBox="0 0 50 50" fill="none" xmlns="http://www.w3.org/2000/svg">
<g clip-path="url(#clip0_291_3246)">
<path fill-rule="evenodd" clip-rule="evenodd" d="M40.2996 30.4614H35.7897C35.3861 30.4614 35.0516 30.1384 35.0516 29.7232V26.7589L32.9408 28.8697C32.664 29.158 32.2142 29.158 31.9258 28.8697L28.754 25.7093C28.6386 25.5825 28.5579 25.3864 28.5579 25.2134C28.5579 25.0519 28.6386 24.8558 28.754 24.729L30.8763 22.6182H27.9005C27.4968 22.6182 27.1738 22.2953 27.1738 21.8916V17.3356C27.1738 16.932 27.4968 16.609 27.9005 16.609H30.8763L28.754 14.4983C28.4772 14.2099 28.4772 13.7601 28.754 13.4833L31.972 10.3114C32.2488 10.0231 32.6986 10.0231 32.987 10.3114L35.0977 12.4221V9.4579C35.0977 9.05421 35.4207 8.71973 35.8243 8.71973H40.3342C40.7378 8.71973 41.0723 9.05421 41.0723 9.4579V12.4221L43.1369 10.3114C43.4253 10.0231 43.8751 10.0231 44.1519 10.3114L47.3238 13.4833C47.6121 13.7601 47.6121 14.2099 47.3238 14.4983L45.213 16.609H48.1773C48.581 16.609 48.9039 16.932 48.9039 17.3356V21.8454C48.9039 22.2491 48.581 22.5721 48.1773 22.5721H45.213L47.3238 24.6944C47.4506 24.8097 47.5314 25.0173 47.5314 25.1788C47.5314 25.3403 47.4506 25.5479 47.3238 25.6632L44.1519 28.8351C44.0366 28.9504 43.829 29.0427 43.6675 29.0427C43.4599 29.0427 43.2984 28.9504 43.1831 28.8351L41.0723 26.7243V29.6886C40.9916 30.1384 40.7032 30.4614 40.2996 30.4614ZM38.0619 24.5675C35.2938 24.5675 33.0677 22.3299 33.0677 19.5732C33.0677 16.8051 35.2938 14.6136 38.0619 14.6136C40.8301 14.6136 43.0216 16.8512 43.0216 19.5732C43.0216 22.2953 40.784 24.5675 38.0619 24.5675ZM38.0619 16.0323C36.1127 16.0323 34.4864 17.624 34.4864 19.6078C34.4864 21.5571 36.0666 23.1834 38.0619 23.1834C40.0573 23.1834 41.6375 21.6032 41.6375 19.6078C41.5914 17.624 40.0112 16.0323 38.0619 16.0323Z" fill="#767676"/>
<path fill-rule="evenodd" clip-rule="evenodd" d="M41.2687 49.9539H37.0473V37.6932C37.0473 37.2895 36.7243 36.955 36.3206 36.955H26.805C26.4014 36.955 26.0784 37.2895 26.0784 37.6932V49.9539H17.0242V37.6932C17.0242 37.2895 16.6897 36.955 16.286 36.955H6.78198C6.37829 36.955 6.05533 37.2895 6.05533 37.6932V49.9539H1.82235C1.41866 49.9539 1.0957 49.6309 1.0957 49.2272V32.7336C1.0957 32.4913 1.21104 32.2491 1.41866 32.1223L11.6147 25.8708C11.7762 25.7439 11.9838 25.7093 12.1453 25.7901C12.3414 25.8247 12.4683 25.9516 12.5951 26.113L15.9169 31.7532L25.5478 25.8708C25.7093 25.7901 25.9169 25.7439 26.0784 25.7901C26.286 25.8247 26.4014 25.9516 26.5282 26.113L30.023 32.0069H41.2687C41.6724 32.0069 42.0069 32.3299 42.0069 32.7336V49.2734C41.9608 49.6309 41.6378 49.9539 41.2687 49.9539ZM35.5824 49.9539H27.5432V38.4198H35.5824V49.9539ZM15.5132 49.9539H7.47402V38.4198H15.5132V49.9539Z" fill="#767676"/>
<path fill-rule="evenodd" clip-rule="evenodd" d="M1.28027 30.6113L2.83737 13.2757C2.8835 12.9066 3.16032 12.6298 3.52941 12.6298H6.86274C7.23183 12.6298 7.55478 12.9066 7.55478 13.2757L8.73125 26.0323L1.28027 30.6113Z" fill="#767676"/>
<path fill-rule="evenodd" clip-rule="evenodd" d="M10.7842 24.7751L11.8222 13.2757C11.8568 12.9527 12.1798 12.6644 12.5489 12.6644H15.8822C16.2513 12.6644 16.5743 12.9527 16.5743 13.3103L17.9929 28.8812L16.3897 29.8731L13.7715 25.421C13.4947 24.9481 13.0795 24.6252 12.572 24.4867C12.0068 24.2791 11.407 24.3945 10.8995 24.7059L10.7842 24.7751Z" fill="#767676"/>
<path fill-rule="evenodd" clip-rule="evenodd" d="M14.3024 11.4879C14.2217 11.4879 14.1755 11.4879 14.0948 11.4418C13.7719 11.361 13.5296 11.0381 13.6104 10.669C13.6104 10.5882 13.9333 8.68512 14.8214 6.77047C14.9829 6.41292 15.4328 6.28604 15.7557 6.44752L17.5896 4.30219C17.4281 3.9331 17.5896 3.52941 17.9587 3.36793C19.0544 2.87197 20.2655 2.99884 21.5227 3.16032C23.8872 3.40254 26.0787 3.69089 28.074 0.357553C28.2701 0.0345999 28.6392 -0.0922744 28.9622 0.0692019C29.2851 0.230678 29.4466 0.599767 29.3313 0.92272C29.2044 1.24567 26.9668 8.07382 22.4224 8.07382C21.9725 8.07382 21.5227 7.99308 21.0844 7.8662C16.9322 6.68973 15.0291 10.8766 14.9483 11.0842C14.8214 11.3264 14.5792 11.4879 14.3024 11.4879Z" fill="#767676"/>
<path fill-rule="evenodd" clip-rule="evenodd" d="M5.20183 11.8916C5.12109 11.8916 5.07496 11.8916 4.99422 11.857C4.67127 11.7762 4.42905 11.4071 4.50979 11.038C4.54439 10.842 5.36331 5.96307 8.20068 4.04843C9.29641 3.32178 10.519 3.16031 11.9031 3.48326C16.4936 4.70586 18.9273 0.726626 18.9735 0.68049C19.1695 0.357537 19.5386 0.230663 19.8616 0.392139C20.1845 0.553615 20.346 0.922704 20.2307 1.24566C20.1038 1.66088 17.4279 9.78084 11.9838 8.23528C7.84312 7.05881 5.92847 11.2803 5.84774 11.4417C5.72086 11.7301 5.47865 11.8916 5.20183 11.8916Z" fill="#767676"/>
</g>
<defs>
<clipPath id="clip0_291_3246">
<rect width="50" height="50" fill="white"/>
</clipPath>
</defs>
</svg>
