<svg width="51" height="50" viewBox="0 0 51 50" fill="none" xmlns="http://www.w3.org/2000/svg">
<path d="M45.1605 4.18288C44.9453 4.01838 44.667 3.95888 44.4045 4.02888L15.75 11.5047V6.62583C15.75 6.32308 15.5925 6.04134 15.3352 5.88209C15.078 5.7211 14.7542 5.7071 14.4847 5.84359L10.9847 7.59356C10.6872 7.7423 10.5 8.04505 10.5 8.37579V12.8732L4.1545 14.5287C3.7695 14.6302 3.5 14.9767 3.5 15.3756V18.8756C3.5 19.1468 3.626 19.4023 3.8395 19.5686C3.99525 19.6876 4.18425 19.7506 4.375 19.7506C4.4485 19.7506 4.522 19.7418 4.5955 19.7226L7 19.0943V45.125C7 45.608 7.392 46 7.875 46H10.5V25.0004H38.5V46H41.125C41.608 46 42 45.608 42 45.125V9.96476L44.8455 9.22277C45.2305 9.12127 45.5 8.77478 45.5 8.37579V4.87586C45.5 4.60462 45.374 4.34912 45.1605 4.18288Z" fill="#767676"/>
<path d="M19.75 37V38.35C19.75 39.0952 19.19 39.7 18.5 39.7C17.81 39.7 17.25 39.0952 17.25 38.35V37H14.3333C13.8733 37 13.5 37.4032 13.5 37.9V45.1C13.5 45.5968 13.8733 46 14.3333 46H22.6667C23.1267 46 23.5 45.5968 23.5 45.1V37.9C23.5 37.4032 23.1267 37 22.6667 37H19.75Z" fill="#767676"/>
<path d="M31.75 37V38.35C31.75 39.0952 31.19 39.7 30.5 39.7C29.81 39.7 29.25 39.0952 29.25 38.35V37H26.3333C25.8733 37 25.5 37.4032 25.5 37.9V45.1C25.5 45.5968 25.8733 46 26.3333 46H34.6667C35.1267 46 35.5 45.5968 35.5 45.1V37.9C35.5 37.4032 35.1267 37 34.6667 37H31.75Z" fill="#767676"/>
<path d="M25.75 27V28.35C25.75 29.0952 25.19 29.7 24.5 29.7C23.81 29.7 23.25 29.0952 23.25 28.35V27H20.3333C19.8733 27 19.5 27.4032 19.5 27.9V35.1C19.5 35.5968 19.8733 36 20.3333 36H28.6667C29.1267 36 29.5 35.5968 29.5 35.1V27.9C29.5 27.4032 29.1267 27 28.6667 27H25.75Z" fill="#767676"/>
</svg>
