<svg width="40" height="40" viewBox="0 0 40 40" fill="none" xmlns="http://www.w3.org/2000/svg">
<path d="M26.1927 3H32.1172C34.8096 3 37 5.19043 37 7.88281V13.8073C37 16.4997 34.8096 18.6901 32.1172 18.6901H26.1927C23.5003 18.6901 21.3099 16.4997 21.3099 13.8073V7.88281C21.3099 5.19043 23.5003 3 26.1927 3Z" fill="#00A6F2"/>
<circle cx="34.5" cy="5.5" r="4.5" fill="#FF0000"/>
<path d="M8.54915 20.6432H14.4736C17.166 20.6432 19.3564 22.8337 19.3564 25.526V31.4505C19.3564 34.1429 17.166 36.3333 14.4736 36.3333H8.54915C5.85677 36.3333 3.66634 34.1429 3.66634 31.4505V25.526C3.66634 22.8337 5.85677 20.6432 8.54915 20.6432Z" fill="#00A6F2"/>
<path d="M8.54948 3H14.474C17.1663 3 19.3568 5.19043 19.3568 7.88281V13.8073C19.3568 17.5766 22.4234 20.6432 26.1927 20.6432H32.1172C34.8096 20.6432 37 22.8337 37 25.526V31.4505C37 34.1429 34.8096 36.3333 32.1172 36.3333H26.1927C23.5003 36.3333 21.3099 34.1429 21.3099 31.4505V25.526C21.3099 21.7567 18.2433 18.6901 14.474 18.6901H8.54948C5.8571 18.6901 3.66667 16.4997 3.66667 13.8073V7.88281C3.66667 5.19043 5.8571 3 8.54948 3Z" fill="#F28500"/>
</svg>
