<svg width="26" height="25" viewBox="0 0 26 25" fill="none" xmlns="http://www.w3.org/2000/svg">
<path fill-rule="evenodd" clip-rule="evenodd" d="M0.5 12.4684C1.18822 -4.15579 24.8112 -4.15622 25.5 12.4677C25.5011 14.8042 24.8505 17.095 23.6215 19.0802C22.3925 21.0652 20.6342 22.666 18.5455 23.7017C16.4567 24.7375 14.1207 25.167 11.8013 24.9415C9.48186 24.7159 7.27134 23.8443 5.41999 22.4254C4.15226 22.3661 2.88134 22.4296 1.62587 22.6156C1.49874 22.633 1.36921 22.6159 1.25126 22.5653C1.13325 22.5146 1.03089 22.4325 0.955708 22.3282C0.880587 22.2239 0.835347 22.1008 0.824425 21.9726C0.813542 21.8444 0.837417 21.7153 0.893847 21.5998C1.39336 20.6263 1.78807 19.6017 2.06989 18.544C1.0405 16.6854 0.500001 14.5943 0.5 12.4684ZM10.5414 7.26656C10.3078 6.98709 9.88682 6.98709 9.60659 7.26656L7.69166 9.40917C7.45825 9.64207 7.50492 10.015 7.7384 10.2479L10.3544 12.7633L8.11231 14.999C7.87879 15.2319 7.87884 15.6509 8.15905 15.8839L9.74681 17.2346C9.98026 17.4674 10.3539 17.4211 10.5874 17.1884L12.7361 14.999L15.3053 17.4675C15.5389 17.7005 15.9124 17.7005 16.146 17.4675L17.5935 16.1168C17.827 15.8839 17.8738 15.5117 17.6402 15.2788L15.2119 12.4835L17.9207 9.68897C18.1542 9.45606 18.1542 9.08316 17.9207 8.85026L16.5199 7.4995C16.2863 7.26659 15.8654 7.22002 15.6318 7.4995L13.0165 10.108L10.5414 7.26656Z" fill="white"/>
</svg>
