<svg width="25" height="25" viewBox="0 0 25 25" fill="none" xmlns="http://www.w3.org/2000/svg">
<path fill-rule="evenodd" clip-rule="evenodd" d="M7.48e-10 12.4683C0.688245 -4.15578 24.3112 -4.15622 25 12.4677C25.0011 14.8042 24.3505 17.095 23.1215 19.0802C21.8925 21.0652 20.1342 22.6659 18.0455 23.7017C15.9567 24.7375 13.6207 25.167 11.3013 24.9415C8.98183 24.7159 6.77135 23.8444 4.91999 22.4254C3.65226 22.3661 2.38134 22.4296 1.12587 22.6156C0.99872 22.633 0.869229 22.6159 0.751265 22.5653C0.633225 22.5146 0.530895 22.4326 0.455708 22.3282C0.380569 22.2239 0.335326 22.1008 0.324425 21.9726C0.313545 21.8444 0.337382 21.7153 0.393847 21.5998C0.893374 20.6262 1.28807 19.6017 1.56989 18.544C0.540488 16.6853 -2.32184e-05 14.5944 7.48e-10 12.4683ZM19.5178 7.3706C19.9637 6.952 19.5548 6.19139 18.9974 6.38165C16.545 7.21887 13.3865 9.42559 10.4881 13.1927L8.77873 11.252C8.51859 10.9476 8.03531 10.9476 7.77521 11.252L6.51188 12.6978C6.25178 12.9642 6.28892 13.4212 6.54899 13.6496L10.4139 17.4544C10.7483 17.7588 11.2687 17.6833 11.4917 17.3028C13.5726 13.4595 15.7646 10.6431 19.5178 7.3706Z" fill="white"/>
</svg>
