<svg width="30" height="29" viewBox="0 0 30 29" fill="none" xmlns="http://www.w3.org/2000/svg">
<rect width="30" height="29" rx="3" fill="#F28500" fill-opacity="0.6"/>
<mask id="mask0_664_4289" style="mask-type:luminance" maskUnits="userSpaceOnUse" x="4" y="4" width="22" height="21">
<path d="M4.7793 4.31885H25.0012V24.6812H4.7793V4.31885Z" fill="white"/>
</mask>
<g mask="url(#mask0_664_4289)">
<path d="M21.2093 21.2875H8.5707C8.33815 21.2875 8.14941 21.4775 8.14941 21.7117V24.257C8.14941 24.4911 8.33815 24.6812 8.5707 24.6812H21.2093C21.4419 24.6812 21.6306 24.4911 21.6306 24.257V21.7117C21.6306 21.4775 21.4419 21.2875 21.2093 21.2875Z" fill="white"/>
<path d="M22.8947 10.2578C22.6622 10.2578 22.4734 10.4479 22.4734 10.682V13.2273C22.4734 13.929 21.9064 14.5 21.2095 14.5H8.5709C7.87409 14.5 7.30703 13.929 7.30703 13.2273V10.682C7.30703 10.4479 7.1183 10.2578 6.88574 10.2578C5.72383 10.2578 4.7793 11.2098 4.7793 12.3789V18.3179C4.7793 19.487 5.72383 20.439 6.88574 20.439H22.8947C24.0566 20.439 25.0012 19.487 25.0012 18.3179V12.3789C25.0012 11.2098 24.0566 10.2578 22.8947 10.2578ZM23.7373 12.8031C23.5047 12.8031 23.316 12.6131 23.316 12.3789C23.316 12.1447 23.5047 11.9547 23.7373 11.9547C23.9698 11.9547 24.1586 12.1447 24.1586 12.3789C24.1586 12.6131 23.9698 12.8031 23.7373 12.8031Z" fill="white"/>
<path d="M21.2093 4.31885H11.941C11.9216 4.31885 11.9056 4.32733 11.8871 4.32988C11.8686 4.33242 11.8525 4.33582 11.834 4.34091C11.7615 4.36042 11.6941 4.39181 11.6427 4.44442L8.27327 7.83644C8.22188 7.88819 8.1907 7.95606 8.17132 8.02903C8.16627 8.04685 8.1629 8.06297 8.16037 8.08163C8.15784 8.1003 8.14941 8.11727 8.14941 8.13678V13.2274C8.14941 13.4615 8.33815 13.6516 8.5707 13.6516H21.2093C21.4419 13.6516 21.6306 13.4615 21.6306 13.2274V4.74306C21.6306 4.5089 21.4419 4.31885 21.2093 4.31885ZM11.5197 5.76712V7.71257H9.5877L11.5197 5.76712Z" fill="white"/>
</g>
</svg>
