<svg width="20" height="20" viewBox="0 0 20 20" fill="none" xmlns="http://www.w3.org/2000/svg">
<g clip-path="url(#clip0_856_4228)">
<path d="M19.891 10.9234L16.4064 16.518C16.2832 16.7158 16.0978 16.8293 15.8978 16.8293C15.6982 16.8293 15.5133 16.7162 15.3904 16.5189L11.9059 10.9235C11.7793 10.7203 11.7621 10.504 11.8587 10.33C11.955 10.1566 12.1467 10.0572 12.3847 10.0572L14.8505 10.0572C14.8507 10.0384 14.8512 10.0196 14.8512 10.0007C14.8512 6.4579 11.9689 3.5756 8.42604 3.5756C4.88322 3.57559 2.00092 6.4579 2.00092 10.0007C2.00091 13.5435 4.88327 16.4258 8.4261 16.4258C9.51464 16.4258 10.5897 16.1489 11.5351 15.6251C12.0183 15.3573 12.6273 15.5321 12.8951 16.0153C13.1629 16.4986 12.9882 17.1075 12.5049 17.3753C11.2635 18.0632 9.85311 18.4268 8.4261 18.4268C3.77994 18.4268 6.60896e-07 14.6469 1.47326e-06 10.0007C2.28561e-06 5.35457 3.77995 1.57462 8.4261 1.57462C13.0723 1.57463 16.8522 5.35457 16.8522 10.0007C16.8522 10.0196 16.8517 10.0383 16.8516 10.0572L19.4123 10.0572C19.6502 10.0572 19.8419 10.1566 19.9382 10.33C20.0348 10.504 20.0176 10.7203 19.891 10.9234Z" fill="white"/>
</g>
<defs>
<clipPath id="clip0_856_4228">
<rect width="20" height="20" fill="white"/>
</clipPath>
</defs>
</svg>
