<svg width="30" height="30" viewBox="0 0 30 30" fill="none" xmlns="http://www.w3.org/2000/svg">
<rect width="30" height="30" rx="3" fill="#F28500" fill-opacity="0.6"/>
<path fill-rule="evenodd" clip-rule="evenodd" d="M15 10.8024C19.1087 10.8024 22.749 13.4015 25 17.4012C22.749 21.4009 19.1087 24 15 24C10.8913 24 7.25096 21.4009 5 17.4012C7.25096 13.4015 10.8913 10.8024 15 10.8024ZM14.5 4.51167C14.5 4.2291 14.7238 4 15 4C15.2761 4 15.5 4.2291 15.5 4.51167V7.78889C15.5 8.07145 15.2761 8.30055 15 8.30055C14.7238 8.30055 14.5 8.07145 14.5 7.78889V4.51167ZM8.27054 6.49237C8.13354 6.24843 8.21575 5.937 8.45413 5.79684C8.6925 5.65665 8.99683 5.74077 9.13383 5.98471L10.7351 8.82288C10.8721 9.06681 10.7899 9.37825 10.5515 9.5184C10.3131 9.6586 10.0088 9.57447 9.87179 9.33054L8.27054 6.49237ZM20.8662 5.98271C21.0042 5.73877 21.3094 5.65554 21.5478 5.79684C21.7862 5.93815 21.8675 6.25043 21.7295 6.49441L20.1282 9.33258C19.9901 9.57652 19.685 9.65975 19.4465 9.51845C19.2082 9.37714 19.1268 9.06481 19.2649 8.82087L20.8662 5.98271ZM15 13.2438C13.8782 13.2438 12.8626 13.7092 12.1274 14.4615C11.3922 15.2139 10.9374 16.2532 10.9374 17.4012C10.9374 18.5491 11.3922 19.5885 12.1274 20.3408C12.8626 21.0932 13.8782 21.5585 15 21.5585C16.1218 21.5585 17.1374 21.0932 17.8726 20.3408C18.6078 19.5885 19.0626 18.5491 19.0626 17.4012C19.0626 16.2532 18.6078 15.2139 17.8726 14.4615C17.1374 13.7092 16.1218 13.2438 15 13.2438ZM17.1656 15.1851C16.6114 14.618 15.8458 14.2672 15 14.2672C14.1543 14.2672 13.3886 14.618 12.8344 15.1851C12.2803 15.7522 11.9375 16.5357 11.9375 17.4012C11.9375 18.2667 12.2803 19.0502 12.8344 19.6173C13.3886 20.1844 14.1543 20.5352 15 20.5352C15.8458 20.5352 16.6114 20.1844 17.1656 19.6173C17.7198 19.0502 18.0625 18.2667 18.0625 17.4012C18.0625 16.5357 17.7198 15.7522 17.1656 15.1851Z" fill="white"/>
</svg>
