<svg width="30" height="31" viewBox="0 0 30 31" fill="none" xmlns="http://www.w3.org/2000/svg">
<g clip-path="url(#clip0_183_868)">
<path fill-rule="evenodd" clip-rule="evenodd" d="M24.3409 14.2615H14.8155L13.884 11.7483H19.7715C24.0246 11.7483 26.6608 7.23159 24.7979 3.57606C24.7627 3.52333 24.6397 3.29486 24.464 2.99609C27.522 3.06639 29.9824 5.562 29.9824 8.63757C29.9824 11.7483 27.4517 14.2615 24.3409 14.2615ZM13.638 11.0453L10.6503 2.99609H23.6731C23.9192 3.45304 24.1301 3.83968 24.1652 3.8924C25.7996 7.091 23.4974 11.0453 19.7715 11.0453H13.638ZM14.0773 14.2615H10.58C10.4394 14.2615 10.2988 14.1736 10.246 14.033L6.36204 3.47061C6.27416 3.24214 6.44991 2.99609 6.69596 2.99609H9.91213L13.058 11.5198V11.555L14.0773 14.2615Z" fill="white"/>
<path fill-rule="evenodd" clip-rule="evenodd" d="M27.1178 27.5306H22.2847C21.8102 27.5306 21.4411 27.144 21.4411 26.687V24.3496C21.5466 24.4023 21.6696 24.4199 21.7926 24.4199H27.6098C27.7329 24.4199 27.8383 24.4023 27.9613 24.3672V26.687C27.9613 27.144 27.5747 27.5306 27.1178 27.5306Z" fill="white"/>
<path fill-rule="evenodd" clip-rule="evenodd" d="M27.6099 23.84H21.7926C21.6345 23.84 21.5114 23.7522 21.4587 23.594L18.4886 14.8594H24.341C24.587 14.8594 24.8155 14.8418 25.0264 14.8242C25.8875 17.3374 27.9613 23.3655 27.9613 23.4885C27.9613 23.6819 27.8032 23.84 27.6099 23.84Z" fill="white"/>
<path fill-rule="evenodd" clip-rule="evenodd" d="M18.5061 16.7047H17.2935C16.6959 16.7047 16.2039 16.2126 16.2039 15.6151V14.8594H17.8735L18.5061 16.7047Z" fill="white"/>
<path fill-rule="evenodd" clip-rule="evenodd" d="M13.5325 26.3704H2.82952C2.2847 26.3704 1.84534 25.9134 1.84534 25.3686V18.7078C1.84534 18.163 2.2847 17.7236 2.82952 17.7236H13.5325C14.0773 17.7236 14.5167 18.163 14.5167 18.7078V25.3686C14.5167 25.9134 14.0773 26.3704 13.5325 26.3704ZM3.9543 24.525C3.76098 24.525 3.60281 24.3669 3.60281 24.1735V19.9029C3.60281 19.446 4.30579 19.446 4.30579 19.9029V24.1735C4.30579 24.3669 4.14762 24.525 3.9543 24.525ZM6.06326 24.525C5.86994 24.525 5.71177 24.3669 5.71177 24.1735V19.9029C5.71177 19.446 6.41476 19.446 6.41476 19.9029V24.1735C6.41476 24.3669 6.25659 24.525 6.06326 24.525ZM8.17223 24.525C7.97891 24.525 7.82073 24.3669 7.82073 24.1735V19.9029C7.82073 19.446 8.52372 19.446 8.52372 19.9029V24.1735C8.52372 24.3669 8.38312 24.525 8.17223 24.525ZM10.2988 24.525C10.1054 24.525 9.94727 24.3669 9.94727 24.1735V19.9029C9.94727 19.446 10.6503 19.446 10.6503 19.9029V24.1735C10.6503 24.3669 10.4921 24.525 10.2988 24.525ZM12.4077 24.525C12.2144 24.525 12.0562 24.3669 12.0562 24.1735V19.9029C12.0562 19.446 12.7592 19.446 12.7592 19.9029V24.1735C12.7592 24.3669 12.6011 24.525 12.4077 24.525Z" fill="white"/>
<path fill-rule="evenodd" clip-rule="evenodd" d="M0.369073 19.5862C-0.492087 19.5862 -0.28119 18.3384 -0.28119 17.7936C-0.28119 16.6863 0.615119 15.79 1.72232 15.79H3.2689C4.11248 15.79 4.11248 17.073 3.2689 17.073H1.72232C1.33568 17.073 1.00176 17.4069 1.00176 17.7936C1.00176 18.3384 1.23023 19.5862 0.369073 19.5862ZM15.993 19.5862C15.1318 19.5862 15.3603 18.3384 15.3603 17.7936C15.3603 17.4069 15.0264 17.073 14.6397 17.073H13.0932C12.2496 17.073 12.2496 15.79 13.0932 15.79H14.6397C15.7469 15.79 16.6432 16.6863 16.6432 17.7936C16.6432 18.3384 16.8541 19.5862 15.993 19.5862ZM3.2689 28.2856H1.72232C0.615119 28.2856 -0.28119 27.3893 -0.28119 26.2821C-0.28119 25.7373 -0.492087 24.5071 0.369073 24.5071C1.23023 24.5071 1.00176 25.7373 1.00176 26.2821C1.00176 26.6864 1.33568 27.0027 1.72232 27.0027H3.2689C4.11248 27.0027 4.11248 28.2856 3.2689 28.2856ZM14.6397 28.2856H13.0932C12.2496 28.2856 12.2496 27.0027 13.0932 27.0027H14.6397C15.0264 27.0027 15.3603 26.6864 15.3603 26.2821C15.3603 25.7373 15.1318 24.5071 15.993 24.5071C16.8541 24.5071 16.6432 25.7373 16.6432 26.2821C16.6432 27.3893 15.7469 28.2856 14.6397 28.2856Z" fill="white"/>
</g>
<defs>
<clipPath id="clip0_183_868">
<rect width="30" height="30" fill="white" transform="translate(0 0.5)"/>
</clipPath>
</defs>
</svg>
