<svg width="30" height="30" viewBox="0 0 30 30" fill="none" xmlns="http://www.w3.org/2000/svg">
<rect width="30" height="30" rx="3" fill="#00A6F2" fill-opacity="0.6"/>
<path d="M24.9203 23.3504V10.8699H11.0347V21.9609C10.6643 21.596 10.1978 21.3287 9.67712 21.2004V5.84771C9.67712 4.28253 8.40374 3.00916 6.83856 3.00916C5.27337 3.00916 4 4.28253 4 5.84771V7.20788H5.40518V5.84771C5.40518 5.05735 6.04819 4.41434 6.83856 4.41434C7.62893 4.41434 8.27194 5.05735 8.27194 5.84771V21.2004C6.99018 21.5162 6.03653 22.675 6.03653 24.0529C6.03653 25.673 7.35449 26.9909 8.97453 26.9909C10.3524 26.9909 11.5112 26.0373 11.827 24.7555H26V23.3504H24.9203ZM19.6219 18.6349L18.5296 17.5426V21.049H17.1244V17.5426L16.0321 18.6349L15.0385 17.6413L17.827 14.8529L20.6155 17.6413L19.6219 18.6349Z" fill="white"/>
</svg>
